<svg xmlns="http://www.w3.org/2000/svg" viewBox="0 0 313.65 340.68"><title>Recurso 9</title><g id="Capa_2" data-name="Capa 2"><g id="Capa_1-2" data-name="Capa 1"><path d="M313.51,80.32a8.84,8.84,0,0,0-.87-3.81,8.35,8.35,0,0,0-5.82-4.61L160.35.86a8.69,8.69,0,0,0-7.55,0L4.89,72.55A8.65,8.65,0,0,0,0,80V260.3a8.57,8.57,0,0,0,4.89,7.76L152.8,339.75c.07,0,.07,0,.14.07a2.32,2.32,0,0,1,.65.29c.07,0,.14.07.29.07l.65.22c.07,0,.14.07.21.07s.5.07.72.14h.21c.29,0,.65.07.94.07a4.12,4.12,0,0,0,.93-.07h.22a2.62,2.62,0,0,0,.72-.14c.07,0,.14-.07.21-.07l.65-.22c.07,0,.15-.07.29-.07a2.65,2.65,0,0,0,.65-.29c.07,0,.07,0,.14-.07l148.34-71.91a8.68,8.68,0,0,0,4.89-7.76V80.53C313.51,80.46,313.51,80.39,313.51,80.32Zm-157-62.13,128.27,62.2-47.24,22.94L109.3,41.13Zm-8.63,300L17.26,254.83V94.27l130.65,63.34Zm8.63-175.59L28.26,80.39l61.26-29.7,128.28,62.2Zm139.71,112L165.17,318.18V157.61l61.33-29.77v42a8.63,8.63,0,1,0,17.26,0V119.43L296.25,94Z"/></g></g></svg>