<svg xmlns="http://www.w3.org/2000/svg" viewBox="0 0 377.41 420.07"><title>Recurso 4</title><g id="Capa_2" data-name="Capa 2"><g id="Capa_1-2" data-name="Capa 1"><path d="M8.2,420.07h361a8.2,8.2,0,0,0,8.2-8.2c0-50.65-32.91-98.38-78.25-113.5l-39-13-14-28a89.83,89.83,0,0,0,24.32-47.53l1.75-10.47h14.93a24.64,24.64,0,0,0,24.61-24.61V123.07a123.07,123.07,0,1,0-246.13,0v51.69A24.66,24.66,0,0,0,82.05,198v9.62a24.64,24.64,0,0,0,24.61,24.61h7.2a88.85,88.85,0,0,0,13.77,21.31c1.16,1.34,2.37,2.63,3.61,3.89l-14,28-39,13C32.91,313.49,0,361.22,0,411.87A8.2,8.2,0,0,0,8.2,420.07Zm180.51-23.72-11.13-17.86c-.13-.2-.26-.4-.4-.59a315.46,315.46,0,0,1-18.49-27.61l29.26-31,30.83,30.83a310.58,310.58,0,0,1-18.55,27.73C199.83,378.44,200.4,377.59,188.71,396.35Zm38.37-61.08-27.85-27.85,35.06-37.08,11.17,22.32A313,313,0,0,1,227.08,335.27Zm-39.46-39.46-16-16a82.45,82.45,0,0,0,30.51.69Zm-45.9-22.69,34.62,34.62-26,27.52A313.71,313.71,0,0,1,132,292.66Zm219,130.54H203.48l10.09-16.2a328.38,328.38,0,0,0,22.62-34.56l.12-.22v0a328.87,328.87,0,0,0,23.11-50.22L294,313.94C330.37,326.08,357.42,363,360.67,403.66ZM90.25,183a8.21,8.21,0,0,1-8.2-8.2V131.27H98.7l.09,2.58v.09h0c.57,16.47,1.95,33.21,4,49ZM262.48,122.9V123l-10.26-1.47A131.82,131.82,0,0,1,178.1,84.45a8.21,8.21,0,0,0-5.8-2.4,74.18,74.18,0,0,0-57.07,27,66.69,66.69,0,0,1,66.13-59.82h14.69c36.76,0,66.52,30.07,66.5,66.79C262.55,118.6,262.53,120.85,262.48,122.9Zm32.88,51.86a8.21,8.21,0,0,1-8.2,8.2H274.64c2.08-16.15,3.47-33.34,4-50.28,0-.47,0-.94.05-1.41h16.64ZM188.71,16.41a106.79,106.79,0,0,1,106.34,98.45H278.94c-.59-45.31-37.49-82-82.89-82H181.36c-45.4,0-82.3,36.73-82.89,82H82.36A106.59,106.59,0,0,1,188.71,16.41ZM98.45,207.58v-8.21h6.73l1.75,10.47c.33,2,.74,4,1.21,5.94h-1.48A8.22,8.22,0,0,1,98.45,207.58Zm50.64,24.61A24.66,24.66,0,0,0,172.3,248.6h16.41a24.62,24.62,0,0,0,0-49.23H172.3a24.62,24.62,0,0,0-23.22,16.41H125.15c-4.1-13.66-8.8-53.87-9.84-79.63l11-14.72a57.73,57.73,0,0,1,42.7-22.88,148.47,148.47,0,0,0,80.85,39.2L262,139.48c-.81,17.14-2.46,34.33-4.82,50.14v0c-.75,5.09-1.34,8.36-2.85,17.5-4.35,26.06-23.79,49.63-49.47,56a66.65,66.65,0,0,1-32.25,0c-16-4-30.73-15.09-40.21-31Zm15-8.21a8.21,8.21,0,0,1,8.21-8.2h16.41a8.21,8.21,0,0,1,0,16.41H172.3A8.22,8.22,0,0,1,164.09,224Zm-80.65,90L118,302.43a328.9,328.9,0,0,0,23.35,50.65l0,.09h0a327.44,327.44,0,0,0,22.46,34.29l10.09,16.2H16.74C20,363,47,326.08,83.44,313.94Z"/></g></g></svg>