<svg xmlns="http://www.w3.org/2000/svg" viewBox="0 0 69.72 69.72"><defs><style>.cls-1{fill:#fff;}</style></defs><title>Recurso 19</title><g id="Capa_2" data-name="Capa 2"><g id="Capa_5" data-name="Capa 5"><path class="cls-1" d="M68.06,0H1.66A1.66,1.66,0,0,0,0,1.66v66.4a1.66,1.66,0,0,0,1.66,1.66h66.4a1.66,1.66,0,0,0,1.66-1.66V1.66A1.66,1.66,0,0,0,68.06,0ZM66.41,65.9a.5.5,0,0,1-.5.5H3.82a.5.5,0,0,1-.5-.5V3.82a.5.5,0,0,1,.5-.5H65.91a.5.5,0,0,1,.5.5Z"/><path class="cls-1" d="M34,18v7.31a9,9,0,0,1,.92,0c.3,0,.61,0,.91,0V18a4.07,4.07,0,0,1,1.07-2.6l5.84-5.84L41.4,8.29,38.58,11.1a1.76,1.76,0,0,1-1.46.56A1.45,1.45,0,0,1,36,11a2.05,2.05,0,0,1-.25-1V7.45H34V9.94A1.65,1.65,0,0,1,33,11.59a1.75,1.75,0,0,1-1.88-.48L28.33,8.29,27,9.59l5.84,5.83A4.06,4.06,0,0,1,34,18Z"/><path class="cls-1" d="M58.27,33.09a1.63,1.63,0,0,1,.47-1.83l2.81-2.81-1.29-1.29L54.42,33a4,4,0,0,1-2.6,1.07h-7.3c0,.31,0,.61,0,.92s0,.62,0,.92h7.3A4,4,0,0,1,54.42,37l5.84,5.83,1.29-1.3L58.74,38.7a1.58,1.58,0,0,1,1.17-2.8h2.48V34.06H59.91A1.62,1.62,0,0,1,58.27,33.09Z"/><path class="cls-1" d="M35.78,51.94v-7.3a10.17,10.17,0,0,1-1.83,0v7.3a4.06,4.06,0,0,1-1.09,2.61L27,60.38l1.3,1.29,2.81-2.81a1.81,1.81,0,0,1,1.28-.59A1.57,1.57,0,0,1,34,60v2.49h1.83V60a1.65,1.65,0,0,1,.92-1.64,1.75,1.75,0,0,1,1.88.48l2.82,2.81,1.29-1.29-5.84-5.84A4,4,0,0,1,35.78,51.94Z"/><path class="cls-1" d="M25.17,35c0-.31,0-.61,0-.92H17.9A4.06,4.06,0,0,1,15.31,33L9.47,27.15l-1.3,1.3L11,31.26a1.57,1.57,0,0,1-1.16,2.8H7.33V35.9H9.82A1.57,1.57,0,0,1,11,38.7L8.17,41.51l1.3,1.3L15.3,37a4,4,0,0,1,2.6-1.08h7.31C25.18,35.59,25.17,35.29,25.17,35Z"/><path class="cls-1" d="M19.57,22.63a4,4,0,0,1,2.6,1.07l5.2,5.15,0-.06a10.53,10.53,0,0,1,1.2-1.21l.05,0-5.2-5.15a4.07,4.07,0,0,1-1.09-2.59l0-8.25H20.5l0,4A1.81,1.81,0,0,1,20,16.85a1.59,1.59,0,0,1-2.31-.14L16,15l-1.29,1.3L16.43,18a1.58,1.58,0,0,1-1.14,2.81h-4l0,1.84Z"/><path class="cls-1" d="M42.31,28.79l0,.06,5.19-5.15a4,4,0,0,1,2.6-1.07l8.26,0V20.83h-4A1.58,1.58,0,0,1,53.3,18l1.77-1.76L53.78,15,52,16.71a1.63,1.63,0,0,1-2.32.15,1.82,1.82,0,0,1-.48-1.33l0-4H47.39l0,8.25a4.1,4.1,0,0,1-1.09,2.6l-5.2,5.15,0,0A10.55,10.55,0,0,1,42.31,28.79Z"/><path class="cls-1" d="M50.16,47.34a4,4,0,0,1-2.61-1.07l-5.19-5.15-.06.06a10.24,10.24,0,0,1-1.18,1.2l0,0,5.19,5.14a4,4,0,0,1,1.09,2.6l0,8.25h1.83v-4a1.82,1.82,0,0,1,.47-1.32,1.62,1.62,0,0,1,2.32.15L53.77,55l1.29-1.3L53.29,52a1.57,1.57,0,0,1,1.15-2.8l4,0V47.29Z"/><path class="cls-1" d="M27.41,41.17l-.05-.06-5.19,5.16a4.06,4.06,0,0,1-2.59,1.07l-8.26-.05,0,1.84,4,0A1.57,1.57,0,0,1,16.43,52l-1.77,1.76L16,55l1.77-1.75A1.61,1.61,0,0,1,20,53.11a1.79,1.79,0,0,1,.49,1.32l0,4h1.83l0-8.25a4,4,0,0,1,1.09-2.6l5.19-5.15,0,0A10,10,0,0,1,27.41,41.17Z"/><path class="cls-1" d="M34.87,29.2A5.78,5.78,0,1,0,40.64,35,5.8,5.8,0,0,0,34.87,29.2Z"/></g></g></svg>