<svg xmlns="http://www.w3.org/2000/svg" viewBox="0 0 81.99 81.98"><defs><style>.cls-1{fill:#fff;}</style></defs><title>Recurso 23</title><g id="Capa_2" data-name="Capa 2"><g id="Capa_5" data-name="Capa 5"><path class="cls-1" d="M81.84,19.43a4.09,4.09,0,0,0-1.91-2.49,4.1,4.1,0,0,0-5.61,1.51l-.68,1.18a1.37,1.37,0,0,0-1.86.5L68.31,26l-1.19-.68a1.36,1.36,0,0,0-1.87.5,1.37,1.37,0,0,0,.51,1.86L67,28.4,55.33,48.53,52.46,56.2,51.1,58.75a4.09,4.09,0,0,0,.22,4.43L48.24,67l-.86-2.16a2.73,2.73,0,0,0-4.88-.38l-.49.83-.46-5.47a2.74,2.74,0,0,0-5.32-.64L32.87,69.22a1.37,1.37,0,0,0,.86,1.72,1.3,1.3,0,0,0,.43.11,1.37,1.37,0,0,0,1.29-.93L38.8,60l.48,5.55a2.73,2.73,0,0,0,5.07,1.18l.51-.84.84,2.15a2.73,2.73,0,0,0,4.67.69l3.19-4a3.9,3.9,0,0,0,1.08.14,4.1,4.1,0,0,0,3.56-2l1.37-2.28,5.2-6.33L76.51,33.87l1.19.68a1.39,1.39,0,0,1,.51,1.88l-5.47,9.46A1.33,1.33,0,0,0,72.55,47a1.36,1.36,0,0,0,.63.87,1.35,1.35,0,0,0,1.87-.51l5.46-9.46a4.06,4.06,0,0,0,.41-3.12A4.12,4.12,0,0,0,79,32.24l-1.19-.68,3.42-5.91a1.38,1.38,0,0,0-.49-1.86l.68-1.19a4.09,4.09,0,0,0,.41-3.17Zm-5.15.38a1.33,1.33,0,0,1,.83-.64,1.4,1.4,0,0,1,1,.14,1.33,1.33,0,0,1,.64.83,1.45,1.45,0,0,1-.13,1l-.69,1.19L76,21ZM58.07,58l-.69-.4-2-1.17,1.94-5.2,4.3,2.49ZM54,61.91a1.36,1.36,0,0,1-.41-1.79l.68-1.19,2.38,1.36-.68,1.18a1.4,1.4,0,0,1-.89.65A1.37,1.37,0,0,1,54,61.91Zm9.19-10.47-4.72-2.73L69.37,29.77l4.72,2.73Zm12.3-21.3-4.73-2.73,2.73-4.73,4.73,2.73Z"/><path class="cls-1" d="M21.56,61.22l-4.84,4.83-2.89-2.9a1.37,1.37,0,0,0-1.93,1.94L14.8,68a2.75,2.75,0,0,0,3.86,0l4.83-4.84a1.37,1.37,0,0,0-1.93-1.93Z"/><path class="cls-1" d="M5.47,64.9a11.61,11.61,0,0,0,23.22,0,1.37,1.37,0,1,0-2.73,0,8.87,8.87,0,1,1-3.55-7.11,1.36,1.36,0,1,0,1.64-2.18A11.61,11.61,0,0,0,5.47,64.9Z"/><path class="cls-1" d="M49.19,10.93a1.37,1.37,0,0,0,0-2.73H13.66A1.36,1.36,0,0,0,12.3,9.56V15a1.37,1.37,0,0,0,1.36,1.37H49.19a1.37,1.37,0,0,0,0-2.74H15V10.93Z"/><path class="cls-1" d="M17.76,19.13a1.37,1.37,0,0,0,0,2.73H45.09a1.37,1.37,0,0,0,0-2.73Z"/><path class="cls-1" d="M53.28,28.69h-30a1.37,1.37,0,1,0,0,2.73H53.28a1.37,1.37,0,1,0,0-2.73Z"/><path class="cls-1" d="M39.62,38.26a1.36,1.36,0,0,0-1.36-1.37H10.93a1.37,1.37,0,1,0,0,2.73H38.26a1.36,1.36,0,0,0,1.36-1.36Z"/><path class="cls-1" d="M53.28,36.89H43.72a1.37,1.37,0,1,0,0,2.73h9.56a1.37,1.37,0,1,0,0-2.73Z"/><path class="cls-1" d="M24.59,46.45a1.37,1.37,0,1,0,0-2.73H10.93a1.37,1.37,0,1,0,0,2.73Z"/><path class="cls-1" d="M30.06,46.45h9.56a1.37,1.37,0,1,0,0-2.73H30.06a1.37,1.37,0,1,0,0,2.73Z"/><path class="cls-1" d="M61.48,62.85a1.36,1.36,0,0,0-1.36,1.36V77.88a1.37,1.37,0,0,1-1.37,1.36H4.1a1.36,1.36,0,0,1-1.37-1.36V4.1A1.37,1.37,0,0,1,4.1,2.73H58.75A1.37,1.37,0,0,1,60.12,4.1V29.76a1.37,1.37,0,0,0,2.73,0V4.1A4.11,4.11,0,0,0,58.75,0H4.1A4.11,4.11,0,0,0,0,4.1V77.88A4.11,4.11,0,0,0,4.1,82H58.75a4.11,4.11,0,0,0,4.1-4.1V64.21a1.36,1.36,0,0,0-1.37-1.36Z"/></g></g></svg>