<svg xmlns="http://www.w3.org/2000/svg" viewBox="0 0 92.59 78.37"><defs><style>.cls-1{fill:#fff;}</style></defs><title>Recurso 26</title><g id="Capa_2" data-name="Capa 2"><g id="Capa_5" data-name="Capa 5"><path class="cls-1" d="M34.55,40.29a8.37,8.37,0,1,0-12.28,3.16,9.32,9.32,0,0,0-2.73,9.19l1.82,7.08a2,2,0,0,0,2.44,1.44l18-4.62a2,2,0,0,0,1.44-2.44L41.37,47a9.31,9.31,0,0,0-6.82-6.73ZM26,32.37a4.36,4.36,0,0,1,2.22,8.43l-.09,0A4.36,4.36,0,0,1,26,32.37ZM38.81,53.16,24.74,56.78l-1.32-5.14a5.31,5.31,0,0,1,3.81-6.46l3.8-1A5.31,5.31,0,0,1,37.49,48l1.32,5.14Zm7.23-23a2,2,0,0,1,1.44-2.44L58,25a2,2,0,0,1,1,3.88l-10.49,2.7A2,2,0,0,1,46,30.14ZM70.43.27,65.17,1.62l-.07,0L55,4.24l-.08,0-10.1,2.6-.08,0L34.63,9.49l-.08,0-10.11,2.6-.07,0-10.11,2.6-.08,0-7.81,2A8.49,8.49,0,0,0,.27,27.09L11.83,72a8.5,8.5,0,0,0,10.33,6.1l5.26-1.36.07,0,10.11-2.6.07,0,10.11-2.6.08,0L58,68.88l.08,0,10.11-2.6h.07l10.11-2.6.07,0,7.82-2a8.49,8.49,0,0,0,6.1-10.33L80.76,6.37A8.49,8.49,0,0,0,70.43.27Zm18,52a4.48,4.48,0,0,1-3.22,5.45l-4.63,1.19.54-2.25a2,2,0,0,0-3.9-.93l-1,4.31-5.79,1.49L71,59.29a2,2,0,0,0-3.9-.93l-1,4.31-5.79,1.49.53-2.24A2,2,0,1,0,56.87,61l-1,4.31L50,66.78l.54-2.24a2,2,0,1,0-3.89-.94l-1,4.31L39.86,69.4l.54-2.24a2,2,0,1,0-3.9-.94l-1,4.31L29.68,72l.54-2.24a2,2,0,1,0-3.9-.93l-1,4.3-4.13,1.07A4.48,4.48,0,0,1,15.71,71L4.15,26.09a4.48,4.48,0,0,1,3.22-5.45L12,19.45l-.54,2.24a2,2,0,1,0,3.9.94l1-4.31,5.79-1.49-.54,2.24a2,2,0,1,0,3.9.94l1-4.31,5.79-1.49-.53,2.24a2,2,0,1,0,3.89.93l1-4.3,5.8-1.5L42,13.83a2,2,0,0,0,3.89.93l1-4.31L52.73,9l-.54,2.25a2,2,0,0,0,3.9.93l1-4.31,5.79-1.49-.54,2.25a2,2,0,0,0,3.9.93l1-4.31,4.13-1.06a4.48,4.48,0,0,1,5.45,3.21L88.44,52.28ZM77.17,40.35a2,2,0,0,1-1.44,2.44L52.88,48.67a2,2,0,0,1-1-3.88l22.85-5.88a2,2,0,0,1,2.44,1.44Zm-2-7.71a2,2,0,0,1-1.44,2.44L50.9,41a2,2,0,0,1-1-3.88L72.74,31.2a2,2,0,0,1,2.44,1.44Z"/></g></g></svg>