<svg xmlns="http://www.w3.org/2000/svg" viewBox="0 0 15 11.39"><defs><style>.cls-1{fill:#fff;}</style></defs><title>Recurso 13</title><g id="Capa_2" data-name="Capa 2"><g id="Capa_5" data-name="Capa 5"><path class="cls-1" d="M13.22,0H1.78A1.75,1.75,0,0,0,0,1.71v8a1.74,1.74,0,0,0,1.78,1.71H13.22A1.74,1.74,0,0,0,15,9.68v-8A1.75,1.75,0,0,0,13.22,0Zm0,9.88H1.78c-.14,0-.27-.09-.27-.2V2.76L6.68,7.13a.59.59,0,0,0,.38.14h.88a.59.59,0,0,0,.38-.14l5.17-4.37V9.68c0,.11-.13.2-.27.2ZM7.5,5.77l-5-4.26H12.53Z"/></g></g></svg>