<svg xmlns="http://www.w3.org/2000/svg" viewBox="0 0 76 76"><defs><style>.cls-1{fill:#fff;}</style></defs><title>Recurso 18</title><g id="Capa_2" data-name="Capa 2"><g id="Capa_5" data-name="Capa 5"><path class="cls-1" d="M71,50.77l-8.45-1.54V46.87a9.82,9.82,0,0,0,3-4,6.12,6.12,0,0,0,5.61-6.08V25.94a6.6,6.6,0,0,0-4.23-6.16l-.91-.9A14.12,14.12,0,0,0,58.84,15V0H21.56L9.81,11.75v25.1A11,11,0,0,0,4.9,57V71.1L11,66.5l6.13,4.6V63.74H36.77V76H76V56.8a6.13,6.13,0,0,0-5-6Zm-9.37.79.86.16-.81,4.86L58.39,54Zm-1.54-1.91L56.39,52.4l-3.68-2.75V48.31a9.74,9.74,0,0,0,7.35,0Zm-8.88,1.91L54.39,54l-3.27,2.61-.81-4.86ZM63.74,39.23a7.36,7.36,0,0,1-14.71,0V31.87a1.22,1.22,0,0,1,1.23-1.22h7.86l1.79-1.8a2.27,2.27,0,0,1,1.59-.66,2.24,2.24,0,0,1,2.24,2.24Zm2.4,1a8.44,8.44,0,0,0,0-1V33.32a3.65,3.65,0,0,1,0,6.92Zm-.61-18.33.28.09a4.16,4.16,0,0,1,2.84,3.94v6a6.09,6.09,0,0,0-2.46-1.13v-.34a4.69,4.69,0,0,0-8-3.31L57.1,28.19H50.26a3.67,3.67,0,0,0-3.49,2.56,6.1,6.1,0,0,0-2.64,1.15v-3a11.77,11.77,0,0,1,20.1-8.33ZM46.63,40.24a3.66,3.66,0,0,1-.05-6.92v5.91c0,.34,0,.68.05,1Zm4.85-24.82a14.28,14.28,0,0,0-9.09,9.1H34.32V7.35H51.48Zm4.91-.69-.49,0a14,14,0,0,0-2,.15V4.9H31.87V27h10a14.16,14.16,0,0,0-.15,2v7.83a6.12,6.12,0,0,0,5.6,6.08,9.87,9.87,0,0,0,3,4v2.36l-8.45,1.54a6.35,6.35,0,0,0-1.94.71H21.42a10.89,10.89,0,0,0,.64-3.67,11,11,0,0,0-9.8-11V13.48h11v-11h33.1ZM14,11l6.85-6.85V11ZM2.45,47.81A8.58,8.58,0,1,1,11,56.39a8.59,8.59,0,0,1-8.58-8.58ZM11,63.44,7.35,66.19v-8a11.25,11.25,0,0,0,3.68.64,11.2,11.2,0,0,0,3.68-.64v8Zm6.13-2.15V57a11.1,11.1,0,0,0,3-3H37.5a6,6,0,0,0-.73,2.86v4.49ZM39.23,56.8a3.68,3.68,0,0,1,3-3.62l5.66-1,1.49,8.94,5.77-4.61V73.55H39.23ZM73.55,73.55H57.61V56.49l5.77,4.61,1.49-8.94,5.66,1a3.68,3.68,0,0,1,3,3.62Z"/><path class="cls-1" d="M11,53.94A6.13,6.13,0,1,0,4.9,47.81,6.14,6.14,0,0,0,11,53.94Zm0-9.81a3.68,3.68,0,1,1-3.68,3.68A3.68,3.68,0,0,1,11,44.13Z"/><rect class="cls-1" x="14.71" y="15.94" width="14.71" height="2.45"/><rect class="cls-1" x="14.71" y="20.84" width="14.71" height="2.45"/><rect class="cls-1" x="14.71" y="25.74" width="14.71" height="2.45"/><rect class="cls-1" x="30.65" y="56.39" width="2.45" height="2.45"/><rect class="cls-1" x="25.74" y="56.39" width="2.45" height="2.45"/><rect class="cls-1" x="20.84" y="56.39" width="2.45" height="2.45"/><rect class="cls-1" x="24.52" y="44.13" width="14.71" height="2.45"/><rect class="cls-1" x="24.52" y="39.23" width="14.71" height="2.45"/><rect class="cls-1" x="24.52" y="34.32" width="14.71" height="2.45"/><rect class="cls-1" x="60.06" y="63.74" width="2.45" height="2.45"/><rect class="cls-1" x="60.06" y="68.65" width="2.45" height="2.45"/></g></g></svg>