<svg xmlns="http://www.w3.org/2000/svg" viewBox="0 0 78 78"><defs><style>.cls-1{fill:#fff;}</style></defs><title>Recurso 25</title><g id="Capa_2" data-name="Capa 2"><g id="Capa_5" data-name="Capa 5"><path class="cls-1" d="M60.24,67.13l-4.78,9.55a2.39,2.39,0,1,1-4.27-2.14L56,65a2.39,2.39,0,0,1,4.27,2.14ZM39,63.67a2.39,2.39,0,0,0-2.39,2.39v9.55a2.39,2.39,0,1,0,4.78,0V66.06A2.39,2.39,0,0,0,39,63.67ZM22,65a2.39,2.39,0,0,0-4.27,2.14l4.78,9.55a2.39,2.39,0,1,0,4.27-2.14ZM64.47,49.35h1.59a2.39,2.39,0,0,0,0-4.78H64.47a2.39,2.39,0,0,0,0,4.78ZM43.78,44.57h-1.6a2.39,2.39,0,0,0,0,4.78h1.6a2.39,2.39,0,0,0,0-4.78Zm34.22-4V51.73a7.17,7.17,0,0,1-7.16,7.17H7.16A7.17,7.17,0,0,1,0,51.73V40.59a2.41,2.41,0,0,1,1.06-2l14.33-9.55a2.38,2.38,0,0,1,1.32-.4h5.58V2.39A2.38,2.38,0,0,1,24.67,0H53.33a2.38,2.38,0,0,1,2.38,2.39V28.65h5.58a2.38,2.38,0,0,1,1.32.4l14.33,9.56a2.38,2.38,0,0,1,1.06,2ZM27.06,28.65H50.94V4.78H27.06ZM73.22,41.87,60.56,33.43H17.44L4.78,41.87v9.86a2.39,2.39,0,0,0,2.38,2.39H70.84a2.39,2.39,0,0,0,2.38-2.39Zm-18.3,2.7H53.33a2.39,2.39,0,0,0,0,4.78h1.59a2.39,2.39,0,0,0,0-4.78Z"/></g></g></svg>