<svg xmlns="http://www.w3.org/2000/svg" viewBox="0 0 391.7 358.7"><title>Recurso 10</title><g id="Capa_2" data-name="Capa 2"><g id="Capa_1-2" data-name="Capa 1"><path d="M387.06,171.41a10.37,10.37,0,0,0-9.8-.92l-78.28,33V180.07a10.41,10.41,0,0,0-14.44-9.59l-78.29,33V180.07a10.4,10.4,0,0,0-14.44-9.59L183.45,174,180.86,56a10.46,10.46,0,0,0-10.4-10.18H140.68A10.46,10.46,0,0,0,130.28,56l-3.1,141.77-11.56,4.88L111.4,10.17A10.44,10.44,0,0,0,101,0H64A10.46,10.46,0,0,0,53.64,10.17l-4,181.15L6.36,209.59A10.39,10.39,0,0,0,0,219.18V348.31A10.4,10.4,0,0,0,10.4,358.7H381.31a10.4,10.4,0,0,0,10.39-10.39V180.07A10.38,10.38,0,0,0,387.06,171.41ZM148.18,188.89l2.68-122.3h9.43l2.54,116.12ZM90.84,20.8l3.32,151.76-23.49,9.91L74.21,20.8Zm6.54,207a10.44,10.44,0,0,0,9.8.92L109,228h.75l.54-.54,66.53-28.06h2.81V198.2l5.86-2.47v23.45a10.41,10.41,0,0,0,14.44,9.58l78.29-33v23.45a10.41,10.41,0,0,0,14.44,9.58l78.29-33V337.9H20.79V226.08l71.93-30.35v23.45A10.36,10.36,0,0,0,97.38,227.84Z"/><path d="M57.44,249.63A10.41,10.41,0,0,0,47.05,260v33.25a10.4,10.4,0,0,0,20.79,0V260A10.42,10.42,0,0,0,57.44,249.63Z"/><path d="M153.67,303.67a10.4,10.4,0,0,0,10.4-10.39V260a10.4,10.4,0,0,0-20.8,0v33.25A10.4,10.4,0,0,0,153.67,303.67Z"/></g></g></svg>