<svg xmlns="http://www.w3.org/2000/svg" viewBox="0 0 12.94 13.01"><defs><style>.cls-1{fill:#fff;}</style></defs><title>Recurso 1</title><g id="Capa_2" data-name="Capa 2"><g id="Capa_5" data-name="Capa 5"><path class="cls-1" d="M12.92,8.1v3.5A1.41,1.41,0,0,1,11.51,13H1.41A1.41,1.41,0,0,1,0,11.6V1.51A1.41,1.41,0,0,1,1.41.1H4.92A1.48,1.48,0,0,0,4.48,1H1.41a.47.47,0,0,0-.47.47V11.6a.46.46,0,0,0,.47.46h10.1A.46.46,0,0,0,12,11.6V8.54a1.6,1.6,0,0,0,.94-.47ZM7.45,1.41h3.08l-5,5a.71.71,0,0,0,1,1l5-5V5.49a.7.7,0,0,0,.7.71.69.69,0,0,0,.5-.21.68.68,0,0,0,.21-.5V.71A.71.71,0,0,0,12.23,0H7.45a.71.71,0,0,0-.71.71.7.7,0,0,0,.71.7Z"/></g></g></svg>