<svg xmlns="http://www.w3.org/2000/svg" viewBox="0 0 330.84 330.84"><title>Recurso 7</title><g id="Capa_2" data-name="Capa 2"><g id="Capa_1-2" data-name="Capa 1"><path d="M269.59,2.6a9.71,9.71,0,0,0-13.2,0c-2.5,2.32-61.25,57.51-61.25,104,0,40.55,43.45,73,58.16,82.84v33.47a88.21,88.21,0,0,1-21.92,57.77,67.53,67.53,0,0,0,2.53-18.36c0-37.45-30.92-68.49-68.49-68.49s-68.5,30.92-68.5,68.49a67.92,67.92,0,0,0,2.53,18.36,88.26,88.26,0,0,1-21.91-57.77V173.77a67.94,67.94,0,0,0,58.15-67.15V48.46A9.69,9.69,0,0,0,126,38.77H106.62V9.69a9.7,9.7,0,0,0-19.39,0V38.77H48.46V9.69a9.69,9.69,0,1,0-19.38,0V38.77H9.69A9.69,9.69,0,0,0,0,48.46v58.16a68,68,0,0,0,58.15,67.15v49.16a107.46,107.46,0,0,0,31.52,76,105.85,105.85,0,0,0,151.49,0,107.41,107.41,0,0,0,31.52-76V189.46c14.71-9.83,58.16-42.29,58.16-82.84C330.84,60.11,272.09,4.92,269.59,2.6ZM19.38,58.15h96.93V77.54H19.38Zm0,48.47v-9.7h96.93v9.7a48.47,48.47,0,0,1-96.93,0Zm146,204.83c-26.62,0-49.11-22.49-49.11-49.11s22.49-49.11,49.11-49.11,49.11,22.49,49.11,49.11S192,311.45,165.42,311.45Zm87.88-146c-17.87-14.07-38.77-36.1-38.77-58.86a49.91,49.91,0,0,1,2-13.36L253.3,130Zm0-62.88L224.61,73.92C232.4,59.37,243.47,45,253.3,33.8Zm19.38-68.82c9.84,11.2,20.91,25.57,28.7,40.12l-28.7,28.7Zm0,131.69V130l36.76-36.76a49.79,49.79,0,0,1,2,13.36C311.45,130.83,288.5,153,272.68,165.47Z"/></g></g></svg>