<svg xmlns="http://www.w3.org/2000/svg" viewBox="0 0 374.34 339.29"><g id="house" class="icon icon-page house" data-name="house"><g id="house_1-2" data-name="house"><path d="M334.73,169A11.77,11.77,0,0,0,323,180.79V314.12H235.61V241.81A11.78,11.78,0,0,0,223.85,230H151.73A11.77,11.77,0,0,0,140,241.81v74H51.34V170.87a11.74,11.74,0,1,0-23.48,0V327.53a11.77,11.77,0,0,0,11.76,11.76H151.73a11.78,11.78,0,0,0,11.76-11.76v-74h48.64v72.35a11.75,11.75,0,0,0,11.72,11.76H334.73a11.77,11.77,0,0,0,11.76-11.76V180.79A11.77,11.77,0,0,0,334.73,169Z"/><path d="M370,145.26h0l-176-142.6a11.64,11.64,0,0,0-14.67-.13L4.49,140.24a11.74,11.74,0,0,0,5.9,20.88A11.6,11.6,0,0,0,19,158.67L186.43,26.81,355.18,163.52a11.76,11.76,0,0,0,7.42,2.63,11.64,11.64,0,0,0,9.13-4.36A11.78,11.78,0,0,0,370,145.26Z"/></g></g></svg>
