<svg xmlns="http://www.w3.org/2000/svg" viewBox="0 0 25.65 25.65"><defs><style>.cls-1,.cls-2{fill:#004294;}.cls-2{fill-rule:evenodd;}</style></defs><title>Recurso 2</title><g id="Capa_2" data-name="Capa 2"><g id="Capa_5" data-name="Capa 5"><path class="cls-1" d="M12.83,25.65A12.83,12.83,0,1,1,25.65,12.83,12.84,12.84,0,0,1,12.83,25.65Zm0-24.43a11.61,11.61,0,1,0,11.6,11.61A11.63,11.63,0,0,0,12.83,1.22Z"/><path class="cls-1" d="M12.58,12.93l0-.17a2.39,2.39,0,0,1,.16-1.06l.17.15c.38.31.06.73.15,1.08h-.45Z"/><path class="cls-1" d="M13.1,12.54l-.24.6c-.11-.21-.69-.42,0-.63Z"/><path class="cls-2" d="M10.8,12.89v7.48a.19.19,0,0,0,.2.19h2.77a.19.19,0,0,0,.2-.19V12.76h2a.19.19,0,0,0,.2-.17l.19-2.29a.2.2,0,0,0-.19-.22H14V8.46a.69.69,0,0,1,.69-.69h1.55a.2.2,0,0,0,.2-.2V5.28a.19.19,0,0,0-.2-.19H13.59A2.79,2.79,0,0,0,10.8,7.88v2.2H9.41a.19.19,0,0,0-.19.2v2.29a.18.18,0,0,0,.19.19H10.8Z"/></g></g></svg>