<svg xmlns="http://www.w3.org/2000/svg" viewBox="0 0 13.65 13.65"><defs><style>.cls-1{fill:#fff;fill-rule:evenodd;}</style></defs><title>Recurso 12</title><g id="Capa_2" data-name="Capa 2"><g id="Capa_5" data-name="Capa 5"><path class="cls-1" d="M6.83,0A6.82,6.82,0,0,0,1.09,10.52l-1,2.29a.6.6,0,0,0,.09.63.59.59,0,0,0,.46.21l.15,0,2.86-.78a6.92,6.92,0,0,0,3.22.8A6.83,6.83,0,0,0,6.83,0Zm0,12.46A5.66,5.66,0,0,1,4,11.69a.64.64,0,0,0-.3-.08l-.16,0-1.87.51.65-1.43a.57.57,0,0,0-.06-.59,5.64,5.64,0,1,1,4.58,2.34Z"/><path class="cls-1" d="M9.45,7.85a1.21,1.21,0,0,0-1-.23c-.25.11-.42.51-.59.72s-.18.12-.32.07A4.45,4.45,0,0,1,5.3,6.48a.27.27,0,0,1,0-.37,1.51,1.51,0,0,0,.41-.67,1.54,1.54,0,0,0-.18-.78C5.42,4.37,5.27,4,5,3.79a.78.78,0,0,0-.86.12A1.74,1.74,0,0,0,3.51,5.3a2.12,2.12,0,0,0,.05.44,3.68,3.68,0,0,0,.43,1,6,6,0,0,0,.44.67A6.62,6.62,0,0,0,6.34,9.16a5.67,5.67,0,0,0,1.19.57,2.65,2.65,0,0,0,1.39.21A1.67,1.67,0,0,0,10.17,9a.73.73,0,0,0,.06-.48C10.16,8.2,9.72,8,9.45,7.85Z"/></g></g></svg>