<svg xmlns="http://www.w3.org/2000/svg" viewBox="0 0 25.65 25.65"><defs><style>.cls-1{fill:#fff;}</style></defs><title>Recurso 15</title><g id="Capa_2" data-name="Capa 2"><g id="Capa_5" data-name="Capa 5"><path class="cls-1" d="M12.83,25.65A12.83,12.83,0,1,1,25.65,12.83,12.84,12.84,0,0,1,12.83,25.65Zm0-24.43a11.61,11.61,0,1,0,11.6,11.61A11.63,11.63,0,0,0,12.83,1.22Zm4.32,6.4a1,1,0,1,0,1,1A1,1,0,0,0,17.15,7.62ZM12.93,8.84a4,4,0,1,0,4,4A4,4,0,0,0,12.93,8.84Zm0,6.54a2.56,2.56,0,1,1,2.55-2.55A2.55,2.55,0,0,1,12.93,15.38ZM21,9.51a4.87,4.87,0,0,0-4.87-4.86H9.69A4.87,4.87,0,0,0,4.83,9.51v6.42a4.86,4.86,0,0,0,4.86,4.86h6.42A4.86,4.86,0,0,0,21,15.93Zm-1.53,6.42a3.33,3.33,0,0,1-3.34,3.34H9.69a3.34,3.34,0,0,1-3.34-3.34V9.51A3.35,3.35,0,0,1,9.69,6.17h6.42a3.34,3.34,0,0,1,3.34,3.34Z"/></g></g></svg>