<svg xmlns="http://www.w3.org/2000/svg" viewBox="0 0 25.65 25.65"><defs><style>.cls-1,.cls-2{fill:#00428f;}.cls-2{fill-rule:evenodd;}</style></defs><title>Recurso 1</title><g id="Capa_2" data-name="Capa 2"><g id="Capa_5" data-name="Capa 5"><path class="cls-1" d="M12.83,25.65A12.83,12.83,0,1,1,25.65,12.83,12.84,12.84,0,0,1,12.83,25.65Zm0-24.43a11.61,11.61,0,1,0,11.6,11.61A11.63,11.63,0,0,0,12.83,1.22Z"/><path class="cls-2" d="M13.44,4.42a7.81,7.81,0,0,0-7.8,7.8,7.69,7.69,0,0,0,1.25,4.22L5.7,19.05a.68.68,0,0,0,.1.72.66.66,0,0,0,.52.24l.18,0,3.26-.9A7.8,7.8,0,1,0,13.44,4.42Zm0,14.23a6.36,6.36,0,0,1-3.24-.88.73.73,0,0,0-.35-.09.57.57,0,0,0-.18,0l-2.13.58.74-1.64A.67.67,0,0,0,8.22,16a6.43,6.43,0,1,1,5.22,2.67Z"/><path class="cls-2" d="M16.43,13.38a1.33,1.33,0,0,0-1.13-.25c-.3.12-.49.58-.68.82a.28.28,0,0,1-.36.08,5.17,5.17,0,0,1-2.57-2.2.3.3,0,0,1,0-.43,1.81,1.81,0,0,0,.46-.76,1.68,1.68,0,0,0-.2-.9c-.16-.33-.33-.81-.67-1a.89.89,0,0,0-1,.14,2,2,0,0,0-.69,1.59,2.14,2.14,0,0,0,.06.5,4.19,4.19,0,0,0,.48,1.11c.16.26.32.52.5.76a7.71,7.71,0,0,0,2.19,2,6.55,6.55,0,0,0,1.36.65,3.07,3.07,0,0,0,1.58.25,1.93,1.93,0,0,0,1.44-1.07.94.94,0,0,0,.07-.55C17.24,13.79,16.74,13.57,16.43,13.38Z"/></g></g></svg>