<svg xmlns="http://www.w3.org/2000/svg" viewBox="0 0 383.8 395.97"><title>Recurso 5</title><g id="Capa_2" data-name="Capa 2"><g id="Capa_1-2" data-name="Capa 1"><path d="M191.91,89.46A102.55,102.55,0,0,0,89.47,191.9a101.13,101.13,0,0,0,21.91,63.16c2.83,3.59,5.8,7.05,9,10.69l.17.2c9.62,11.17,19.57,22.72,23.3,36.33.83,3.12.95,9.1.91,13.7v7.82a13,13,0,0,0,13,13h67.9a13,13,0,0,0,13-13v-7.92c0-6,.27-10.4.9-12.67,3.74-13.51,14.76-26.49,24.58-38l.43-.5c2.83-3.33,5.51-6.47,7.95-9.57a101.17,101.17,0,0,0,21.94-63.2A102.55,102.55,0,0,0,191.91,89.46ZM252,239.05c-2.14,2.72-4.65,5.68-7.32,8.81l-.53.61c-11.46,13.49-24.46,28.79-29.74,47.83-.74,2.72-1.57,6.76-1.78,14.53h-42c-.18-8.25-1-12.49-1.79-15.34-5.28-19.3-18.25-34.36-28.69-46.47l-.18-.2c-2.94-3.42-5.73-6.66-8.2-9.8A75.48,75.48,0,0,1,115.4,191.9a76.5,76.5,0,1,1,153,0A75.42,75.42,0,0,1,252,239.05Z"/><path d="M225.57,340.45H157.68a13,13,0,1,0,0,25.93h67.9a13,13,0,0,0,0-25.93Z"/><path d="M208.6,370H174.65a13,13,0,1,0,0,25.94H208.6a13,13,0,0,0,0-25.94Z"/><path d="M370.83,178.93H326.1a13,13,0,0,0,0,25.94h44.73a13,13,0,1,0,0-25.94Z"/><path d="M70.67,191.9a13,13,0,0,0-13-13H13a13,13,0,0,0,0,25.94H57.7a13,13,0,0,0,13-13Z"/><path d="M191.9,70.68a13,13,0,0,0,13-13V13a13,13,0,0,0-25.94,0V57.71a13,13,0,0,0,13,13Z"/><path d="M296,277.62A13,13,0,1,0,277.61,296l31.64,31.64a13,13,0,0,0,18.34-18.34Z"/><path d="M87.83,106.17a13,13,0,1,0,18.34-18.33L74.55,56.21A13,13,0,1,0,56.21,74.54Z"/><path d="M87.84,277.62,56.21,309.26a13,13,0,1,0,18.34,18.33L106.19,296a13,13,0,1,0-18.35-18.33Z"/><path d="M286.79,110a12.93,12.93,0,0,0,9.17-3.8l31.63-31.63a13,13,0,1,0-18.34-18.33L277.62,87.83A13,13,0,0,0,286.79,110Z"/></g></g></svg>