<svg xmlns="http://www.w3.org/2000/svg" viewBox="0 0 118.27 114.59"><defs><style>.cls-1{fill:#004294;}.cls-2{fill:#bebb9f;}.cls-2,.cls-8{fill-rule:evenodd;}.cls-3{fill:#efb019;}.cls-4{fill:#efbf8a;}.cls-5{fill:#ffcf9e;}.cls-6{fill:#c38c14;}.cls-7{fill:#634e42;}.cls-8{fill:#dddab9;}.cls-9{fill:#c3c3c3;}.cls-10{fill:#d7d7d7;}.cls-11{fill:#b3312f;}.cls-12{fill:#cc4941;}.cls-13{fill:#dc4937;}</style></defs><title>Recurso 8</title><g id="Capa_2" data-name="Capa 2"><g id="Capa_5" data-name="Capa 5"><path class="cls-1" d="M20.06,95.49l19-31.33a8.4,8.4,0,0,1,11.52-2.9l.15.09a8.39,8.39,0,0,1,2.9,11.51l-20.88,34.3Z"/><path class="cls-2" d="M21,64A15.36,15.36,0,0,0,19.73,60l-1.07-2a9.76,9.76,0,0,1-.4-1l0,0L18,56.12c-.05-.19-.1-.37-.15-.57l-1-3.82-4.49-2L6.36,47l-2,2-.17,1.56h0l0,0h0l0,0L3.69,55v.11l-.26,2.29.79.1L3,59.42v0l-.8,1.77.31,2.28c.08.13,2.23,10.65,7.2,10.89.06.27,1.45,3.6,1.45,3.6l6,2.07.21,0,.91-1.76,2.6-5-.37-3.13Z"/><path class="cls-1" d="M114.86,92.46,101.78,71.07,100,68.16a14.28,14.28,0,0,0-6.87-5.81l-15.26-6.1c0,2.81-4,4.21-8,4.19s-8-1.38-8-4.19l-16,6.4v51.94H94.46L95.77,93l4.26,7a11.34,11.34,0,0,1,1.66,6l0,8.65,16.58,0v-3.24l0-6.73A23.19,23.19,0,0,0,114.86,92.46Z"/><polygon class="cls-3" points="96.03 114.59 77.87 114.59 77.87 56.25 97.53 64.11 96.03 114.59"/><polygon class="cls-3" points="43.63 114.59 61.78 114.59 61.78 56.25 42.12 58.85 43.63 114.59"/><path class="cls-4" d="M77.73,56.25h0V51.78a7.42,7.42,0,0,1-5.27,2.92,20.85,20.85,0,0,1-2.66.14h-.09a20.79,20.79,0,0,1-2.65-.14,7.44,7.44,0,0,1-5.28-2.92v4.47C61.78,61.84,77.73,61.84,77.73,56.25Z"/><path class="cls-5" d="M69.76,54.83h0Z"/><path class="cls-5" d="M67.41,10.48A13.72,13.72,0,0,0,53.69,24.2v5.37a2.3,2.3,0,0,0-.49-.2l-.08,0a2.09,2.09,0,0,0-.61,0,2.58,2.58,0,0,0-1.83,1.92,8,8,0,0,0-.24,3.82c.38,2.36,1.56,4.21,2.84,4.7a1.76,1.76,0,0,0,.93.11l.27-.08a22.53,22.53,0,0,0,2.85,7.77,58,58,0,0,0,3.56,4.87,9.35,9.35,0,0,0,2.59,2.24,8.5,8.5,0,0,0,3.17,1,22.4,22.4,0,0,0,2.88.15h.3a22.5,22.5,0,0,0,2.88-.15,8.49,8.49,0,0,0,3.17-1,9.7,9.7,0,0,0,2.59-2.24A59.15,59.15,0,0,0,82,47.58a22.31,22.31,0,0,0,2.86-7.77l.27.08a1.76,1.76,0,0,0,.93-.11c1.28-.49,2.46-2.33,2.85-4.69a7.89,7.89,0,0,0-.25-3.82,2.59,2.59,0,0,0-1.82-1.93,2.09,2.09,0,0,0-.61,0l-.08,0a2.33,2.33,0,0,0-.49.21V24.22A13.74,13.74,0,0,0,72,10.48Z"/><path class="cls-3" d="M51.54,24.63V19.15a2.26,2.26,0,0,1,0-.26A18.29,18.29,0,0,1,64.06,1.78a15.27,15.27,0,0,1,1.67-.48,18.46,18.46,0,0,1,4-.47,17.85,17.85,0,0,1,4,.48,16.07,16.07,0,0,1,1.68.47A18.34,18.34,0,0,1,88,18.9a2.26,2.26,0,0,1,0,.26v5.48Z"/><path class="cls-6" d="M49.76,23.54v1.72h3.66a3.26,3.26,0,0,1,1.61.43l3,1.7a9.88,9.88,0,0,0,4.89,1.3H76.6a9.87,9.87,0,0,0,4.89-1.29l3-1.7a3.21,3.21,0,0,1,1.6-.42h3.66V23.56Z"/><path class="cls-6" d="M62.52,18.89H59a.92.92,0,0,0-.92.92v3.73h5.4V19.81A.92.92,0,0,0,62.52,18.89Z"/><path class="cls-6" d="M77,18.9h3.56a.92.92,0,0,1,.92.92v3.73h-5.4V19.82A.92.92,0,0,1,77,18.9Z"/><path class="cls-6" d="M51.55,18.89a2.26,2.26,0,0,0,0,.26v4.4H50.31V19.81a.92.92,0,0,1,.92-.92Z"/><path class="cls-6" d="M88,18.9a2.26,2.26,0,0,1,0,.26v4.4H89.2V19.82a.93.93,0,0,0-.93-.92Z"/><path class="cls-3" d="M65.72,12.22V1.14A1.14,1.14,0,0,1,66.87,0h5.8A1.14,1.14,0,0,1,73.8,1.14V12.23Z"/><path class="cls-3" d="M63.16,1a.66.66,0,0,1,.61.07.68.68,0,0,1,.29.55V12.22h-6V4.67a1.54,1.54,0,0,1,.63-1.24A18.72,18.72,0,0,1,63.16,1Z"/><path class="cls-3" d="M76.38,1a.67.67,0,0,0-.9.63V12.23h6V4.68a1.51,1.51,0,0,0-.63-1.24A19.05,19.05,0,0,0,76.38,1Z"/><path class="cls-6" d="M65.73,1.3V11.4a.82.82,0,0,1-.82.82h0a.83.83,0,0,1-.83-.82V1.78A15.27,15.27,0,0,1,65.73,1.3Z"/><path class="cls-6" d="M73.8,1.31V11.4a.83.83,0,0,0,.83.83h0a.83.83,0,0,0,.83-.83V1.78A16.07,16.07,0,0,0,73.8,1.31Z"/><path class="cls-6" d="M58.05,5.15v6.24a.83.83,0,0,1-.83.83h0a.83.83,0,0,1-.83-.83V6.76A18.19,18.19,0,0,1,58.05,5.15Z"/><path class="cls-6" d="M81.48,5.16V11.4a.83.83,0,0,0,.83.83h0a.83.83,0,0,0,.83-.83V6.77A18.19,18.19,0,0,0,81.48,5.16Z"/><path class="cls-7" d="M63.33,45.22a14.52,14.52,0,0,1,3.15-1.68c2-.63,2.85-.38,3.19.27.35-.65,1.2-.9,3.2-.26A15.1,15.1,0,0,1,76,45.22c.41.29,1.84,1.39,2,1.51-5.11-.46-7.6.51-8.32-.54-.71,1.05-3.2.08-8.32.53C61.48,46.6,62.91,45.51,63.33,45.22Z"/><path class="cls-7" d="M68.26,48.91a3.11,3.11,0,0,1-4.11,2.48c-2.63-.85-5.58-4-7.29-9.74-.53-1.77-3-11.54-3.16-11.69,0,.69.44,11.24.47,11.67A19.67,19.67,0,0,0,57,48.81a53.2,53.2,0,0,0,3.57,4.49h0a8.3,8.3,0,0,0,5.78,3,24.61,24.61,0,0,0,2.89.14h.81A27.36,27.36,0,0,0,73,56.26a8.38,8.38,0,0,0,5.78-2.95h0a53.2,53.2,0,0,0,3.57-4.49,19.69,19.69,0,0,0,2.87-7.17c0-.43.46-11,.49-11.68-.21.15-2.64,9.93-3.17,11.69-1.72,5.71-4.67,8.89-7.3,9.73a3.1,3.1,0,0,1-4.1-2.48Z"/><path class="cls-8" d="M2.85,54.56c.41.28,1.74,1,1.74,1a2.53,2.53,0,0,0,3.48-.76l0,0a2.52,2.52,0,0,0-1.15-3.37l-1.74-1C1.59,48.61-.46,52.84,2.85,54.56Z"/><path class="cls-8" d="M1.48,59.21l3,1.67a2.53,2.53,0,0,0,3.49-.77l0,0a2.55,2.55,0,0,0-1.14-3.39L3.86,55A2.42,2.42,0,0,0,1.48,59.21Z"/><path class="cls-8" d="M1.06,63.89l2.38,1.34a2.13,2.13,0,0,0,2.91-.81l0,0a2.14,2.14,0,0,0-.81-2.91L3.17,60.14C.84,58.76-1.38,62.21,1.06,63.89Z"/><path class="cls-8" d="M3.27,50.21c.49.09,2,.2,2,.2a2.51,2.51,0,0,0,2.87-2.09v0a2.53,2.53,0,0,0-2.41-2.62l-2-.2C-.28,45.27-.45,50,3.27,50.21Z"/><path class="cls-8" d="M24.41,77.3l-5.79,3.32s-.2-1.1-.39-2.29c-.21-1.43-.45-3-.47-3a7.24,7.24,0,0,1-.83-.24A8.39,8.39,0,0,1,14.83,74a9.79,9.79,0,0,1-3.89-6.74c0-.21,0-.41-.06-.61a9.63,9.63,0,0,1,2.65-7.5A1.31,1.31,0,0,0,13.9,58s0,0,0-.07a2.61,2.61,0,0,0-.06-.27c-.13-.53-.25-1.06-.36-1.6-.3-1.4-.57-2.81-.78-4.22-.11-.72-.21-1.42-.3-2.13h0a2.32,2.32,0,0,1,.29-1.44,2.14,2.14,0,0,1,1.65-1.09h0a2.27,2.27,0,0,1,2.42,2c.24,1.94.63,3.84.95,5.76,0,.22.08.42.13.62s.1.38.15.57.17.59.25.84a9.76,9.76,0,0,0,.4,1l1.07,2A15.36,15.36,0,0,1,21,64a10.93,10.93,0,0,1-.36,6.18s.6,1.31,1.09,2.24C22.5,73.89,23.6,76,24.41,77.3Z"/><path class="cls-1" d="M23.83,71.94l10,27.63a8.39,8.39,0,0,1-5.06,10.74l-.16.06a8.4,8.4,0,0,1-10.74-5.06L8.19,77.87Z"/><rect class="cls-9" x="8.7" y="13.93" width="1.55" height="26.75"/><polygon class="cls-10" points="8.7 11.27 8.08 13.59 8.7 15.8 10.25 15.8 10.88 13.59 10.25 11.27 8.7 11.27"/><path class="cls-9" d="M10.88,13.59a2.07,2.07,0,0,1-2.8,0L8.7,15.8a1.08,1.08,0,0,0,1.55,0Z"/><path class="cls-11" d="M13.5,69.48h-8v1.31c0,2.11,8,2.11,8,0Z"/><polygon class="cls-11" points="12.77 41.02 6.18 41.02 5.46 43.57 13.5 43.57 12.77 41.02"/><rect class="cls-12" x="4.91" y="39.92" width="9.13" height="1.5" rx="0.74"/><ellipse class="cls-13" cx="9.48" cy="56.52" rx="6.04" ry="17.36"/><path class="cls-11" d="M10.28,67.52a.8.8,0,0,1-.8.77h0a.79.79,0,0,1-.8-.77c-.1-7.25-.1-14.52,0-21.77A.8.8,0,0,1,9.48,45h0a.8.8,0,0,1,.8.77C10.37,53,10.37,60.27,10.28,67.52Z"/><path class="cls-11" d="M13.26,67.52c0,.42-.3.77-.61.77h0c-.31,0-.54-.35-.53-.77.31-7.25.31-14.52,0-21.77,0-.43.22-.77.53-.77h0c.31,0,.59.34.61.77A181.75,181.75,0,0,1,13.26,67.52Z"/><path class="cls-11" d="M7,67.52c0,.42-.22.77-.53.77h0c-.31,0-.58-.35-.61-.77a188.23,188.23,0,0,1,0-21.77c0-.43.3-.77.61-.77h0c.31,0,.55.34.53.77C6.65,53,6.65,60.27,7,67.52Z"/></g></g></svg>