<svg xmlns="http://www.w3.org/2000/svg" viewBox="0 0 89.16 78.97"><defs><style>.cls-1{fill:#fff;}</style></defs><title>Recurso 21</title><g id="Capa_2" data-name="Capa 2"><g id="Capa_5" data-name="Capa 5"><path class="cls-1" d="M89.14,58.78A15.69,15.69,0,0,0,76.78,45a.43.43,0,0,1,0-.07,3,3,0,0,0-.38-2.85c.07-.89.11-1.76.11-2.61s0-1.67-.1-2.52l5.49-5a3,3,0,0,0,.87-3c-.33-1.2-.69-2.29-1.09-3.34a3,3,0,0,0-2.47-1.91l-7.41-.83a31.93,31.93,0,0,0-3-4.06l1.5-7.3a3,3,0,0,0-1.07-3c-.9-.72-1.86-1.42-2.83-2.07a3,3,0,0,0-3.14-.11L56.86,10a32.28,32.28,0,0,0-4.79-1.56L49,1.76A3,3,0,0,0,46.3,0H43a3,3,0,0,0-2.73,1.76l-3,6.71a32.58,32.58,0,0,0-4.84,1.58,3,3,0,0,0-1-.18,3,3,0,0,0-1.93.7,15.74,15.74,0,0,0-19.25-7,3,3,0,0,0-.72,5.23l6.67,4.88-5.67,7.74-5.7-4.17A2.94,2.94,0,0,0,3,16.62a3.05,3.05,0,0,0-1.49.4A3,3,0,0,0,0,19.94,15.72,15.72,0,0,0,8.29,32.21a15.42,15.42,0,0,0,4,1.46.54.54,0,0,0,0,.11,3,3,0,0,0,.64,3.16c-.07.86-.1,1.71-.1,2.54s0,1.68.09,2.52l-5.5,5a3,3,0,0,0-.87,3c.35,1.23.7,2.32,1.09,3.34a3,3,0,0,0,2.47,1.91l7.41.83a31.93,31.93,0,0,0,3,4.06l-1.5,7.3a3,3,0,0,0,1.07,3c.91.72,1.87,1.42,2.83,2.06a3,3,0,0,0,1.66.5A3,3,0,0,0,26,72.61l6.48-3.67a31.51,31.51,0,0,0,4.79,1.56l3.05,6.71A3,3,0,0,0,43,79H46.3A3,3,0,0,0,49,77.21l3-6.71A31.06,31.06,0,0,0,57,68.9a2.8,2.8,0,0,0,.86.13,3,3,0,0,0,2-.72l0,0v0c.16.3.32.57.49.83l.35.49.07.09.07.1c.15.2.29.39.45.58a12.86,12.86,0,0,0,.87,1c.15.16.32.31.48.47l0,0c.3.28.59.55.93.82A15.76,15.76,0,0,0,79,75.21,3,3,0,0,0,79.68,70L73,65.1l5.68-7.75,5.7,4.16a3,3,0,0,0,4.75-2.73ZM58.89,41,38.25,26.73A14.23,14.23,0,0,1,58.89,41ZM32.26,13.38l.89-.39a28.5,28.5,0,0,1,5.25-1.71l.94-.21L43,3h3.3L50,11.07l.94.21A28.5,28.5,0,0,1,56.15,13l.89.39L64.82,9c.9.6,1.78,1.24,2.62,1.91l-1.8,8.77.64.72a27.88,27.88,0,0,1,3.25,4.47l.49.82,8.9,1c.38,1,.71,2,1,3.07l-6.6,6,.1,1c.08.94.13,1.88.13,2.77s0,1.83-.13,2.77l-.1,1,.7.63-.55,0a16.57,16.57,0,0,0-6.86,1.48L61.8,42A17.25,17.25,0,0,0,36.31,24.35l-4.31-3a16.32,16.32,0,0,0-.63-8.51ZM30.43,38,51.06,52.25A14.25,14.25,0,0,1,30.34,39.48C30.34,39,30.38,38.49,30.43,38ZM57.05,65.6l-.88.38a28.85,28.85,0,0,1-5.26,1.71L50,67.9,46.3,76H43L39.35,67.9l-1-.21A28.5,28.5,0,0,1,33.15,66l-.88-.38L24.48,70c-.89-.59-1.77-1.23-2.62-1.91l1.8-8.76L23,58.61a29,29,0,0,1-3.25-4.47l-.49-.83-8.9-1c-.38-1-.71-2-1-3.07l6.6-6-.09-1c-.09-.93-.13-1.86-.13-2.77s0-1.84.13-2.77l.09-1-1-.89c.22,0,.43,0,.66,0a16.65,16.65,0,0,0,6.74-1.43L27.53,37A17.25,17.25,0,0,0,53,54.61l4.13,2.85a16.26,16.26,0,0,0-.24,2.2,6.85,6.85,0,0,0,0,.77c0,.53,0,1.06.08,1.58,0,.16,0,.31.06.46,0,.38.1.75.17,1.12,0,.16.07.31.1.46.08.38.18.75.29,1.11,0,.13.07.25.11.37l.15.5ZM78,53.16,68.82,65.74l9.09,6.66a12.79,12.79,0,0,1-12.45-2c-.25-.21-.49-.43-.73-.65s-.3-.28-.44-.43-.47-.51-.69-.77-.3-.39-.44-.58l-.34-.47c-.14-.21-.26-.43-.38-.65a4.91,4.91,0,0,1-.28-.5c-.11-.22-.22-.44-.32-.66l-.24-.57-.24-.65c-.07-.23-.13-.45-.19-.67s-.11-.4-.16-.61-.1-.56-.14-.84-.06-.32-.08-.49a12.75,12.75,0,0,1-.07-1.38c0-.28,0-.56.06-.84.06-.61.17-1.32.28-1.92,0-.18.06-.36.11-.55l.35-1.31L22.72,29l-1,.55A12.76,12.76,0,0,1,3,19.62l8.11,5.95L20.33,13,11.25,6.34a12.55,12.55,0,0,1,4.46-.81A12.72,12.72,0,0,1,28,21.7L27.61,23,66.33,49.78l1-.58a12.76,12.76,0,0,1,18.79,9.89Z"/></g></g></svg>