<svg xmlns="http://www.w3.org/2000/svg" xmlns:xlink="http://www.w3.org/1999/xlink" viewBox="0 0 115 115"><path fill="#fff" d="M4 1.6l-1.7.8-.9 2 .1 106.1.5 1.5 1.4 1.2 2.2.3 104.2.1 1.4-.5 1.7-1 .7-1.8V4.5l-1.1-2.1-2-.8z"/><defs><path id="a" d="M1 5c0-2.2 1.8-4 4-4h105c2.2 0 4 1.8 4 4v105c0 2.2-1.8 4-4 4H5c-2.2 0-4-1.8-4-4V5z"/></defs><clipPath id="b"><use xlink:href="#a" overflow="visible"/></clipPath><path d="M1 5c0-2.2 1.8-4 4-4h105c2.2 0 4 1.8 4 4v105c0 2.2-1.8 4-4 4H5c-2.2 0-4-1.8-4-4V5h0z" clip-path="url(#b)" fill="none" stroke="#000" stroke-width="2" stroke-miterlimit="10"/><defs><path id="c" d="M-3-1h121v121H-3z"/></defs><defs><path id="e" d="M77.9 32.2H67c-.2 0-.9.2-.9 1v47.5c0 .4.3.8.8.8h5c.4 0 .8-.4.8-.8V63H78c2.8 0 5-2.4 5-5.3V37.5c-.1-2.9-2.4-5.3-5.1-5.3zm-1.1 23.7c0 .8-.7 1.5-1.5 1.5H73v-20h2.3c.8 0 1.4.7 1.4 1.5l.1 17z"/></defs><clipPath id="d"><use xlink:href="#c" overflow="visible"/></clipPath><clipPath id="f" clip-path="url(#d)"><use xlink:href="#e" overflow="visible"/></clipPath><path clip-path="url(#f)" fill="#303030" d="M61.1 27.2h26.8v59.3H61.1z"/><defs><path id="g" d="M-3-1h121v121H-3z"/></defs><defs><path id="i" d="M38.3 47.2v-6.8c0-1.2.9-2.1 2-2.1s2 1 2 2.2V48c0 .4.3.7.8.7h5.1c.4 0 .7-.3.8-.7v-8.8c0-3.9-3-7-6.7-7h-3.6c-3.7 0-6.7 3.1-6.7 7v10.6c0 3.4 1.3 4.1 4.1 7l2.3 2.4c2.8 3 4 4.1 4 7.4v6.8c0 1.2-.8 2.3-1.9 2.3-1.1 0-2.1-1-2.1-2.2v-7.4s-.1-.6-.7-.6h-5c-.4 0-.7.3-.7.6v8.7c0 3.9 3 7 6.7 7h3.6c3.7 0 6.7-3.1 6.7-7V64.2c0-3.4-1.4-4.8-4.3-7.7l-2.3-2.4c-3.3-3.3-4.1-3.7-4.1-6.9"/></defs><clipPath id="h"><use xlink:href="#g" overflow="visible"/></clipPath><clipPath id="j" clip-path="url(#h)"><use xlink:href="#i" overflow="visible"/></clipPath><path clip-path="url(#j)" fill="#303030" d="M26.8 27.2h27v59.7h-27z"/><defs><path id="k" d="M-3-1h121v121H-3z"/></defs><defs><path id="m" d="M61.8 77.4c1.3-2 1.7-4.3 1.8-7 0-.2-.2-.4-.3-.4h-2.4c-.2 0-.3.2-.3.4-.1 1.1-.2 2.1-.6 3.1l-2-4.1c1.4-1.7 2.7-3.2 2.7-6.1 0-3.5-1.9-5.3-4.1-5.3-2.3 0-4.2 1.8-4.2 5.5 0 1.8.9 3.9 1.5 5.2-1.8 2-3 3.5-3 7 0 3 1.2 6.5 4.7 6.5 1.6 0 2.7-.7 3.8-1.9l.7 1.5c.1.2.2.3.4.3h2.8c.2 0 .5 0 .6-.3l-2.1-4.4zm-5.4-16.3c.7 0 1.3.7 1.3 1.8 0 1.4-.6 2.3-1.3 3.2-.5-1-1.1-2.1-1.1-3.2-.1-1.2.6-1.8 1.1-1.8zm-.2 17c-1.1 0-1.9-1.4-1.9-2.9 0-1.1.4-2.1 1.3-3.1l2.3 4.8c-.5.7-1.1 1.2-1.7 1.2z"/></defs><clipPath id="l"><use xlink:href="#k" overflow="visible"/></clipPath><clipPath id="n" clip-path="url(#l)"><use xlink:href="#m" overflow="visible"/></clipPath><path clip-path="url(#n)" fill="#303030" d="M45.9 53h23v34.2h-23z"/><defs><path id="o" d="M-3-1h121v121H-3z"/></defs><defs><path id="q" d="M95.3 55.3c0 1.8-.4 4.1-.7 5.8h3.8c.4-1.7.7-4.1.7-5.8C99 33 81.7 15 60.4 15v3.9c19.2 0 34.9 16.2 34.9 36.4z"/></defs><clipPath id="p"><use xlink:href="#o" overflow="visible"/></clipPath><clipPath id="r" clip-path="url(#p)"><use xlink:href="#q" overflow="visible"/></clipPath><path clip-path="url(#r)" fill="#e7290a" d="M55.4 10H104v56.1H55.4z"/><defs><path id="s" d="M-3-1h121v121H-3z"/></defs><defs><path id="u" d="M19.4 59.4c0-1.8.1-3.5.4-5.2H16c-.2 1.7-.3 3.4-.3 5.2 0 22.2 17.3 40.3 38.6 40.3v-3.9c-19.3 0-34.9-16.3-34.9-36.4z"/></defs><clipPath id="t"><use xlink:href="#s" overflow="visible"/></clipPath><clipPath id="v" clip-path="url(#t)"><use xlink:href="#u" overflow="visible"/></clipPath><path clip-path="url(#v)" fill="#e7290a" d="M10.7 49.2h48.6v55.5H10.7z"/></svg>