<svg id="Capa_1" data-name="Capa 1" xmlns="http://www.w3.org/2000/svg" viewBox="0 0 421 191"><defs><style>.cls-1{fill:#004297;}.cls-2{fill:#fff;}</style></defs><title>Mesa de trabajo 1</title><ellipse class="cls-1" cx="209.69" cy="94.32" rx="201.69" ry="86.05"/><path class="cls-2" d="M132.57,118.1l8.76-39.36,4.43-.11q2.2-.05,4.38-.17l2.25-.11q1.11-.06,2.25-.06a21.84,21.84,0,0,1,4.85.44,20.07,20.07,0,0,1,3.08.95,14.13,14.13,0,0,1,7.13,6.21,19.15,19.15,0,0,1,2.41,9.6,21.85,21.85,0,0,1-.49,4.73,31.94,31.94,0,0,1-1.17,4.06,28.24,28.24,0,0,1-1.35,3.15,18.32,18.32,0,0,1-1.14,2q-.42.61-1.43,1.84a18.81,18.81,0,0,1-2.57,2.51,17.12,17.12,0,0,1-2.77,1.95,21.2,21.2,0,0,1-3,1.34,16.74,16.74,0,0,1-2.88.67q-1.53.22-2.88.31t-2.33.08H132.57Zm11.51-2.89h3.42a6.37,6.37,0,0,0,1.11.05,9.49,9.49,0,0,0,1.79-.17,7,7,0,0,0,2.67-.89,8.32,8.32,0,0,0,1.84-1.45,7.9,7.9,0,0,0,1.17-1.59q.44-.81.7-1.36a32.86,32.86,0,0,0,1.68-4.43q.8-2.59,1.43-5.37t1-5.48a36.7,36.7,0,0,0,.36-4.82c0-.26,0-.51,0-.75s0-.49,0-.75,0-.46-.08-.95a10.55,10.55,0,0,0-1-3.37,4.57,4.57,0,0,0-1.27-1.59,5.33,5.33,0,0,0-1.53-.92,7.65,7.65,0,0,0-1.55-.42,9.44,9.44,0,0,0-1.32-.11H151.7Z"/><path class="cls-2" d="M196.33,77.62c.59,0,1.18,0,1.79.06a14.67,14.67,0,0,1,1.79.22l1.3.22a16.28,16.28,0,0,1,2.2.58,20.61,20.61,0,0,1,2.72,1.14A13.68,13.68,0,0,1,209,81.8a14.49,14.49,0,0,1,1.29,1.25l.72.81a5.72,5.72,0,0,1,.62.86,14.65,14.65,0,0,1,.78,1.48,20.4,20.4,0,0,1,1.29,3.42,19,19,0,0,1,.57,5.15,24.64,24.64,0,0,1-.68,6.29,33.6,33.6,0,0,1-1.35,4.12l-.62,1.45a14.07,14.07,0,0,1-.72,1.45c-.35.59-.71,1.17-1.09,1.73a18.08,18.08,0,0,1-1.3,1.67q-.36.45-1.09,1.28a15.09,15.09,0,0,1-1.82,1.73,15.78,15.78,0,0,1-3.91,2.56,21.89,21.89,0,0,1-3.73,1.31,18.44,18.44,0,0,1-3,.5c-.86.06-1.45.08-1.76.08l-1.19-.05q-.88-.06-2-.22a21.38,21.38,0,0,1-2.51-.53,15.54,15.54,0,0,1-2.64-1,11.5,11.5,0,0,1-1.14-.64q-.57-.36-1.09-.75a11.7,11.7,0,0,1-2.75-2.56,20.82,20.82,0,0,1-1.5-2.34,25.86,25.86,0,0,1-1.45-3.76,19.29,19.29,0,0,1-.73-5.71q0-.67.08-2.17a24.16,24.16,0,0,1,.49-3.54,28.85,28.85,0,0,1,1.3-4.37,23.31,23.31,0,0,1,2.44-4.67,12.94,12.94,0,0,1,.91-1.28c.33-.41.68-.81,1.06-1.22a15.78,15.78,0,0,1,1.68-1.75A18.21,18.21,0,0,1,186,80.85l.75-.5q.34-.22.75-.45l1.19-.58q.62-.3,1.19-.53a18,18,0,0,1,2.54-.72A20,20,0,0,1,196.33,77.62Zm1.3,2.23L197,80a3.78,3.78,0,0,0-.62.17,4.6,4.6,0,0,0-1.87,1.17,11.11,11.11,0,0,0-1.81,2.84l-.49,1.06c-.16.34-.3.69-.44,1.06s-.33.89-.47,1.33-.29.87-.47,1.28c-.17.59-.34,1.17-.49,1.73s-.32,1.13-.49,1.73q-.47,1.78-.86,3.51t-.8,3.45q-.47,2.28-.86,4.51t-.65,4.51a27.69,27.69,0,0,0-.15,3,5,5,0,0,0,1.55,4,5.75,5.75,0,0,0,3.89,1.34l.65,0a4,4,0,0,0,1-.19,4.35,4.35,0,0,0,1.66-.78,7.15,7.15,0,0,0,1.22-1.17,6.39,6.39,0,0,0,.78-1.2q.28-.58.39-.86a54.52,54.52,0,0,0,1.76-5.23q1-3.51,2-8l.62-3.34q.31-1.67.57-3.34.31-2.11.47-4.12.05-.67.1-1.36c0-.46.05-.92.05-1.36s0-1.06-.08-1.61a4.26,4.26,0,0,0-.49-1.61,3.56,3.56,0,0,0-1.53-1.67q-.91-.45-1.22-.56a8,8,0,0,0-1.32-.28A4.24,4.24,0,0,0,197.62,79.85Z"/><path class="cls-2" d="M247.54,92.49c.28-1,.48-2,.62-2.76a16.61,16.61,0,0,0,.21-2.81,7.33,7.33,0,0,0-.34-2.5,5.91,5.91,0,0,0-.8-1.5,6.78,6.78,0,0,0-1.81-1.5,8.11,8.11,0,0,0-6.5-.08,8.21,8.21,0,0,0-1.79,1.25,8.9,8.9,0,0,0-1.87,2.2l-.93,1.7a19.26,19.26,0,0,0-.91,2q-.29.78-.49,1.39a20.84,20.84,0,0,0-.7,2.25c-.19.76-.39,1.53-.6,2.31-.14.52-.27,1-.39,1.59s-.23,1.07-.34,1.59c0,.11-.11.48-.23,1.11s-.25,1.39-.39,2.28-.26,1.84-.36,2.87a27.77,27.77,0,0,0-.16,2.81,17.25,17.25,0,0,0,.34,3.17,9.22,9.22,0,0,0,1.06,3,3.61,3.61,0,0,0,.62.95,8.71,8.71,0,0,0,.83.78c.14.11.35.27.65.47a4.2,4.2,0,0,0,1.17.53,4.69,4.69,0,0,0,1.53.31l1,0a18.44,18.44,0,0,0,2-.19,8.8,8.8,0,0,0,3.09-1.09,6.91,6.91,0,0,0,1.66-1.28,11.47,11.47,0,0,0,2.51-3.37,19.09,19.09,0,0,0,1.35-3.59,20.62,20.62,0,0,0,.57-3.12q.13-1.39.18-2l3.68,2.06c0,.3,0,.57,0,.81s0,.49-.08.75a17.94,17.94,0,0,1-.8,3.39,16.16,16.16,0,0,1-1.42,3.17,14,14,0,0,1-2.28,3,11,11,0,0,1-2.31,2q-1,.56-1.79,1a20.28,20.28,0,0,1-2.8,1,16.23,16.23,0,0,1-4.41.47q-.62,0-1.68-.05a21.39,21.39,0,0,1-2.39-.28,23.26,23.26,0,0,1-2.88-.7,17.11,17.11,0,0,1-3.11-1.31,10.52,10.52,0,0,1-1.61-.95,20.19,20.19,0,0,1-1.61-1.39,14.94,14.94,0,0,1-1.45-1.56q-.47-.61-.8-1.14a7.4,7.4,0,0,1-.44-.75,16.28,16.28,0,0,1-1.84-5.12,25.9,25.9,0,0,1-.34-3.56,23,23,0,0,1,.44-4.57,28.75,28.75,0,0,1,1.06-3.92,25.62,25.62,0,0,1,1.27-3q.65-1.28,1-1.89a20.87,20.87,0,0,1,2-2.84q1-1.17,1.4-1.61c.17-.19.33-.34.47-.47l.47-.42a20.41,20.41,0,0,1,2.59-2.14,17.55,17.55,0,0,1,1.87-1.14,14.54,14.54,0,0,1,2-.89,21.52,21.52,0,0,1,3.19-.89l1.79-.28a20,20,0,0,1,2.77-.17c.35,0,.91,0,1.68.06a14.18,14.18,0,0,1,2.64.42,15.66,15.66,0,0,1,3.08,1.14,10.48,10.48,0,0,1,3,2.17,8.72,8.72,0,0,1,1.87,2.73,8.81,8.81,0,0,1,.57,3.34,9.35,9.35,0,0,1-.16,1.87q-.15.75-.41,1.75Z"/><path class="cls-2" d="M285.33,92.49c.28-1,.48-2,.62-2.76a16.61,16.61,0,0,0,.21-2.81,7.33,7.33,0,0,0-.34-2.5,5.91,5.91,0,0,0-.8-1.5,6.78,6.78,0,0,0-1.81-1.5,8.11,8.11,0,0,0-6.5-.08,8.21,8.21,0,0,0-1.79,1.25,8.9,8.9,0,0,0-1.87,2.2l-.93,1.7a19.26,19.26,0,0,0-.91,2q-.29.78-.49,1.39a20.84,20.84,0,0,0-.7,2.25c-.19.76-.39,1.53-.6,2.31-.14.52-.27,1-.39,1.59s-.23,1.07-.34,1.59c0,.11-.11.48-.23,1.11s-.25,1.39-.39,2.28-.26,1.84-.36,2.87a27.77,27.77,0,0,0-.16,2.81,17.25,17.25,0,0,0,.34,3.17,9.22,9.22,0,0,0,1.06,3,3.61,3.61,0,0,0,.62.95,8.71,8.71,0,0,0,.83.78c.14.11.35.27.65.47a4.2,4.2,0,0,0,1.17.53,4.69,4.69,0,0,0,1.53.31l1,0a18.44,18.44,0,0,0,2-.19,8.8,8.8,0,0,0,3.09-1.09,6.91,6.91,0,0,0,1.66-1.28,11.47,11.47,0,0,0,2.51-3.37,19.09,19.09,0,0,0,1.35-3.59,20.62,20.62,0,0,0,.57-3.12q.13-1.39.18-2l3.68,2.06c0,.3,0,.57,0,.81s0,.49-.08.75a17.94,17.94,0,0,1-.8,3.39,16.16,16.16,0,0,1-1.42,3.17,14,14,0,0,1-2.28,3,11,11,0,0,1-2.31,2q-1,.56-1.79,1a20.28,20.28,0,0,1-2.8,1,16.23,16.23,0,0,1-4.41.47q-.62,0-1.68-.05a21.39,21.39,0,0,1-2.39-.28,23.26,23.26,0,0,1-2.88-.7,17.11,17.11,0,0,1-3.11-1.31,10.52,10.52,0,0,1-1.61-.95,20.19,20.19,0,0,1-1.61-1.39,14.94,14.94,0,0,1-1.45-1.56q-.47-.61-.8-1.14a7.4,7.4,0,0,1-.44-.75,16.28,16.28,0,0,1-1.84-5.12,25.9,25.9,0,0,1-.34-3.56,23,23,0,0,1,.44-4.57,28.75,28.75,0,0,1,1.06-3.92,25.62,25.62,0,0,1,1.27-3q.65-1.28,1-1.89a20.87,20.87,0,0,1,2-2.84q1-1.17,1.4-1.61c.17-.19.33-.34.47-.47l.47-.42a20.41,20.41,0,0,1,2.59-2.14,17.55,17.55,0,0,1,1.87-1.14,14.54,14.54,0,0,1,2-.89,21.52,21.52,0,0,1,3.19-.89L275.3,78a20,20,0,0,1,2.77-.17c.35,0,.91,0,1.68.06a14.18,14.18,0,0,1,2.64.42,15.66,15.66,0,0,1,3.08,1.14,10.48,10.48,0,0,1,3,2.17,8.72,8.72,0,0,1,1.87,2.73,8.81,8.81,0,0,1,.57,3.34,9.35,9.35,0,0,1-.16,1.87q-.15.75-.41,1.75Z"/><path class="cls-2" d="M322.08,91.26c.14-.34.33-.78.57-1.34a5.57,5.57,0,0,0,.36-2.18,6.06,6.06,0,0,0-.29-2,6.75,6.75,0,0,0-.67-1.46,5.18,5.18,0,0,0-.8-1,7,7,0,0,0-.73-.61,10.41,10.41,0,0,0-.85-.67,6.45,6.45,0,0,0-1.42-.73,6.64,6.64,0,0,0-.78-.25q-.52-.14-1.19-.25c-.69-.11-1.21-.18-1.55-.2l-1,0-.78,0q-.57,0-1.3.14a8,8,0,0,0-1.56.42,6,6,0,0,0-1.5.81,2.71,2.71,0,0,0-.65.56q-.29.33-.54.67a4.51,4.51,0,0,0-.83,2.56,3.1,3.1,0,0,0,.31,1.51,4.46,4.46,0,0,0,.57.84,8.13,8.13,0,0,0,2.18,1.73,32,32,0,0,0,3.68,1.67q2,.78,3.45,1.37T319.25,94a22.75,22.75,0,0,1,2,1.12A13.66,13.66,0,0,1,323,96.46l.7.67a7.12,7.12,0,0,1,.59.67,10.61,10.61,0,0,1,1.17,1.87,11.46,11.46,0,0,1,.54,1.25,11.11,11.11,0,0,1,.7,2.73q.13,1.23.13,1.84c0,.45,0,1-.1,1.73a11.64,11.64,0,0,1-.49,2.31,14.55,14.55,0,0,1-1.11,2.59,10.33,10.33,0,0,1-2,2.56,9,9,0,0,1-1.71,1.48c-.55.35-1,.6-1.24.75a20,20,0,0,1-3.6,1.37,20.66,20.66,0,0,1-5.78.7q-.52,0-1.76-.06a23.64,23.64,0,0,1-2.88-.33,33.71,33.71,0,0,1-3.5-.81,16.89,16.89,0,0,1-3.58-1.48c-.21-.11-.63-.37-1.27-.78a12,12,0,0,1-2-1.64,10.6,10.6,0,0,1-1.84-2.53,7.2,7.2,0,0,1-.8-3.45,5.07,5.07,0,0,1,.36-2.11q.36-.78.62-1.23l4.61-.95a11.06,11.06,0,0,0-.26,1.23,11.63,11.63,0,0,0-.15,2,9.74,9.74,0,0,0,.28,2.5,10.32,10.32,0,0,0,.49,1.5,5.92,5.92,0,0,0,.31.58,7.49,7.49,0,0,0,.52.7c.28.33.54.63.8.89a8,8,0,0,0,1.37,1,15.61,15.61,0,0,0,2.75,1.25,13.29,13.29,0,0,0,4.61.7,11.79,11.79,0,0,0,3.32-.39,6.3,6.3,0,0,0,2-.95,10.23,10.23,0,0,0,1.17-1.23,3.73,3.73,0,0,0,.7-2.45,10.32,10.32,0,0,0-.13-1.23,4.09,4.09,0,0,0-.7-1.72,5.6,5.6,0,0,0-2.23-1.89q-1.45-.72-3.94-1.84-2-.89-3.5-1.64a29.06,29.06,0,0,1-2.59-1.48,17.15,17.15,0,0,1-1.94-1.45,16.05,16.05,0,0,1-1.56-1.56c-.1-.11-.35-.41-.73-.89a8.24,8.24,0,0,1-1-1.61,5.65,5.65,0,0,1-.44-.95,11.13,11.13,0,0,1-.44-1.56c-.07-.3-.15-.66-.23-1.09a8.14,8.14,0,0,1-.13-1.59,10.53,10.53,0,0,1,.1-1.31,12.83,12.83,0,0,1,.36-1.75,12.35,12.35,0,0,1,.78-2,11.58,11.58,0,0,1,1.35-2.14c.17-.22.35-.43.52-.61s.45-.46.83-.83l.62-.53.67-.53a14.39,14.39,0,0,1,2.07-1.17,16.55,16.55,0,0,1,2.1-.81,16.84,16.84,0,0,1,1.76-.44l1.06-.19,1.37-.17a20.12,20.12,0,0,1,2.2-.11l1.37,0a18.67,18.67,0,0,1,2,.19,20.62,20.62,0,0,1,2.46.53,14.74,14.74,0,0,1,2.67,1,13.84,13.84,0,0,1,1.66.92c.41.28.74.51,1,.7a11.17,11.17,0,0,1,1.48,1.45,9.61,9.61,0,0,1,.8,1.11,6.08,6.08,0,0,1,.65,1.36,6.67,6.67,0,0,1,.39,2.37,5,5,0,0,1-.21,1.53c-.14.43-.31.9-.52,1.42Z"/><path class="cls-2" d="M354.89,78.57l3.42,39.52H347.58L347,107.85H335.35L330,118.1H325.6l20.79-39.52Zm-8.14,25.5-1-16.53c-.14.3-.27.61-.39.95a5.71,5.71,0,0,1-.44.94,9.67,9.67,0,0,1-.57,1.06,10.18,10.18,0,0,0-.57,1.06c-.21.41-.42.81-.62,1.2l-.62,1.2Q341.2,96.5,339.91,99t-2.64,5.06Z"/><path class="cls-2" d="M112.62,107.17H76.55L62.39,136.12H51.19l48.5-98.76h13.59l17.21,98.76H117.78Zm-1.38-9.91L103.61,51.9,81.4,97.26Z"/><path class="cls-2" d="M101.94,106.44H87l-5.88,12H76.43l20.14-41h5.64l7.15,41h-5.28Zm-.57-4.12L98.2,83.48,89,102.32Z"/></svg>