<svg xmlns="http://www.w3.org/2000/svg" viewBox="0 0 801.47 189.71"><defs><style>.cls-1,.cls-4{stroke:#fff;}.cls-1{stroke-miterlimit:10;}.cls-2{fill:#00579a;}.cls-3{fill:#fff;}.cls-4{fill:none;stroke-width:0.98px;}</style></defs><title>Recurso 1</title><g id="Capa_2" data-name="Capa 2"><g id="Capa_1-2" data-name="Capa 1"><polyline class="cls-1" points="289.68 184.41 240.11 184.41 240.11 118.84 184.13 4.9 239.31 4.9 265.29 65.67 291.28 4.9 345.65 4.9 289.68 118.04 289.68 184.41"/><path class="cls-1" d="M374.44,93.66c0,22.78,6,51.57,29.58,51.57,21.19,0,29.59-22,29.59-51.57,0-24.39-8.4-50.38-30-49.58-22.78,0-29.58,26.79-29.18,49.58m108.34,0c0,61.17-34.38,95.55-79.16,95.55-47.17,0-78.76-34.78-78.76-95.95,0-56.38,32-92.76,78.76-92.76C457.6.1,482.78,46.08,482.78,93.66Z"/><path class="cls-1" d="M542.36,82.46H562c15.19,0,23.18-4.4,23.18-16.79s-8.39-18.79-20-18.79H542.36V82.46m0,39.58v62.37H493.18V4.9h71.16c50,0,66.77,16.39,66.77,51.17,0,20.79-7.6,38-25.19,44,16,7.2,25.59,11.6,25.59,47.58,0,23.59-.8,31.18,5.2,31.18v5.6h-50a137,137,0,0,1-2.4-31.18c0-23.59-3.19-31.19-26.38-31.19Z"/><polyline class="cls-1" points="644.3 4.9 693.88 4.9 693.88 62.87 737.06 4.9 795.03 4.9 739.86 72.47 800.63 184.41 741.46 184.41 705.47 112.85 693.88 127.64 693.88 184.41 644.3 184.41 644.3 4.9"/><g id="Capa_1-2-2" data-name="Capa 1-2"><rect class="cls-2" x="1.03" y="4.9" width="179.51" height="179.91"/><path class="cls-3" d="M67.39,116.84l13.6,7.6,3.19-5.6-16.79-9.59V76.06L95,92.06v21.19h6.4V95.66l13.59,8,4.8-8-14-8,15.6-8.8-3.2-5.59L99.78,84.06l-27.59-16,28-16,18.39,10.79,3.2-5.6-15.2-8.79,13.6-8-4.4-8.39-13.59,8V22.49h-6.4V44.08l-27.59,16V26.89l18.39-10.8-3.2-5.59L68.19,19.29V4.5H58.6V34.09a26.46,26.46,0,0,0-11.2,3.59l-18-23.18-8,5.59L38.61,43.28a29.05,29.05,0,0,0-7.2,10L3.82,44.08.63,53.28l27.58,9.19a30.89,30.89,0,0,0-.4,6c0,2,.4,4,.4,6L1,83.26l2.79,9.2L31,83.66a27.63,27.63,0,0,0,7.2,9.6L21.42,116.84l7.59,5.6L45.8,98.85a30,30,0,0,0,11.6,3.6V132H67l.4-15.2"/><path class="cls-4" d="M67.39,116.84l13.6,7.6,3.19-5.6-16.79-9.59V76.06L95,92.06v21.19h6.4V95.66l13.59,8,4.8-8-14-8,15.6-8.8-3.2-5.59L99.78,84.06l-27.59-16,28-16,18.39,10.79,3.2-5.6-15.2-8.79,13.6-8-4.4-8.39-13.59,8V22.49h-6.4V44.08l-27.59,16V26.89l18.39-10.8-3.2-5.59L68.19,19.29V4.5H58.6V34.09a26.46,26.46,0,0,0-11.2,3.59l-18-23.18-8,5.59L38.61,43.28a29.05,29.05,0,0,0-7.2,10L3.82,44.08.63,53.28l27.58,9.19a30.89,30.89,0,0,0-.4,6c0,2,.4,4,.4,6L1,83.26l2.79,9.2L31,83.66a27.63,27.63,0,0,0,7.2,9.6L21.42,116.84l7.59,5.6L45.8,98.85a30,30,0,0,0,11.6,3.6V132H67l.4-15.2"/></g></g></g></svg>