<svg xmlns="http://www.w3.org/2000/svg" viewBox="0 0 367.14 51.71"><defs><style>.cls-1{fill:#fe1a1f;}.cls-2{fill:#010101;}.cls-3{fill:#070707;}</style></defs><title>Recurso 1</title><g id="Capa_2" data-name="Capa 2"><g id="Capa_1-2" data-name="Capa 1"><path class="cls-1" d="M55.34,51.55c-1.38.22-1.79-.68-2.27-1.45C50.49,46,48,41.68,45.31,37.56c-1-1.5-.62-2.45.44-3.6q15-16.3,30-32.67C77.1-.19,78-.27,79.15,1.54c2.24,3.59,4.78,7,6.88,10.67,1.41,2.46,2.82,2.56,5.25,1.52C101.48,9.34,111.75,5.13,122,1c1-.41,2.32-1.83,3.31-.22.75,1.24-.66,2-1.38,2.8Q109.65,18.87,95.31,34.17a8.64,8.64,0,0,1-3,2.22L56.74,51Z"/><path class="cls-1" d="M70.79,1.38c-.51.62-1,1.26-1.51,1.84l-28.84,31a10.45,10.45,0,0,1-3.64,2.45C25.73,41.36,14.69,46.11,3.61,50.78c-1,.43-2.38,1.73-3.36.23-.86-1.3.71-2,1.42-2.76q15-15.89,30.05-31.72a9.44,9.44,0,0,1,3.36-2.29C45.87,9.78,56.63,5.25,67.42.78,68.54.32,69.92-.81,70.79,1.38Z"/><path class="cls-1" d="M109.92,51.58a1.79,1.79,0,0,1-1.8-1.12c-2.67-4.39-5.3-8.82-8-13.18a2.16,2.16,0,0,1,.39-3Q115.73,17.68,131,1.07c1.37-1.5,2.23-1,3.17.42,2.53,4,5,7.93,7.7,11.79,1,1.48.66,2.37-.41,3.56q-15,16.59-29.9,33.26C111,50.68,110.37,51.17,109.92,51.58Z"/><path d="M133.44,41.38c6.87-8.11,13.27-15.6,19.59-23.17a4.15,4.15,0,0,1,3.82-1.66c2,.13,4,0,6.07,0,.17,1.51-1.29,1.6-1.67,2.48a1.1,1.1,0,0,0,1.27.11,29,29,0,0,1,11.2-3.06c3.21-.17,6.81-.83,8.74,3,.68,1.34,1.42.19,1.94,0a40.79,40.79,0,0,1,10.21-2.9,17.08,17.08,0,0,1,6.49.28c3.6.89,4.67,3.11,2.39,6-4.81,6.12-9.94,12-14.94,18a2.47,2.47,0,0,1-2.09.93c-2.82,0-5.64,0-8.52,0,4.75-5.64,9.37-11.09,13.93-16.6.61-.74,1.47-1.67.74-2.77s-1.83-.86-2.83-.81a15.86,15.86,0,0,0-11.23,5.25c-3.41,3.71-6.83,7.44-9.89,11.44-2.09,2.72-4.38,4-7.8,3.53a39.3,39.3,0,0,0-5.09,0c3.46-4.08,6.52-7.69,9.57-11.31,1.48-1.75,3-3.48,4.37-5.3.59-.77,1.52-1.65.83-2.76s-1.83-.84-2.82-.81a15.11,15.11,0,0,0-11,4.82c-3.65,4-7.28,8-10.58,12.21-2,2.54-4.11,3.68-7.27,3.24A42.77,42.77,0,0,0,133.44,41.38Z"/><path class="cls-2" d="M193.72,41.33c6.87-8.07,13.27-15.56,19.62-23.1a3.88,3.88,0,0,1,3.48-1.69c2.36.15,4.74,0,7.76,0-7,8.28-13.65,16.1-20.27,23.93-.79.94-1.8.82-2.82.82Z"/><path class="cls-3" d="M232.22,7.43c-4.71,6.07-4.71,6.07-13.75,5.72C220.74,7.51,223.1,6.5,232.22,7.43Z"/><path d="M209.74,41.33c7-8.24,13.61-16,20.14-23.75,1.12-1.33,2.46-.94,3.77-1,1.83-.06,3.66,0,5.64,0,.18,1.25-1.2,1.54-1.46,2.6.31,0,.66.11.87,0,3.42-2,7.42-4.35,11-2.94,5.4,2.16,10.19.06,15.23-.2a38.23,38.23,0,0,1,10.62.64c3.57.82,4.37,2.77,2.19,5.68-2.6,3.48-5.54,6.71-8.3,10.07-1.38,1.68-2.63,3.48-4,5.12-1,1.12-.4,3.41-2.05,3.65-2.59.37-6.56,1.22-7.65-.07-2.92-3.46-5.06-.27-7.35,0-3.87.44-7.69,1.35-11.58.3-3.53-1-4.35-3.19-2.14-6.13a18.76,18.76,0,0,1,11.88-7c5.72-1.12,11.53-1.83,17.3-2.71a4,4,0,0,0,2.55-.85c.63-.67,1.45-1.4,1.26-2.33s-1.35-1.06-2.25-1.14c-3-.27-6.07-.39-8.68,1.3a6.27,6.27,0,0,1-6,.63C243,20.55,236.3,22,230.9,28.43c-2.74,3.23-5.73,6.27-8.29,9.65-1.92,2.52-4,3.8-7.23,3.32A42.47,42.47,0,0,0,209.74,41.33Zm50.62-9.57a10.22,10.22,0,0,0,.82-1.34c-.37-.2-.78-.64-1.1-.58-4.33.85-8.92.58-12.95,2.77-1.2.65-2.59,1.56-2.27,3.07s2,1.53,3.86,1.57c4.2-.46,8.5-1.71,11.64-5.49Z"/><path d="M294,38.45c-3.29.9-6.22,1.77-9.18,2.51a17,17,0,0,1-7.17.13c-4.77-.89-6.31-4-4.08-8.3a22.87,22.87,0,0,1,3.16-4.47,35.83,35.83,0,0,1,24.19-12.26c3.69-.36,7.42-.26,9.95,3.76,2.12-4.58,6.09-3.15,9.55-3.24,1.82,0,1.47,1,.63,2-7.43,8.41-14,17.55-22.16,25.33-6.75,6.46-15.4,7.6-24.29,7.46-2.85,0-5.75,0-8.49-1-1.84-.68-3.4-1.76-2.67-4,.65-2,1.6-3.82,4.4-3.16,1.43.33,3,.19,4.44.38s3.23-.54,3.57,2c.12.85,1.55.71,2.45.79C284.86,46.82,290.18,44.71,294,38.45Zm10.2-11.68c.82-1.16,1.9-2.42,1-4.05s-2.46-1.59-3.93-1.58c-7,.07-12.08,3.72-16,9.21-.82,1.14-2,2.38-1,4s2.43,1.49,4.4,1.6c6.38-.39,11.62-3.61,15.53-9.18Z"/><path d="M344.56,34.67c-8.81,5.82-17.71,8.4-27.59,6.7-5.32-.91-6.81-4.28-4.13-9,6.05-10.61,23-18.38,35-16,5.6,1.1,7.09,4.2,4.41,9.14-1.95,3.61-4.25,6-9.07,5.51-5.68-.58-11.46,0-17.19-.19-2.37-.07-3.47,1.09-3.75,3-.34,2.39,1.63,2.76,3.34,3a8.15,8.15,0,0,0,6-1.08C335.53,32.81,339.69,33.7,344.56,34.67Zm-4.39-7.82c2.29.08,3.12-1.32,3.37-3.05.32-2.22-1.53-2.62-3.15-2.69-4.92-.18-9,1.74-13,5.71,4.81,0,8.8-.1,12.78,0Z"/><path d="M367.14,15.8a4,4,0,1,1-4-3.89A3.92,3.92,0,0,1,367.14,15.8Zm-7,0a3,3,0,0,0,3,3.11,3,3,0,0,0,3-3.09,3,3,0,1,0-6,0Zm2.4,2h-.91v-3.9a11.92,11.92,0,0,1,1.5-.12,2.06,2.06,0,0,1,1.33.31,1,1,0,0,1-.4,1.76v.05c.37.12.56.42.68,1a3.51,3.51,0,0,0,.29.95h-.95a3.09,3.09,0,0,1-.31-.95c-.07-.41-.31-.59-.81-.59h-.42Zm0-2.19H363c.5,0,.9-.16.9-.56s-.26-.6-.83-.6a1.8,1.8,0,0,0-.5,0Z"/></g></g></svg>