<svg xmlns="http://www.w3.org/2000/svg" viewBox="0 0 110.55 110.55"><defs><style>.cls-1{fill:#004294;}.cls-1,.cls-2,.cls-3,.cls-4,.cls-5{fill-rule:evenodd;}.cls-2{fill:#e1e1e1;}.cls-3{fill:#f9c52b;}.cls-4{fill:#efb019;}.cls-5{fill:#4d4d4d;}</style></defs><title>Recurso 10</title><g id="Capa_2" data-name="Capa 2"><g id="Capa_5" data-name="Capa 5"><path class="cls-1" d="M55.27,6.7A48.58,48.58,0,1,1,6.7,55.27,48.58,48.58,0,0,1,55.27,6.7"/><path class="cls-2" d="M19.33.43A23.87,23.87,0,0,1,46.17,32.32L78.23,64.38a23.87,23.87,0,0,1,31.89,26.84A2.24,2.24,0,0,1,108.54,93a2.22,2.22,0,0,1-2.29-.57L91.74,77.89A40.73,40.73,0,0,0,77.89,91.74L92.4,106.25a2.22,2.22,0,0,1,.57,2.29,2.24,2.24,0,0,1-1.75,1.58A23.87,23.87,0,0,1,64.38,78.23L32.32,46.17A23.87,23.87,0,0,1,.43,19.33,2.23,2.23,0,0,1,2,17.58a2.22,2.22,0,0,1,2.29.57L18.81,32.66a39.23,39.23,0,0,0,7.77-6.08,39.23,39.23,0,0,0,6.08-7.77L18.15,4.3A2.22,2.22,0,0,1,17.58,2,2.23,2.23,0,0,1,19.33.43"/><path class="cls-3" d="M69.25,56.9l-5.64-5.64L90,24.88a6.13,6.13,0,0,0,5.9-1.58l4.43-4.43,4.32-4.32-2.16-2.16-2.16-2.15L98.15,8.08,96,5.92l-4.31,4.32-4.44,4.43a6.11,6.11,0,0,0-1.57,5.89L59.29,46.94l-5.64-5.65L48,47a6.69,6.69,0,0,1-9.46,9.46L9.15,85.79h0A11,11,0,0,0,24.76,101.4L54.1,72.05a6.69,6.69,0,1,1,9.47-9.46Z"/><path class="cls-4" d="M41.38,62.86h0a2.37,2.37,0,0,0-3.36,0L14.94,85.94a2.39,2.39,0,0,0,0,3.36h0a2.39,2.39,0,0,0,3.36,0L41.38,66.22a2.37,2.37,0,0,0,0-3.36m6.31,6.31h0a2.37,2.37,0,0,0-3.36,0L21.25,92.25a2.39,2.39,0,0,0,0,3.36h0a2.39,2.39,0,0,0,3.36,0L47.69,72.52A2.38,2.38,0,0,0,47.69,69.17Z"/><path class="cls-5" d="M9.09,40.19A23.84,23.84,0,0,1,2.58,18.85a2.27,2.27,0,0,1,.74-1.29,2.25,2.25,0,0,0-1.31,0A2.23,2.23,0,0,0,.43,19.33,23.82,23.82,0,0,0,7,40.72c.49.49,1,1,1.51,1.4a23.88,23.88,0,0,0,21.62,4.76,23.87,23.87,0,0,1-21-6.63l-.05-.06"/><path class="cls-5" d="M46.39,57.61,34.47,45.69c-.65.24-1.31.46-2,.65L44.44,58.29a6.46,6.46,0,0,0,2-.68"/><path class="cls-5" d="M66.54,77.75l-13.6-13.6a7,7,0,0,0-.69,1.95L64.38,78.23A23.86,23.86,0,0,0,68.43,102c.44.52.9,1,1.39,1.52a23.87,23.87,0,0,0,21.4,6.56,2.31,2.31,0,0,0,.68-.25A23.79,23.79,0,0,1,72,103.08c-.54-.53-1-1.09-1.52-1.66a23.89,23.89,0,0,1-3.92-23.67"/><path class="cls-5" d="M108.4,91.92,96.86,80.38l-3-3c-.53.32-1.08.65-1.62,1L95.84,82,106.25,92.4a2.31,2.31,0,0,0,3.13.11,2.23,2.23,0,0,1-1-.59"/><path class="cls-5" d="M34.81,18.33l-4.64-4.64L20.3,3.82a2.22,2.22,0,0,1-.57-2.29A2.21,2.21,0,0,1,20.8.2c-.49.06-1,.14-1.47.23A2.23,2.23,0,0,0,17.58,2a2.22,2.22,0,0,0,.57,2.29l10.4,10.41,4.11,4.1a39.23,39.23,0,0,1-6.08,7.77,40.66,40.66,0,0,1-6.15,5.07l.53.53a38.86,38.86,0,0,0,7.77-6.08,38.5,38.5,0,0,0,6.08-7.77"/><path class="cls-4" d="M29.62,96.53,54.1,72.05a6.67,6.67,0,0,1-1-1.35L28.17,95.59,24.76,99A11,11,0,0,1,6,92.4a11,11,0,0,0,18.78,9Z"/><path class="cls-4" d="M63.57,60.19a6.69,6.69,0,0,0-11.32,5.9v0a7,7,0,0,1,.69-1.95,6.69,6.69,0,0,1,10.63-1.56l5.68-5.69-1.19-1.2Z"/><path class="cls-4" d="M64.81,50.06,90,24.88a6.12,6.12,0,0,0,3.18,0,6,6,0,0,0,2.72-1.57l4.43-4.43,4.32-4.32-1.2-1.19-3.12,3.12-4.43,4.43a6.11,6.11,0,0,1-4.59,1.78,6.49,6.49,0,0,1-1.31-.2L63.61,48.86Z"/></g></g></svg>