<svg xmlns="http://www.w3.org/2000/svg" viewBox="0 0 11.96 11.96"><defs><style>.cls-1{fill:#fff;}</style></defs><title>Recurso 17</title><g id="Capa_2" data-name="Capa 2"><g id="Capa_5" data-name="Capa 5"><path class="cls-1" d="M9.09,7.91a.84.84,0,0,0-1.26,0l-.89.89a.17.17,0,0,1-.24,0c-.19-.1-.4-.19-.58-.3a9.28,9.28,0,0,1-2.22-2,5.52,5.52,0,0,1-.79-1.27.18.18,0,0,1,0-.23c.3-.29.59-.58.88-.88A.83.83,0,0,0,4,2.85l-.7-.7-.71-.72a.84.84,0,0,0-1.27,0c-.3.29-.58.59-.89.88a1.45,1.45,0,0,0-.45,1A4,4,0,0,0,.33,5.07,10.91,10.91,0,0,0,2.24,8.26a11.94,11.94,0,0,0,3.92,3.06A5.72,5.72,0,0,0,8.34,12a1.6,1.6,0,0,0,1.36-.52c.26-.29.54-.55.81-.82a.85.85,0,0,0,0-1.29L9.09,7.91Z"/><path class="cls-1" d="M8.62,5.93l.92-.16A4.15,4.15,0,0,0,8.39,3.56,4.06,4.06,0,0,0,6.05,2.39l-.13.92a3.21,3.21,0,0,1,2.7,2.62Z"/><path class="cls-1" d="M10.05,1.94A6.79,6.79,0,0,0,6.17,0L6,.92A5.87,5.87,0,0,1,9.4,2.6,5.76,5.76,0,0,1,11,5.77L12,5.61a6.74,6.74,0,0,0-1.91-3.67Z"/></g></g></svg>