<svg xmlns="http://www.w3.org/2000/svg" viewBox="0 0 79.49 79.61"><defs><style>.cls-1{fill:#fff;}</style></defs><title>Recurso 22</title><g id="Capa_2" data-name="Capa 2"><g id="Capa_5" data-name="Capa 5"><path class="cls-1" d="M75.39,0H46.46a4.09,4.09,0,0,0-2.9,1.2L1.2,43.56a4.1,4.1,0,0,0,0,5.8h0L30.13,78.29a4.1,4.1,0,0,0,5.8,0L78.29,35.93a4.09,4.09,0,0,0,1.2-2.9V4.1A4.1,4.1,0,0,0,75.39,0Zm1.37,33a1.37,1.37,0,0,1-.4,1L34,76.36a1.38,1.38,0,0,1-1.94,0L3.13,47.43a1.38,1.38,0,0,1,0-1.94L45.49,3.13a1.41,1.41,0,0,1,1-.4H75.39A1.37,1.37,0,0,1,76.76,4.1Z"/><path class="cls-1" d="M61.73,10.93a6.84,6.84,0,1,0,6.83,6.83A6.83,6.83,0,0,0,61.73,10.93Zm0,10.93a4.1,4.1,0,1,1,4.1-4.1A4.09,4.09,0,0,1,61.73,21.86Z"/><path class="cls-1" d="M53.67,76.16a1.38,1.38,0,0,1-1.86.54h0L44.65,72.6,43.28,75l7.15,4.08a4.08,4.08,0,0,0,2,.55,4.34,4.34,0,0,0,1.13-.16,4.09,4.09,0,0,0,2.48-2L71.13,49.85l-2.4-1.31Z"/><rect class="cls-1" x="28.93" y="25.4" width="2.73" height="3.86" transform="translate(-10.45 29.43) rotate(-45)"/><rect class="cls-1" x="34.4" y="30.86" width="2.73" height="3.86" transform="translate(-12.71 34.89) rotate(-45)"/><rect class="cls-1" x="39.86" y="36.33" width="2.73" height="3.86" transform="translate(-14.98 40.36) rotate(-45)"/><rect class="cls-1" x="45.33" y="41.8" width="2.73" height="3.86" transform="translate(-17.24 45.83) rotate(-45)"/><rect class="cls-1" x="50.8" y="47.26" width="2.73" height="3.86" transform="translate(-19.51 51.29) rotate(-45)"/><path class="cls-1" d="M39.46,51l-2.73-2.73a5.24,5.24,0,0,0-7.4,0L26.6,51a2.57,2.57,0,0,1-3.54,0l-2.73-2.73a2.52,2.52,0,0,1,0-3.54L23.06,42a2.57,2.57,0,0,1,3.54,0L28.53,40a5.24,5.24,0,0,0-7.4,0l-.4.4L19,38.66,17,40.59l1.77,1.77-.4.4a5.24,5.24,0,0,0,0,7.4l2.73,2.73a5.24,5.24,0,0,0,7.4,0l2.73-2.73a2.57,2.57,0,0,1,3.54,0l2.73,2.73a2.5,2.5,0,0,1,0,3.54L34.8,59.16a2.57,2.57,0,0,1-3.54,0l-1.93,1.93a5.24,5.24,0,0,0,7.4,0l.4-.4,1.77,1.77,1.93-1.93-1.77-1.77.4-.4A5.24,5.24,0,0,0,39.46,51Z"/><rect class="cls-1" x="32.7" y="17.77" width="11.59" height="2.73" transform="translate(-2.25 32.82) rotate(-45)"/><rect class="cls-1" x="38.17" y="23.23" width="11.59" height="2.73" transform="translate(-4.51 38.29) rotate(-45)"/><rect class="cls-1" x="43.63" y="28.69" width="11.59" height="2.73" transform="translate(-6.78 43.76) rotate(-45)"/><rect class="cls-1" x="49.1" y="34.16" width="11.59" height="2.73" transform="translate(-9.04 49.22) rotate(-45)"/><rect class="cls-1" x="54.56" y="39.62" width="11.59" height="2.73" transform="translate(-11.31 54.69) rotate(-45)"/></g></g></svg>