<svg xmlns="http://www.w3.org/2000/svg" viewBox="0 0 65.59 79.26"><defs><style>.cls-1{fill:#fff;}</style></defs><title>Recurso 20</title><g id="Capa_2" data-name="Capa 2"><g id="Capa_5" data-name="Capa 5"><path class="cls-1" d="M63.57,17.76c-2-3.5-6.11-4.8-10.06-6.05a28.86,28.86,0,0,1-5.68-2.22A27.82,27.82,0,0,1,43.28,5.8C40.35,3.08,37,0,32.8,0S25.25,3.08,22.32,5.8a28.8,28.8,0,0,1-4.55,3.69,30,30,0,0,1-5.68,2.22C8.14,13,4.05,14.26,2,17.76S1,25.27,1.81,29.26a31,31,0,0,1,.92,6.27,30.82,30.82,0,0,1-.92,6.26C1,45.79.07,49.91,2,53.29a12,12,0,0,0,6.59,4.87L.29,68.85a1.36,1.36,0,0,0,.24,1.92,1.4,1.4,0,0,0,1,.28l9.77-1.22,2.41,8.44a1.37,1.37,0,0,0,1,1l.26,0a1.38,1.38,0,0,0,1.08-.53l8.73-11.22a12.63,12.63,0,0,0,8,3.55,12.63,12.63,0,0,0,8-3.55l8.72,11.22a1.38,1.38,0,0,0,1.08.53,1.09,1.09,0,0,0,.26,0,1.36,1.36,0,0,0,1-1l2.42-8.44,9.77,1.22a1.38,1.38,0,0,0,1.25-2.2L57,58.16a12,12,0,0,0,6.58-4.87c2-3.38,1.07-7.51.21-11.5a32.28,32.28,0,0,1-.92-6.26,32.5,32.5,0,0,1,.92-6.27C64.64,25.27,65.53,21.14,63.57,17.76Zm-48,57.17-2-7a1.36,1.36,0,0,0-1.48-1l-7.65,1,6.86-8.82.75.24a29.75,29.75,0,0,1,5.68,2.22,28.25,28.25,0,0,1,4.55,3.69l.47.43Zm45.51-7-7.65-1A1.36,1.36,0,0,0,52,68l-2,7L42.81,65.7l.47-.44a27.82,27.82,0,0,1,4.55-3.69,28.86,28.86,0,0,1,5.68-2.22l.75-.24Zm0-25.57c.79,3.65,1.52,7.09.09,9.57s-4.91,3.67-8.52,4.81a32.34,32.34,0,0,0-6.22,2.46,30.29,30.29,0,0,0-5,4.06c-2.81,2.61-5.47,5.07-8.62,5.07S27,65.87,24.17,63.26a30.29,30.29,0,0,0-5-4.06,32.34,32.34,0,0,0-6.22-2.46c-3.61-1.14-7-2.22-8.52-4.81S3.7,46,4.48,42.36a34.31,34.31,0,0,0,1-6.83,34.1,34.1,0,0,0-1-6.83C3.7,25.05,3,21.6,4.39,19.13s4.91-3.67,8.52-4.82a30.86,30.86,0,0,0,6.22-2.46,29.73,29.73,0,0,0,5-4C27,5.19,29.64,2.73,32.8,2.73s5.81,2.46,8.62,5.07a29.73,29.73,0,0,0,5,4.05,31.1,31.1,0,0,0,6.22,2.46c3.62,1.15,7,2.23,8.52,4.82s.7,5.92-.09,9.57a33.39,33.39,0,0,0-1,6.83A33.59,33.59,0,0,0,61.11,42.36Z"/><path class="cls-1" d="M32.8,10.93a24.6,24.6,0,1,0,24.59,24.6A24.6,24.6,0,0,0,32.8,10.93Zm0,46.46A21.86,21.86,0,1,1,54.66,35.53,21.87,21.87,0,0,1,32.8,57.39Z"/><path class="cls-1" d="M46.36,28.7H38l-2.6-8a2.73,2.73,0,0,0-5.19,0l-2.59,8H19.24a2.73,2.73,0,0,0-1.61,4.94l6.77,4.92-2.59,8A2.74,2.74,0,0,0,26,49.58l6.78-4.92,6.77,4.92a2.74,2.74,0,0,0,4.21-3.06l-2.59-8L48,33.64a2.73,2.73,0,0,0,.6-3.82A2.7,2.7,0,0,0,46.36,28.7Zm0,2.73-7.58,5.5a1.38,1.38,0,0,0-.5,1.53l2.9,8.91L33.6,41.86a1.4,1.4,0,0,0-1.61,0l-7.57,5.51,2.89-8.91a1.38,1.38,0,0,0-.5-1.53l-7.57-5.5H28.6a1.37,1.37,0,0,0,1.3-.94l2.9-8.91,2.89,8.9a1.36,1.36,0,0,0,1.3.95Z"/></g></g></svg>