<svg xmlns="http://www.w3.org/2000/svg" viewBox="0 0 122.64 94.25"><defs><style>.cls-1{fill:#e1e1e1;}.cls-2{fill:#fff;}.cls-3{fill:#df3a59;}.cls-4{fill:#c93253;}.cls-5{fill:#095db4;}.cls-6{fill:#004294;}.cls-7{fill:#f9c52b;}.cls-8{fill:#efb019;}.cls-9{fill:#4d4d4d;}</style></defs><title>Recurso 9</title><g id="Capa_2" data-name="Capa 2"><g id="Capa_5" data-name="Capa 5"><path class="cls-1" d="M61.39,43.18a20.5,20.5,0,1,1-20.5-20.5A20.5,20.5,0,0,1,61.39,43.18Zm17.69,3.18V40a4.32,4.32,0,0,0-4.31-4.31H71.12a31.12,31.12,0,0,0-3.56-8.59l2.58-2.58a4.31,4.31,0,0,0,0-6.09l-4.5-4.5a4.31,4.31,0,0,0-6.09,0L57,16.51A31.12,31.12,0,0,0,48.38,13V9.3A4.32,4.32,0,0,0,44.07,5H37.71A4.32,4.32,0,0,0,33.4,9.3V13a31,31,0,0,0-8.59,3.56l-2.59-2.58a4.31,4.31,0,0,0-6.09,0l-4.5,4.5a4.33,4.33,0,0,0,0,6.09l2.59,2.58a31.12,31.12,0,0,0-3.56,8.59H7A4.31,4.31,0,0,0,2.7,40v6.36A4.31,4.31,0,0,0,7,50.67h3.66a31,31,0,0,0,3.56,8.59l-2.59,2.59a4.33,4.33,0,0,0,0,6.09l4.5,4.5a4.33,4.33,0,0,0,6.09,0l2.59-2.59a31,31,0,0,0,8.59,3.56v3.66a4.31,4.31,0,0,0,4.31,4.3h6.36a4.31,4.31,0,0,0,4.31-4.3V73.41A31.12,31.12,0,0,0,57,69.85l2.58,2.59a4.33,4.33,0,0,0,6.09,0l4.5-4.5a4.31,4.31,0,0,0,0-6.09l-2.58-2.59a31,31,0,0,0,3.56-8.59h3.65A4.32,4.32,0,0,0,79.08,46.36Z"/><path class="cls-1" d="M91.72,79.15a14.2,14.2,0,1,1,18.52-7.78A14.19,14.19,0,0,1,91.72,79.15ZM85.05,89.66l4.08,1.67A3,3,0,0,0,93,89.7l1-2.35a21.38,21.38,0,0,0,6.44,0l1,2.33a3,3,0,0,0,3.9,1.6l4.07-1.71a3,3,0,0,0,1.59-3.9l-1-2.34a21.44,21.44,0,0,0,4.54-4.58l2.34,1a3,3,0,0,0,3.89-1.63L122.42,74a3,3,0,0,0-1.64-3.89l-2.34-1a21.38,21.38,0,0,0,0-6.44l2.33-1a3,3,0,0,0,1.6-3.91l-1.71-4.06a3,3,0,0,0-3.91-1.6l-2.33,1a21.39,21.39,0,0,0-4.58-4.53l1-2.34a3,3,0,0,0-1.64-3.89l-4.08-1.67a3,3,0,0,0-3.89,1.63l-1,2.35a21.45,21.45,0,0,0-6.45,0l-1-2.34a3,3,0,0,0-3.9-1.59l-4.07,1.71a3,3,0,0,0-1.59,3.9l1,2.34a21.39,21.39,0,0,0-4.53,4.58l-2.35-1A3,3,0,0,0,73.43,54L71.77,58a3,3,0,0,0,1.63,3.89l2.34,1a21.71,21.71,0,0,0,0,6.44l-2.34,1a3,3,0,0,0-1.59,3.91l1.7,4.06a3,3,0,0,0,3.91,1.6l2.34-1a21.35,21.35,0,0,0,4.57,4.53l-1,2.34A3,3,0,0,0,85.05,89.66Z"/><path class="cls-1" d="M87.75,27.14a10.7,10.7,0,1,1,15.11.8A10.69,10.69,0,0,1,87.75,27.14Zm-8,4.94L82,34.55a2.25,2.25,0,0,0,3.17.17l1.42-1.28A15.74,15.74,0,0,0,91,35.53l-.1,1.91A2.25,2.25,0,0,0,93,39.8l3.32.18a2.26,2.26,0,0,0,2.36-2.13l.1-1.9a16.37,16.37,0,0,0,4.58-1.62l1.27,1.42a2.26,2.26,0,0,0,3.17.17l2.47-2.22a2.26,2.26,0,0,0,.17-3.18l-1.27-1.42a16.41,16.41,0,0,0,2.09-4.37l1.9.1a2.25,2.25,0,0,0,2.36-2.13l.18-3.31A2.26,2.26,0,0,0,113.57,17l-1.91-.1A16,16,0,0,0,110,12.35l1.42-1.28a2.25,2.25,0,0,0,.17-3.17l-2.22-2.47a2.25,2.25,0,0,0-3.17-.17l-1.42,1.28a15.88,15.88,0,0,0-4.38-2.09l.1-1.91A2.25,2.25,0,0,0,98.42.18L95.1,0a2.25,2.25,0,0,0-2.36,2.13L92.64,4a16.06,16.06,0,0,0-4.58,1.62L86.79,4.23a2.27,2.27,0,0,0-3.18-.17L81.14,6.28A2.27,2.27,0,0,0,81,9.46l1.27,1.42a16.41,16.41,0,0,0-2.09,4.37l-1.9-.1a2.26,2.26,0,0,0-2.37,2.13l-.17,3.31A2.26,2.26,0,0,0,77.84,23l1.91.1a16.29,16.29,0,0,0,1.61,4.57L80,28.91A2.25,2.25,0,0,0,79.78,32.08Z"/><path class="cls-1" d="M61.26,43.31a20.5,20.5,0,1,1-20.5-20.5A20.5,20.5,0,0,1,61.26,43.31ZM79,46.49V40.13a4.32,4.32,0,0,0-4.3-4.31H71a31,31,0,0,0-3.56-8.59L70,24.64a4.33,4.33,0,0,0,0-6.09l-4.5-4.5a4.33,4.33,0,0,0-6.09,0l-2.59,2.59a31,31,0,0,0-8.59-3.56V9.42a4.32,4.32,0,0,0-4.31-4.3H37.58a4.32,4.32,0,0,0-4.31,4.3v3.66a31,31,0,0,0-8.59,3.56l-2.59-2.59a4.32,4.32,0,0,0-6.08,0l-4.51,4.5a4.33,4.33,0,0,0,0,6.09l2.59,2.59a31,31,0,0,0-3.56,8.59H6.87a4.32,4.32,0,0,0-4.3,4.31v6.36a4.32,4.32,0,0,0,4.3,4.31h3.66a31,31,0,0,0,3.56,8.59L11.5,62a4.32,4.32,0,0,0,0,6.08L16,72.57a4.32,4.32,0,0,0,6.08,0L24.68,70a31,31,0,0,0,8.59,3.56V77.2a4.32,4.32,0,0,0,4.31,4.3h6.36a4.32,4.32,0,0,0,4.31-4.3V73.54A31,31,0,0,0,56.84,70l2.59,2.59a4.33,4.33,0,0,0,6.09,0L70,68.06A4.32,4.32,0,0,0,70,62l-2.59-2.59A31,31,0,0,0,71,50.8h3.66A4.32,4.32,0,0,0,79,46.49Z"/><path class="cls-1" d="M91.59,79.28a14.2,14.2,0,1,1,18.52-7.78A14.21,14.21,0,0,1,91.59,79.28ZM84.92,89.79,89,91.46a3,3,0,0,0,3.89-1.64l1-2.34a21.38,21.38,0,0,0,6.44,0l1,2.33a3,3,0,0,0,3.91,1.6l4.06-1.71a3,3,0,0,0,1.6-3.91l-1-2.33a21.21,21.21,0,0,0,4.54-4.58l2.34,1a3,3,0,0,0,3.89-1.63l1.67-4.09a3,3,0,0,0-1.64-3.89l-2.34-1a21.38,21.38,0,0,0,0-6.44l2.33-1a3,3,0,0,0,1.6-3.9l-1.71-4.07a3,3,0,0,0-3.91-1.59l-2.33,1a21.39,21.39,0,0,0-4.58-4.53l1-2.35A3,3,0,0,0,109,42.47l-4.09-1.66A3,3,0,0,0,101,42.44l-1,2.35a21.38,21.38,0,0,0-6.44,0l-1-2.34a3,3,0,0,0-3.9-1.59L84.68,42.6a3,3,0,0,0-1.59,3.9l1,2.34a21.35,21.35,0,0,0-4.53,4.57l-2.35-.95a3,3,0,0,0-3.89,1.63l-1.66,4.08a3,3,0,0,0,1.63,3.89l2.35,1a21.38,21.38,0,0,0,0,6.44l-2.34,1a3,3,0,0,0-1.59,3.91l1.71,4.06a3,3,0,0,0,3.9,1.6l2.34-1a21.39,21.39,0,0,0,4.57,4.54l-.95,2.34A3,3,0,0,0,84.92,89.79Z"/><path class="cls-1" d="M87.62,27.27a10.7,10.7,0,1,1,15.11.8A10.69,10.69,0,0,1,87.62,27.27Zm-8,4.94,2.22,2.47a2.25,2.25,0,0,0,3.17.17l1.42-1.28a16.17,16.17,0,0,0,4.38,2.09l-.1,1.91a2.25,2.25,0,0,0,2.12,2.36l3.32.17A2.25,2.25,0,0,0,98.54,38l.1-1.91a16.35,16.35,0,0,0,4.58-1.61l1.27,1.42a2.26,2.26,0,0,0,3.18.16l2.47-2.22a2.25,2.25,0,0,0,.16-3.17L109,29.23a16.32,16.32,0,0,0,2.09-4.38L113,25a2.27,2.27,0,0,0,2.37-2.13l.17-3.32a2.25,2.25,0,0,0-2.12-2.36l-1.91-.1a16.18,16.18,0,0,0-1.61-4.57l1.41-1.28A2.25,2.25,0,0,0,111.5,8l-2.22-2.47a2.25,2.25,0,0,0-3.17-.17l-1.42,1.28a15.74,15.74,0,0,0-4.38-2.09l.1-1.91A2.25,2.25,0,0,0,98.29.31L95,.13a2.25,2.25,0,0,0-2.36,2.13l-.1,1.9a16.06,16.06,0,0,0-4.58,1.62L86.66,4.36a2.26,2.26,0,0,0-3.17-.17L81,6.41a2.26,2.26,0,0,0-.17,3.18L82.12,11A16.61,16.61,0,0,0,80,15.38l-1.9-.1a2.26,2.26,0,0,0-2.37,2.13l-.17,3.31a2.24,2.24,0,0,0,2.12,2.36l1.91.11a16,16,0,0,0,1.62,4.57L79.82,29A2.25,2.25,0,0,0,79.65,32.21Z"/><path class="cls-1" d="M61.13,43.44a20.5,20.5,0,1,1-20.5-20.5A20.5,20.5,0,0,1,61.13,43.44Zm17.69,3.18V40.26A4.31,4.31,0,0,0,74.52,36H70.86a31,31,0,0,0-3.56-8.59l2.59-2.59a4.33,4.33,0,0,0,0-6.09l-4.5-4.5a4.33,4.33,0,0,0-6.09,0l-2.59,2.59a31,31,0,0,0-8.59-3.56V9.55a4.31,4.31,0,0,0-4.31-4.3H37.45a4.31,4.31,0,0,0-4.31,4.3v3.66a31.24,31.24,0,0,0-8.59,3.56L22,14.18a4.33,4.33,0,0,0-6.09,0l-4.5,4.5a4.31,4.31,0,0,0,0,6.09L14,27.36A31,31,0,0,0,10.4,36H6.75a4.32,4.32,0,0,0-4.31,4.31v6.36a4.32,4.32,0,0,0,4.31,4.31H10.4A31.24,31.24,0,0,0,14,59.52L11.38,62.1a4.31,4.31,0,0,0,0,6.09l4.5,4.5a4.31,4.31,0,0,0,6.09,0l2.58-2.58a31.24,31.24,0,0,0,8.59,3.56v3.65a4.32,4.32,0,0,0,4.31,4.31h6.36a4.32,4.32,0,0,0,4.31-4.31V73.67a31,31,0,0,0,8.59-3.56l2.59,2.58a4.31,4.31,0,0,0,6.09,0l4.5-4.5a4.33,4.33,0,0,0,0-6.09L67.3,59.52a31.24,31.24,0,0,0,3.56-8.59h3.66A4.31,4.31,0,0,0,78.82,46.62Z"/><path class="cls-1" d="M91.47,79.41A14.2,14.2,0,1,1,110,71.63,14.21,14.21,0,0,1,91.47,79.41ZM84.79,89.92l4.08,1.67A3,3,0,0,0,92.76,90l1-2.34a21.38,21.38,0,0,0,6.44,0l1,2.33a3,3,0,0,0,3.91,1.6l4.06-1.71a3,3,0,0,0,1.6-3.91l-1-2.33A21.63,21.63,0,0,0,114.26,79l2.34,1a3,3,0,0,0,3.89-1.64l1.67-4.08a3,3,0,0,0-1.63-3.89l-2.35-1a21.45,21.45,0,0,0,0-6.45l2.33-1a3,3,0,0,0,1.6-3.9L120.37,54a3,3,0,0,0-3.9-1.59l-2.34,1a21.39,21.39,0,0,0-4.58-4.53l1-2.35a3,3,0,0,0-1.63-3.89l-4.08-1.66a3,3,0,0,0-3.89,1.63l-1,2.34a21.71,21.71,0,0,0-6.44,0l-1-2.34A3,3,0,0,0,88.62,41l-4.06,1.7A3,3,0,0,0,83,46.63l1,2.34a21.35,21.35,0,0,0-4.53,4.57l-2.34-1a3,3,0,0,0-3.89,1.64L71.51,58.3a3,3,0,0,0,1.63,3.89l2.35,1a21.38,21.38,0,0,0,0,6.44l-2.34,1a3,3,0,0,0-1.59,3.9l1.71,4.07a3,3,0,0,0,3.9,1.59l2.34-1a21.44,21.44,0,0,0,4.58,4.54l-1,2.34A3,3,0,0,0,84.79,89.92Z"/><path class="cls-1" d="M87.5,27.4a10.69,10.69,0,1,1,15.1.8A10.69,10.69,0,0,1,87.5,27.4Zm-8,4.94,2.22,2.47a2.25,2.25,0,0,0,3.17.16l1.42-1.27a16.47,16.47,0,0,0,4.38,2.09l-.1,1.91a2.25,2.25,0,0,0,2.12,2.36l3.32.17a2.25,2.25,0,0,0,2.36-2.12l.1-1.91a16.35,16.35,0,0,0,4.58-1.61L104.36,36a2.27,2.27,0,0,0,3.18.16L110,34a2.24,2.24,0,0,0,.16-3.17l-1.27-1.42A16.32,16.32,0,0,0,111,25l1.91.1A2.25,2.25,0,0,0,115.26,23l.17-3.32a2.25,2.25,0,0,0-2.12-2.36l-1.91-.1a16.35,16.35,0,0,0-1.61-4.58l1.42-1.27a2.25,2.25,0,0,0,.16-3.17l-2.22-2.47A2.25,2.25,0,0,0,106,5.52l-1.42,1.27a16.32,16.32,0,0,0-4.38-2.09l.1-1.9A2.24,2.24,0,0,0,98.16.44L94.84.26a2.25,2.25,0,0,0-2.36,2.12l-.1,1.91a15.9,15.9,0,0,0-4.57,1.62L86.53,4.49a2.25,2.25,0,0,0-3.17-.17L80.89,6.54a2.25,2.25,0,0,0-.17,3.17L82,11.13a16.2,16.2,0,0,0-2.1,4.38l-1.9-.1a2.24,2.24,0,0,0-2.36,2.12l-.18,3.32a2.25,2.25,0,0,0,2.13,2.36l1.9.1a16.06,16.06,0,0,0,1.62,4.58l-1.42,1.27A2.26,2.26,0,0,0,79.52,32.34Z"/><path class="cls-1" d="M61,43.57a20.5,20.5,0,1,1-20.5-20.5A20.49,20.49,0,0,1,61,43.57Zm17.69,3.18V40.38a4.31,4.31,0,0,0-4.3-4.3H70.73a30.69,30.69,0,0,0-3.56-8.59l2.59-2.59a4.33,4.33,0,0,0,0-6.09l-4.5-4.5a4.33,4.33,0,0,0-6.09,0L56.58,16.9A30.69,30.69,0,0,0,48,13.34V9.68a4.32,4.32,0,0,0-4.3-4.31H37.32A4.32,4.32,0,0,0,33,9.68v3.66a30.94,30.94,0,0,0-8.59,3.56l-2.58-2.59a4.33,4.33,0,0,0-6.09,0l-4.5,4.5a4.31,4.31,0,0,0,0,6.09l2.58,2.59a31,31,0,0,0-3.56,8.59H6.62a4.32,4.32,0,0,0-4.31,4.3v6.37a4.31,4.31,0,0,0,4.31,4.3h3.65a31.18,31.18,0,0,0,3.56,8.6l-2.58,2.58a4.31,4.31,0,0,0,0,6.09l4.5,4.5a4.31,4.31,0,0,0,6.09,0l2.58-2.58A31.24,31.24,0,0,0,33,73.8v3.65a4.32,4.32,0,0,0,4.31,4.31h6.37A4.32,4.32,0,0,0,48,77.45V73.8a31,31,0,0,0,8.59-3.56l2.59,2.58a4.31,4.31,0,0,0,6.09,0l4.5-4.5a4.33,4.33,0,0,0,0-6.09l-2.59-2.58a30.88,30.88,0,0,0,3.56-8.6h3.66A4.31,4.31,0,0,0,78.69,46.75Z"/><path class="cls-1" d="M91.34,79.53a14.2,14.2,0,1,1,18.51-7.77A14.2,14.2,0,0,1,91.34,79.53ZM84.66,90.05l4.09,1.66a3,3,0,0,0,3.88-1.63l1-2.34a21.71,21.71,0,0,0,6.44,0L101,90a3,3,0,0,0,3.91,1.59l4.06-1.7a3,3,0,0,0,1.6-3.91l-1-2.33a21.63,21.63,0,0,0,4.53-4.58l2.35,1a3,3,0,0,0,3.88-1.64L122,74.35a3,3,0,0,0-1.63-3.89l-2.35-1a21.38,21.38,0,0,0,0-6.44l2.34-1a3,3,0,0,0,1.59-3.9l-1.71-4.07a3,3,0,0,0-3.9-1.59l-2.34,1A21.34,21.34,0,0,0,109.43,49l.95-2.35a3,3,0,0,0-1.63-3.89l-4.08-1.67a3,3,0,0,0-3.89,1.64l-1,2.34a21.71,21.71,0,0,0-6.44,0l-1-2.34a3,3,0,0,0-3.91-1.59l-4.06,1.7a3,3,0,0,0-1.6,3.91l1,2.33a21.63,21.63,0,0,0-4.53,4.58l-2.34-1a3,3,0,0,0-3.89,1.64l-1.67,4.08A3,3,0,0,0,73,62.32l2.35,1a21.38,21.38,0,0,0,0,6.44l-2.33,1a3,3,0,0,0-1.6,3.9l1.71,4.07a3,3,0,0,0,3.9,1.59l2.34-1A21.39,21.39,0,0,0,84,83.81l-1,2.35A3,3,0,0,0,84.66,90.05Z"/><path class="cls-1" d="M87.37,27.53a10.7,10.7,0,1,1,15.1.8A10.7,10.7,0,0,1,87.37,27.53Zm-8,4.94,2.22,2.46a2.26,2.26,0,0,0,3.18.17l1.41-1.27a16.61,16.61,0,0,0,4.38,2.09l-.1,1.9a2.26,2.26,0,0,0,2.13,2.37l3.31.17a2.24,2.24,0,0,0,2.36-2.12l.11-1.91A16.29,16.29,0,0,0,103,34.72l1.28,1.41a2.25,2.25,0,0,0,3.17.17l2.47-2.22a2.25,2.25,0,0,0,.17-3.17l-1.28-1.42a16,16,0,0,0,2.09-4.38l1.91.1a2.25,2.25,0,0,0,2.36-2.12l.18-3.32a2.26,2.26,0,0,0-2.13-2.36l-1.9-.1a16.37,16.37,0,0,0-1.62-4.58l1.42-1.27a2.27,2.27,0,0,0,.17-3.18L109,5.82a2.25,2.25,0,0,0-3.17-.17l-1.42,1.27a16.41,16.41,0,0,0-4.37-2.09l.1-1.9A2.26,2.26,0,0,0,98,.56L94.72.39a2.26,2.26,0,0,0-2.37,2.12l-.1,1.91A16.18,16.18,0,0,0,87.68,6L86.4,4.62a2.25,2.25,0,0,0-3.17-.17L80.76,6.67a2.25,2.25,0,0,0-.17,3.17l1.28,1.42a15.74,15.74,0,0,0-2.09,4.38l-1.91-.1a2.25,2.25,0,0,0-2.36,2.12L75.33,21a2.25,2.25,0,0,0,2.13,2.36l1.9.1A16.06,16.06,0,0,0,81,28l-1.42,1.27A2.27,2.27,0,0,0,79.39,32.47Z"/><path class="cls-1" d="M60.87,43.69A20.5,20.5,0,1,1,40.37,23.2,20.49,20.49,0,0,1,60.87,43.69Zm17.7,3.19V40.51a4.31,4.31,0,0,0-4.31-4.3H70.6A30.4,30.4,0,0,0,67,27.62L69.63,25a4.31,4.31,0,0,0,0-6.09l-4.5-4.5a4.31,4.31,0,0,0-6.09,0L56.45,17a30.4,30.4,0,0,0-8.59-3.56V9.81a4.31,4.31,0,0,0-4.3-4.31H37.19a4.31,4.31,0,0,0-4.3,4.31v3.66A30.4,30.4,0,0,0,24.3,17l-2.59-2.59a4.31,4.31,0,0,0-6.09,0l-4.5,4.5a4.31,4.31,0,0,0,0,6.09l2.59,2.59a30.4,30.4,0,0,0-3.56,8.59H6.49a4.31,4.31,0,0,0-4.31,4.3v6.37a4.31,4.31,0,0,0,4.31,4.3h3.66a30.4,30.4,0,0,0,3.56,8.59l-2.59,2.59a4.31,4.31,0,0,0,0,6.09l4.5,4.5a4.31,4.31,0,0,0,6.09,0l2.59-2.59a30.4,30.4,0,0,0,8.59,3.56v3.66a4.31,4.31,0,0,0,4.3,4.31h6.37a4.31,4.31,0,0,0,4.3-4.31V73.92a30.4,30.4,0,0,0,8.59-3.56L59,73a4.31,4.31,0,0,0,6.09,0l4.5-4.5a4.31,4.31,0,0,0,0-6.09L67,59.77a30.4,30.4,0,0,0,3.56-8.59h3.66A4.31,4.31,0,0,0,78.57,46.88Z"/><path class="cls-1" d="M91.21,79.66a14.2,14.2,0,1,1,18.51-7.77A14.2,14.2,0,0,1,91.21,79.66ZM84.53,90.18l4.09,1.66a3,3,0,0,0,3.89-1.63l.95-2.35a21.38,21.38,0,0,0,6.44,0l1,2.34a3,3,0,0,0,3.9,1.59l4.07-1.71a3,3,0,0,0,1.59-3.9l-1-2.34A21.35,21.35,0,0,0,114,79.24l2.35,1a3,3,0,0,0,3.89-1.63l1.66-4.08a3,3,0,0,0-1.63-3.89l-2.35-1a21.38,21.38,0,0,0,0-6.44l2.34-1a3,3,0,0,0,1.59-3.91l-1.71-4.06a3,3,0,0,0-3.9-1.59l-2.34,1a21.39,21.39,0,0,0-4.57-4.54l1-2.34a3,3,0,0,0-1.63-3.89l-4.08-1.67a3,3,0,0,0-3.89,1.64l-1,2.34a21.38,21.38,0,0,0-6.44,0l-1-2.33a3,3,0,0,0-3.91-1.6L84.3,43a3,3,0,0,0-1.6,3.91l1,2.33a21.44,21.44,0,0,0-4.54,4.58l-2.34-1a3,3,0,0,0-3.89,1.64l-1.67,4.08a3,3,0,0,0,1.64,3.89l2.34.95a21.38,21.38,0,0,0,0,6.44l-2.33,1a3,3,0,0,0-1.6,3.9L73,78.8A3,3,0,0,0,77,80.39l2.33-1a21.39,21.39,0,0,0,4.58,4.53l-1,2.35A3,3,0,0,0,84.53,90.18Z"/><path class="cls-1" d="M87.24,27.65a10.69,10.69,0,1,1,15.1.81A10.69,10.69,0,0,1,87.24,27.65Zm-8,4.94,2.22,2.47a2.26,2.26,0,0,0,3.18.17L86.08,34a16.41,16.41,0,0,0,4.37,2.09l-.1,1.9a2.25,2.25,0,0,0,2.13,2.36l3.31.18a2.26,2.26,0,0,0,2.37-2.12l.1-1.91a16,16,0,0,0,4.57-1.62l1.28,1.42a2.25,2.25,0,0,0,3.17.17l2.47-2.22a2.25,2.25,0,0,0,.17-3.17l-1.28-1.42a15.88,15.88,0,0,0,2.09-4.38l1.91.1A2.25,2.25,0,0,0,115,23.22l.18-3.32a2.25,2.25,0,0,0-2.13-2.36l-1.9-.1a16.06,16.06,0,0,0-1.62-4.58L111,11.59a2.27,2.27,0,0,0,.17-3.18L108.9,5.94a2.27,2.27,0,0,0-3.18-.16L104.3,7.05A16.41,16.41,0,0,0,99.93,5l.1-1.9A2.26,2.26,0,0,0,97.9.69L94.59.52a2.26,2.26,0,0,0-2.37,2.12l-.1,1.91a16.29,16.29,0,0,0-4.57,1.61L86.27,4.74a2.25,2.25,0,0,0-3.17-.16L80.63,6.8A2.25,2.25,0,0,0,80.46,10l1.28,1.42a15.74,15.74,0,0,0-2.09,4.38l-1.91-.1a2.25,2.25,0,0,0-2.36,2.12l-.18,3.32a2.26,2.26,0,0,0,2.13,2.36l1.9.1a16.37,16.37,0,0,0,1.62,4.58l-1.42,1.27A2.25,2.25,0,0,0,79.26,32.59Z"/><path class="cls-1" d="M60.74,43.82A20.5,20.5,0,1,1,40.25,23.33,20.49,20.49,0,0,1,60.74,43.82ZM78.44,47V40.64a4.32,4.32,0,0,0-4.31-4.31H70.48a31.24,31.24,0,0,0-3.56-8.59l2.58-2.58a4.31,4.31,0,0,0,0-6.09L65,14.57a4.31,4.31,0,0,0-6.09,0l-2.58,2.58a31.24,31.24,0,0,0-8.59-3.56V9.94a4.32,4.32,0,0,0-4.31-4.31H37.06a4.32,4.32,0,0,0-4.3,4.31v3.65a31,31,0,0,0-8.59,3.56l-2.59-2.58a4.31,4.31,0,0,0-6.09,0L11,19.07a4.33,4.33,0,0,0,0,6.09l2.59,2.58A30.94,30.94,0,0,0,10,36.33H6.36a4.32,4.32,0,0,0-4.31,4.31V47a4.32,4.32,0,0,0,4.31,4.3H10a30.69,30.69,0,0,0,3.56,8.59L11,62.49a4.33,4.33,0,0,0,0,6.09l4.5,4.5a4.33,4.33,0,0,0,6.09,0l2.59-2.59a30.69,30.69,0,0,0,8.59,3.56v3.66a4.31,4.31,0,0,0,4.3,4.3h6.37a4.31,4.31,0,0,0,4.31-4.3V74.05a30.94,30.94,0,0,0,8.59-3.56l2.58,2.59a4.33,4.33,0,0,0,6.09,0l4.5-4.5a4.31,4.31,0,0,0,0-6.09L66.92,59.9a31,31,0,0,0,3.56-8.59h3.65A4.32,4.32,0,0,0,78.44,47Z"/><path class="cls-1" d="M91.08,79.79A14.2,14.2,0,1,1,109.59,72,14.2,14.2,0,0,1,91.08,79.79ZM84.41,90.3,88.49,92a3,3,0,0,0,3.89-1.63l1-2.35a21.45,21.45,0,0,0,6.45,0l1,2.34a3,3,0,0,0,3.9,1.59l4.07-1.71a3,3,0,0,0,1.59-3.9l-1-2.34a21.58,21.58,0,0,0,4.53-4.57l2.35.95a3,3,0,0,0,3.89-1.63l1.66-4.08a3,3,0,0,0-1.63-3.89l-2.34-1a21.71,21.71,0,0,0,0-6.44l2.34-1a3,3,0,0,0,1.59-3.91L120,54.37a3,3,0,0,0-3.91-1.6l-2.33,1a21.63,21.63,0,0,0-4.58-4.53l1-2.34A3,3,0,0,0,108.49,43l-4.08-1.67A3,3,0,0,0,100.52,43l-1,2.34a21.38,21.38,0,0,0-6.44,0l-1-2.33a3,3,0,0,0-3.9-1.6l-4.07,1.71A3,3,0,0,0,82.58,47l1,2.34A21.44,21.44,0,0,0,79,53.93l-2.34-1a3,3,0,0,0-3.89,1.63l-1.67,4.09a3,3,0,0,0,1.64,3.88l2.34,1a21.06,21.06,0,0,0,0,6.44L72.8,71a3,3,0,0,0-1.6,3.91l1.71,4.06a3,3,0,0,0,3.91,1.6l2.33-1a21.63,21.63,0,0,0,4.58,4.53l-1,2.35A3,3,0,0,0,84.41,90.3Z"/><path class="cls-1" d="M87.11,27.78a10.69,10.69,0,1,1,15.1.8A10.69,10.69,0,0,1,87.11,27.78Zm-8,4.94,2.22,2.47a2.25,2.25,0,0,0,3.17.17L86,34.08a15.74,15.74,0,0,0,4.38,2.09l-.11,1.91a2.26,2.26,0,0,0,2.13,2.36l3.32.18A2.26,2.26,0,0,0,98,38.49l.1-1.9A15.9,15.9,0,0,0,102.7,35L104,36.39a2.25,2.25,0,0,0,3.17.17l2.47-2.22a2.26,2.26,0,0,0,.17-3.18l-1.28-1.41a16,16,0,0,0,2.09-4.38l1.91.1a2.25,2.25,0,0,0,2.36-2.13l.18-3.31a2.25,2.25,0,0,0-2.13-2.36l-1.9-.11A16,16,0,0,0,109.4,13l1.42-1.28A2.25,2.25,0,0,0,111,8.54l-2.22-2.47a2.27,2.27,0,0,0-3.18-.17l-1.41,1.28A16.31,16.31,0,0,0,99.8,5.09l.1-1.91A2.26,2.26,0,0,0,97.77.82L94.46.65A2.24,2.24,0,0,0,92.1,2.77L92,4.68a16.29,16.29,0,0,0-4.57,1.61L86.14,4.87A2.24,2.24,0,0,0,83,4.71L80.5,6.93a2.25,2.25,0,0,0-.17,3.17l1.28,1.42a16,16,0,0,0-2.09,4.38l-1.91-.11a2.27,2.27,0,0,0-2.36,2.13l-.17,3.32A2.25,2.25,0,0,0,77.2,23.6l1.91.1a16.18,16.18,0,0,0,1.61,4.57L79.3,29.55A2.24,2.24,0,0,0,79.14,32.72Z"/><path class="cls-1" d="M60.62,44a20.5,20.5,0,1,1-20.5-20.5A20.5,20.5,0,0,1,60.62,44Zm17.69,3.18V40.77A4.32,4.32,0,0,0,74,36.46H70.35a31.24,31.24,0,0,0-3.56-8.59l2.58-2.58a4.31,4.31,0,0,0,0-6.09l-4.5-4.5a4.31,4.31,0,0,0-6.09,0L56.2,17.28a31.24,31.24,0,0,0-8.59-3.56V10.07A4.32,4.32,0,0,0,43.3,5.76H36.94a4.32,4.32,0,0,0-4.31,4.31v3.65A31,31,0,0,0,24,17.28L21.45,14.7a4.31,4.31,0,0,0-6.09,0l-4.5,4.5a4.33,4.33,0,0,0,0,6.09l2.59,2.58a31.24,31.24,0,0,0-3.56,8.59H6.23a4.31,4.31,0,0,0-4.3,4.31v6.36a4.31,4.31,0,0,0,4.3,4.31H9.89A31,31,0,0,0,13.45,60l-2.59,2.59a4.33,4.33,0,0,0,0,6.09l4.5,4.5a4.33,4.33,0,0,0,6.09,0L24,70.62a31,31,0,0,0,8.59,3.56v3.66a4.31,4.31,0,0,0,4.31,4.3H43.3a4.31,4.31,0,0,0,4.31-4.3V74.18a31.24,31.24,0,0,0,8.59-3.56l2.58,2.59a4.33,4.33,0,0,0,6.09,0l4.5-4.5a4.31,4.31,0,0,0,0-6.09L66.79,60a31,31,0,0,0,3.56-8.59H74A4.32,4.32,0,0,0,78.31,47.13Z"/><path class="cls-1" d="M91,79.92a14.2,14.2,0,1,1,18.52-7.78A14.19,14.19,0,0,1,91,79.92ZM84.28,90.43l4.08,1.67a3,3,0,0,0,3.89-1.63l1-2.35a21.38,21.38,0,0,0,6.44,0l1,2.33a3,3,0,0,0,3.9,1.6l4.07-1.71a3,3,0,0,0,1.59-3.9l-1-2.34a21.44,21.44,0,0,0,4.54-4.58l2.34,1A3,3,0,0,0,120,78.82l1.67-4.08A3,3,0,0,0,120,70.85l-2.34-1a21.06,21.06,0,0,0,0-6.44l2.34-1a3,3,0,0,0,1.6-3.91l-1.71-4.06A3,3,0,0,0,116,52.9l-2.33,1A21.63,21.63,0,0,0,109,49.35L110,47a3,3,0,0,0-1.64-3.89l-4.08-1.67a3,3,0,0,0-3.89,1.63l-1,2.35a21.45,21.45,0,0,0-6.45,0l-1-2.33a3,3,0,0,0-3.9-1.6L84,43.24a3,3,0,0,0-1.59,3.9l1,2.34a21.39,21.39,0,0,0-4.53,4.58l-2.35-1a3,3,0,0,0-3.89,1.63L71,58.81a3,3,0,0,0,1.63,3.89l2.34,1a21.71,21.71,0,0,0,0,6.44l-2.34,1A3,3,0,0,0,71.08,75l1.7,4.06a3,3,0,0,0,3.91,1.6l2.33-1A21.63,21.63,0,0,0,83.6,84.2l-1,2.34A3,3,0,0,0,84.28,90.43Z"/><path class="cls-1" d="M87,27.91a10.7,10.7,0,1,1,15.1.8A10.69,10.69,0,0,1,87,27.91Zm-8,4.94,2.22,2.47a2.25,2.25,0,0,0,3.17.17l1.42-1.28A15.74,15.74,0,0,0,90.2,36.3l-.1,1.91a2.25,2.25,0,0,0,2.12,2.36l3.32.18a2.26,2.26,0,0,0,2.36-2.13l.1-1.9a16.06,16.06,0,0,0,4.58-1.62l1.27,1.42a2.25,2.25,0,0,0,3.17.17l2.47-2.22a2.26,2.26,0,0,0,.17-3.18l-1.27-1.41a16.61,16.61,0,0,0,2.09-4.38l1.9.1a2.25,2.25,0,0,0,2.36-2.13l.18-3.31a2.26,2.26,0,0,0-2.12-2.37l-1.91-.1a16,16,0,0,0-1.62-4.57l1.42-1.28a2.25,2.25,0,0,0,.17-3.17L108.64,6.2A2.25,2.25,0,0,0,105.47,6l-1.42,1.28a15.88,15.88,0,0,0-4.38-2.09l.1-1.91A2.25,2.25,0,0,0,97.65,1L94.33.77A2.25,2.25,0,0,0,92,2.9l-.1,1.9a16.37,16.37,0,0,0-4.58,1.62L86,5a2.27,2.27,0,0,0-3.18-.17L80.37,7.05a2.27,2.27,0,0,0-.16,3.18l1.27,1.42A16.41,16.41,0,0,0,79.39,16l-1.91-.1a2.26,2.26,0,0,0-2.36,2.13L75,21.36a2.26,2.26,0,0,0,2.12,2.37l1.91.1a16.29,16.29,0,0,0,1.61,4.57l-1.42,1.28A2.25,2.25,0,0,0,79,32.85Z"/><path class="cls-1" d="M60.49,44.08A20.5,20.5,0,1,1,40,23.58,20.5,20.5,0,0,1,60.49,44.08Zm17.69,3.18V40.9a4.32,4.32,0,0,0-4.3-4.31H70.22A31,31,0,0,0,66.66,28l2.59-2.59a4.32,4.32,0,0,0,0-6.08l-4.51-4.51a4.32,4.32,0,0,0-6.08,0l-2.59,2.59a31,31,0,0,0-8.59-3.56V10.19a4.32,4.32,0,0,0-4.31-4.3H36.81a4.32,4.32,0,0,0-4.31,4.3v3.66a31,31,0,0,0-8.59,3.56l-2.59-2.59a4.33,4.33,0,0,0-6.09,0l-4.5,4.51a4.32,4.32,0,0,0,0,6.08L13.32,28a31,31,0,0,0-3.56,8.59H6.1A4.32,4.32,0,0,0,1.8,40.9v6.36a4.32,4.32,0,0,0,4.3,4.31H9.76a31,31,0,0,0,3.56,8.59l-2.59,2.59a4.33,4.33,0,0,0,0,6.09l4.5,4.5a4.33,4.33,0,0,0,6.09,0l2.59-2.59a31,31,0,0,0,8.59,3.56V78a4.32,4.32,0,0,0,4.31,4.3h6.36A4.32,4.32,0,0,0,47.48,78V74.31a31,31,0,0,0,8.59-3.56l2.59,2.59a4.32,4.32,0,0,0,6.08,0l4.51-4.5a4.33,4.33,0,0,0,0-6.09l-2.59-2.59a31,31,0,0,0,3.56-8.59h3.66A4.32,4.32,0,0,0,78.18,47.26Z"/><path class="cls-1" d="M90.82,80.05a14.2,14.2,0,1,1,18.52-7.78A14.19,14.19,0,0,1,90.82,80.05ZM84.15,90.56l4.08,1.67a3,3,0,0,0,3.89-1.64l1-2.34a21.38,21.38,0,0,0,6.44,0l1,2.33a3,3,0,0,0,3.91,1.6l4.06-1.71a3,3,0,0,0,1.6-3.9l-1-2.34a21.44,21.44,0,0,0,4.54-4.58l2.34,1A3,3,0,0,0,119.85,79l1.67-4.09A3,3,0,0,0,119.88,71l-2.34-1a21.38,21.38,0,0,0,0-6.44l2.33-1a3,3,0,0,0,1.6-3.91l-1.71-4.06a3,3,0,0,0-3.91-1.6l-2.33,1a21.39,21.39,0,0,0-4.58-4.53l1-2.35a3,3,0,0,0-1.63-3.88l-4.09-1.67a3,3,0,0,0-3.89,1.63l-1,2.35a21.38,21.38,0,0,0-6.44,0l-1-2.34A3,3,0,0,0,88,41.66l-4.07,1.71a3,3,0,0,0-1.59,3.9l1,2.34a21.58,21.58,0,0,0-4.53,4.57l-2.35-1a3,3,0,0,0-3.89,1.63l-1.66,4.08a3,3,0,0,0,1.63,3.89l2.35,1a21.38,21.38,0,0,0,0,6.44l-2.34,1A3,3,0,0,0,71,75.12l1.71,4.06a3,3,0,0,0,3.9,1.6l2.34-1a21.35,21.35,0,0,0,4.57,4.53l-1,2.34A3,3,0,0,0,84.15,90.56Z"/><path class="cls-1" d="M86.85,28a10.7,10.7,0,1,1,15.11.8A10.69,10.69,0,0,1,86.85,28Zm-8,4.94,2.22,2.47a2.25,2.25,0,0,0,3.17.17l1.42-1.28a15.74,15.74,0,0,0,4.38,2.09L90,38.34a2.25,2.25,0,0,0,2.12,2.36l3.32.18a2.26,2.26,0,0,0,2.36-2.13l.1-1.9a16.37,16.37,0,0,0,4.58-1.62l1.27,1.42a2.27,2.27,0,0,0,3.18.17l2.46-2.23a2.25,2.25,0,0,0,.17-3.17L108.26,30a16.41,16.41,0,0,0,2.09-4.37l1.9.1a2.26,2.26,0,0,0,2.37-2.13l.17-3.31a2.26,2.26,0,0,0-2.12-2.37l-1.91-.1a16.18,16.18,0,0,0-1.61-4.57L110.56,12a2.25,2.25,0,0,0,.17-3.17l-2.22-2.47a2.25,2.25,0,0,0-3.17-.17l-1.42,1.28a15.74,15.74,0,0,0-4.38-2.09l.1-1.91a2.25,2.25,0,0,0-2.12-2.36L94.2.9A2.25,2.25,0,0,0,91.84,3l-.1,1.9a16.06,16.06,0,0,0-4.58,1.62L85.89,5.13A2.27,2.27,0,0,0,82.71,5L80.25,7.18a2.26,2.26,0,0,0-.17,3.18l1.27,1.41a16.61,16.61,0,0,0-2.09,4.38l-1.9-.1A2.26,2.26,0,0,0,75,18.18l-.17,3.31a2.24,2.24,0,0,0,2.12,2.36l1.91.11a16.29,16.29,0,0,0,1.61,4.57l-1.41,1.28A2.25,2.25,0,0,0,78.88,33Z"/><path class="cls-1" d="M60.36,44.21a20.5,20.5,0,1,1-20.5-20.5A20.5,20.5,0,0,1,60.36,44.21Zm17.69,3.18V41a4.31,4.31,0,0,0-4.3-4.31H70.09a31,31,0,0,0-3.56-8.59l2.59-2.59a4.33,4.33,0,0,0,0-6.09L64.62,15a4.33,4.33,0,0,0-6.09,0l-2.59,2.59A31,31,0,0,0,47.35,14V10.32A4.31,4.31,0,0,0,43,6H36.68a4.31,4.31,0,0,0-4.31,4.3V14a31.12,31.12,0,0,0-8.59,3.56L21.2,15a4.33,4.33,0,0,0-6.09,0l-4.5,4.5a4.31,4.31,0,0,0,0,6.09l2.58,2.59a31,31,0,0,0-3.56,8.59H6A4.32,4.32,0,0,0,1.67,41v6.36A4.32,4.32,0,0,0,6,51.7H9.63a31.24,31.24,0,0,0,3.56,8.59l-2.58,2.58a4.31,4.31,0,0,0,0,6.09l4.5,4.5a4.31,4.31,0,0,0,6.09,0l2.58-2.58a31.12,31.12,0,0,0,8.59,3.56v3.65a4.32,4.32,0,0,0,4.31,4.31H43a4.32,4.32,0,0,0,4.31-4.31V74.44a31,31,0,0,0,8.59-3.56l2.59,2.58a4.31,4.31,0,0,0,6.09,0l4.5-4.5a4.33,4.33,0,0,0,0-6.09l-2.59-2.58a31.24,31.24,0,0,0,3.56-8.59h3.66A4.31,4.31,0,0,0,78.05,47.39Z"/><path class="cls-1" d="M90.7,80.18a14.2,14.2,0,1,1,18.51-7.78A14.21,14.21,0,0,1,90.7,80.18ZM84,90.69l4.08,1.67A3,3,0,0,0,92,90.72l1-2.34a21.38,21.38,0,0,0,6.44,0l1,2.33a3,3,0,0,0,3.91,1.6l4.06-1.71a3,3,0,0,0,1.6-3.91l-1-2.33a21.39,21.39,0,0,0,4.53-4.58l2.34,1a3,3,0,0,0,3.89-1.64L121.39,75a3,3,0,0,0-1.63-3.89l-2.35-.95a21.45,21.45,0,0,0,0-6.45l2.33-1a3,3,0,0,0,1.6-3.9l-1.71-4.07a3,3,0,0,0-3.9-1.59l-2.34,1a21.39,21.39,0,0,0-4.58-4.53l1-2.35a3,3,0,0,0-1.63-3.89L104,41.71a3,3,0,0,0-3.89,1.63l-1,2.35a21.38,21.38,0,0,0-6.44,0l-1-2.34a3,3,0,0,0-3.91-1.59l-4.06,1.7a3,3,0,0,0-1.6,3.91l1,2.34a21.35,21.35,0,0,0-4.53,4.57l-2.35-1A3,3,0,0,0,72.41,55l-1.67,4.08A3,3,0,0,0,72.37,63l2.35,1a21.38,21.38,0,0,0,0,6.44l-2.34,1a3,3,0,0,0-1.59,3.9l1.71,4.07a3,3,0,0,0,3.9,1.59l2.34-1a21.62,21.62,0,0,0,4.57,4.54l-1,2.34A3,3,0,0,0,84,90.69Z"/><path class="cls-1" d="M86.72,28.17a10.7,10.7,0,1,1,15.11.8A10.68,10.68,0,0,1,86.72,28.17Zm-8,4.94L81,35.58a2.24,2.24,0,0,0,3.17.16l1.42-1.27a16.17,16.17,0,0,0,4.38,2.09l-.1,1.91A2.25,2.25,0,0,0,92,40.83l3.32.17a2.25,2.25,0,0,0,2.36-2.12l.1-1.91a16.35,16.35,0,0,0,4.58-1.61l1.27,1.42a2.27,2.27,0,0,0,3.18.16l2.47-2.22a2.25,2.25,0,0,0,.16-3.17l-1.27-1.42a16.32,16.32,0,0,0,2.09-4.38l1.9.1a2.26,2.26,0,0,0,2.37-2.12l.17-3.32a2.25,2.25,0,0,0-2.12-2.36l-1.91-.1A16.18,16.18,0,0,0,109,13.38l1.42-1.28a2.25,2.25,0,0,0,.16-3.17l-2.22-2.47a2.25,2.25,0,0,0-3.17-.17l-1.42,1.28a16.06,16.06,0,0,0-4.38-2.1l.1-1.9a2.24,2.24,0,0,0-2.12-2.36L94.07,1a2.26,2.26,0,0,0-2.36,2.13l-.1,1.9A16.06,16.06,0,0,0,87,6.68L85.76,5.26a2.25,2.25,0,0,0-3.17-.17L80.12,7.31A2.25,2.25,0,0,0,80,10.48l1.27,1.42a16.47,16.47,0,0,0-2.09,4.38l-1.9-.1a2.24,2.24,0,0,0-2.36,2.12l-.18,3.32A2.25,2.25,0,0,0,76.81,24l1.91.1a16.06,16.06,0,0,0,1.62,4.58l-1.42,1.27A2.26,2.26,0,0,0,78.75,33.11Z"/><path class="cls-1" d="M60.23,44.34a20.5,20.5,0,1,1-20.5-20.5A20.49,20.49,0,0,1,60.23,44.34Zm17.69,3.18V41.15a4.31,4.31,0,0,0-4.3-4.3H70a31,31,0,0,0-3.56-8.59L69,25.67a4.33,4.33,0,0,0,0-6.09l-4.5-4.5a4.33,4.33,0,0,0-6.09,0l-2.59,2.59a31,31,0,0,0-8.59-3.56V10.45a4.31,4.31,0,0,0-4.3-4.3H36.55a4.31,4.31,0,0,0-4.31,4.3v3.66a31.24,31.24,0,0,0-8.59,3.56l-2.58-2.59a4.33,4.33,0,0,0-6.09,0l-4.5,4.5a4.31,4.31,0,0,0,0,6.09l2.58,2.59A31,31,0,0,0,9.5,36.85H5.85a4.32,4.32,0,0,0-4.31,4.3v6.37a4.32,4.32,0,0,0,4.31,4.31H9.5a31.24,31.24,0,0,0,3.56,8.59L10.48,63a4.31,4.31,0,0,0,0,6.09l4.5,4.5a4.31,4.31,0,0,0,6.09,0L23.65,71a31.24,31.24,0,0,0,8.59,3.56v3.65a4.32,4.32,0,0,0,4.31,4.31h6.37a4.32,4.32,0,0,0,4.3-4.31V74.57A31,31,0,0,0,55.81,71l2.59,2.58a4.31,4.31,0,0,0,6.09,0l4.5-4.5A4.33,4.33,0,0,0,69,63L66.4,60.42A31.24,31.24,0,0,0,70,51.83h3.66A4.31,4.31,0,0,0,77.92,47.52Z"/><path class="cls-1" d="M90.57,80.3a14.19,14.19,0,1,1,18.51-7.77A14.2,14.2,0,0,1,90.57,80.3ZM83.89,90.82,88,92.49a3,3,0,0,0,3.89-1.64l1-2.34a21.71,21.71,0,0,0,6.44,0l1,2.34a3,3,0,0,0,3.91,1.59l4.06-1.7a3,3,0,0,0,1.6-3.91l-1-2.33a21.63,21.63,0,0,0,4.53-4.58l2.34,1a3,3,0,0,0,3.89-1.64l1.67-4.08a3,3,0,0,0-1.63-3.89l-2.35-1a21.38,21.38,0,0,0,0-6.44l2.34-1a3,3,0,0,0,1.59-3.9l-1.71-4.07a3,3,0,0,0-3.9-1.59l-2.34,1a21.39,21.39,0,0,0-4.58-4.53l1-2.35A3,3,0,0,0,108,43.5l-4.08-1.66A3,3,0,0,0,100,43.47l-1,2.34a21.71,21.71,0,0,0-6.44,0l-1-2.34a3,3,0,0,0-3.91-1.59l-4.06,1.7a3,3,0,0,0-1.6,3.91l1,2.33a21.63,21.63,0,0,0-4.53,4.58l-2.34-1a3,3,0,0,0-3.89,1.64L70.61,59.2a3,3,0,0,0,1.63,3.89l2.35,1a21.38,21.38,0,0,0,0,6.44l-2.33,1a3,3,0,0,0-1.6,3.9l1.71,4.07A3,3,0,0,0,76.3,81l2.34-1a21.17,21.17,0,0,0,4.58,4.53l-1,2.35A3,3,0,0,0,83.89,90.82Z"/><path class="cls-1" d="M86.6,28.3a10.7,10.7,0,1,1,15.1.8A10.69,10.69,0,0,1,86.6,28.3Zm-8,4.94,2.22,2.47a2.25,2.25,0,0,0,3.17.16l1.42-1.27a16.61,16.61,0,0,0,4.38,2.09l-.1,1.9A2.26,2.26,0,0,0,91.84,41l3.31.17A2.24,2.24,0,0,0,97.51,39l.11-1.91a16.29,16.29,0,0,0,4.57-1.61l1.28,1.41a2.25,2.25,0,0,0,3.17.17l2.47-2.22a2.25,2.25,0,0,0,.17-3.17L108,30.26a16,16,0,0,0,2.09-4.38L112,26a2.25,2.25,0,0,0,2.36-2.12l.17-3.32a2.25,2.25,0,0,0-2.12-2.36l-1.91-.1a16.35,16.35,0,0,0-1.61-4.58l1.42-1.27a2.25,2.25,0,0,0,.16-3.17l-2.22-2.47a2.25,2.25,0,0,0-3.17-.17l-1.42,1.27A16.32,16.32,0,0,0,99.28,5.6l.11-1.9a2.27,2.27,0,0,0-2.13-2.37l-3.32-.17a2.25,2.25,0,0,0-2.36,2.12l-.1,1.91a15.9,15.9,0,0,0-4.57,1.62L85.63,5.39a2.25,2.25,0,0,0-3.17-.17L80,7.44a2.25,2.25,0,0,0-.17,3.17L81.1,12A15.88,15.88,0,0,0,79,16.41l-1.91-.1a2.25,2.25,0,0,0-2.36,2.12l-.18,3.32a2.25,2.25,0,0,0,2.13,2.36l1.9.1a16.06,16.06,0,0,0,1.62,4.58l-1.42,1.27A2.27,2.27,0,0,0,78.62,33.24Z"/><path class="cls-1" d="M60.1,44.47A20.5,20.5,0,1,1,39.6,24,20.49,20.49,0,0,1,60.1,44.47Zm17.7,3.18V41.28A4.31,4.31,0,0,0,73.49,37H69.83a30.4,30.4,0,0,0-3.56-8.59l2.59-2.59a4.33,4.33,0,0,0,0-6.09l-4.5-4.5a4.31,4.31,0,0,0-6.09,0L55.68,17.8a30.4,30.4,0,0,0-8.59-3.56V10.58a4.31,4.31,0,0,0-4.3-4.31H36.42a4.31,4.31,0,0,0-4.3,4.31v3.66a30.58,30.58,0,0,0-8.6,3.56l-2.58-2.59a4.31,4.31,0,0,0-6.09,0l-4.5,4.5a4.31,4.31,0,0,0,0,6.09l2.58,2.59A31,31,0,0,0,9.37,37H5.72a4.31,4.31,0,0,0-4.31,4.3v6.37A4.31,4.31,0,0,0,5.72,52H9.37a31,31,0,0,0,3.56,8.59l-2.58,2.59a4.31,4.31,0,0,0,0,6.09l4.5,4.5a4.31,4.31,0,0,0,6.09,0l2.58-2.58a30.85,30.85,0,0,0,8.6,3.55v3.66a4.31,4.31,0,0,0,4.3,4.31h6.37a4.31,4.31,0,0,0,4.3-4.31V74.69a30.67,30.67,0,0,0,8.59-3.55l2.59,2.58a4.31,4.31,0,0,0,6.09,0l4.5-4.5a4.33,4.33,0,0,0,0-6.09l-2.59-2.59A30.4,30.4,0,0,0,69.83,52h3.66A4.31,4.31,0,0,0,77.8,47.65Z"/><path class="cls-1" d="M90.44,80.43A14.2,14.2,0,1,1,109,72.66,14.2,14.2,0,0,1,90.44,80.43ZM83.76,91l4.09,1.66A3,3,0,0,0,91.74,91l1-2.34a21.71,21.71,0,0,0,6.44,0l1,2.34a3,3,0,0,0,3.9,1.59l4.07-1.7a3,3,0,0,0,1.59-3.91l-1-2.34A21.35,21.35,0,0,0,113.23,80l2.35,1a3,3,0,0,0,3.89-1.64l1.66-4.08a3,3,0,0,0-1.63-3.89l-2.35-1a21.38,21.38,0,0,0,0-6.44l2.34-1a3,3,0,0,0,1.59-3.9L119.34,55a3,3,0,0,0-3.9-1.59l-2.34,1a21.39,21.39,0,0,0-4.57-4.54l1-2.34a3,3,0,0,0-1.63-3.89L103.77,42a3,3,0,0,0-3.89,1.64l-1,2.34a21.38,21.38,0,0,0-6.44,0l-1-2.33A3,3,0,0,0,87.59,42l-4.06,1.71a3,3,0,0,0-1.6,3.91l1,2.33a21.21,21.21,0,0,0-4.54,4.58l-2.34-1a3,3,0,0,0-3.89,1.64l-1.67,4.08a3,3,0,0,0,1.64,3.89l2.34,1a21.45,21.45,0,0,0,0,6.45l-2.33,1a3,3,0,0,0-1.6,3.9l1.71,4.07a3,3,0,0,0,3.91,1.59l2.33-1a21.39,21.39,0,0,0,4.58,4.53l-1,2.35A3,3,0,0,0,83.76,91Z"/><path class="cls-1" d="M86.47,28.43a10.7,10.7,0,1,1,15.1.8A10.7,10.7,0,0,1,86.47,28.43Zm-8,4.93,2.22,2.47a2.26,2.26,0,0,0,3.18.17l1.41-1.27a16.61,16.61,0,0,0,4.38,2.09l-.1,1.9a2.25,2.25,0,0,0,2.13,2.36l3.31.18a2.26,2.26,0,0,0,2.37-2.12l.1-1.91a16,16,0,0,0,4.57-1.62L103.34,37a2.25,2.25,0,0,0,3.17.17L109,35a2.25,2.25,0,0,0,.17-3.17l-1.28-1.42A15.88,15.88,0,0,0,110,26l1.91.1A2.25,2.25,0,0,0,114.23,24l.18-3.32a2.25,2.25,0,0,0-2.13-2.36l-1.9-.1a16.37,16.37,0,0,0-1.62-4.58l1.42-1.27a2.27,2.27,0,0,0,.17-3.18l-2.22-2.47A2.27,2.27,0,0,0,105,6.55l-1.42,1.27a16.41,16.41,0,0,0-4.37-2.09l.1-1.9a2.26,2.26,0,0,0-2.13-2.37l-3.31-.17a2.26,2.26,0,0,0-2.37,2.12l-.1,1.91a16.29,16.29,0,0,0-4.57,1.61L85.5,5.52a2.25,2.25,0,0,0-3.17-.17L79.86,7.57a2.25,2.25,0,0,0-.17,3.17L81,12.16a15.74,15.74,0,0,0-2.09,4.38L77,16.44a2.25,2.25,0,0,0-2.36,2.12l-.18,3.32a2.26,2.26,0,0,0,2.13,2.36l1.9.1a16.06,16.06,0,0,0,1.62,4.58l-1.42,1.27A2.26,2.26,0,0,0,78.49,33.36Z"/><path class="cls-1" d="M60,44.59A20.5,20.5,0,1,1,39.48,24.1,20.49,20.49,0,0,1,60,44.59Zm17.7,3.19V41.41a4.31,4.31,0,0,0-4.31-4.3H69.71a31.18,31.18,0,0,0-3.56-8.6l2.58-2.58a4.31,4.31,0,0,0,0-6.09l-4.5-4.5a4.31,4.31,0,0,0-6.09,0l-2.58,2.58A31.18,31.18,0,0,0,47,14.36V10.71a4.31,4.31,0,0,0-4.3-4.31H36.29A4.32,4.32,0,0,0,32,10.71v3.65a31,31,0,0,0-8.59,3.56l-2.59-2.58a4.31,4.31,0,0,0-6.09,0l-4.5,4.5a4.33,4.33,0,0,0,0,6.09l2.59,2.58a30.58,30.58,0,0,0-3.56,8.6H5.59a4.31,4.31,0,0,0-4.31,4.3v6.37a4.32,4.32,0,0,0,4.31,4.3H9.25a30.4,30.4,0,0,0,3.56,8.59l-2.59,2.59a4.33,4.33,0,0,0,0,6.09l4.5,4.5a4.33,4.33,0,0,0,6.09,0l2.59-2.59A30.4,30.4,0,0,0,32,74.82v3.66a4.32,4.32,0,0,0,4.3,4.31h6.37A4.31,4.31,0,0,0,47,78.48V74.82a30.58,30.58,0,0,0,8.6-3.56l2.58,2.59a4.33,4.33,0,0,0,6.09,0l4.5-4.5a4.31,4.31,0,0,0,0-6.09l-2.58-2.59a31,31,0,0,0,3.56-8.59h3.65A4.32,4.32,0,0,0,77.67,47.78Z"/><path class="cls-1" d="M90.31,80.56a14.2,14.2,0,1,1,18.51-7.77A14.2,14.2,0,0,1,90.31,80.56ZM83.64,91.08l4.08,1.66a3,3,0,0,0,3.89-1.63l1-2.35a21.45,21.45,0,0,0,6.45,0l1,2.34a3,3,0,0,0,3.9,1.59L108,91a3,3,0,0,0,1.59-3.9l-1-2.34a21.35,21.35,0,0,0,4.53-4.57l2.35,1a3,3,0,0,0,3.89-1.63L121,75.38a3,3,0,0,0-1.63-3.89l-2.34-1a21.71,21.71,0,0,0,0-6.44l2.34-1a3,3,0,0,0,1.59-3.91l-1.7-4.06a3,3,0,0,0-3.91-1.6l-2.34,1A21.16,21.16,0,0,0,108.4,50l1-2.34a3,3,0,0,0-1.64-3.89l-4.08-1.67a3,3,0,0,0-3.89,1.64l-1,2.34a21.38,21.38,0,0,0-6.44,0l-1-2.33a3,3,0,0,0-3.9-1.6L83.4,43.88a3,3,0,0,0-1.59,3.91l1,2.33a21.44,21.44,0,0,0-4.54,4.58l-2.34-1A3,3,0,0,0,72,55.37l-1.67,4.09A3,3,0,0,0,72,63.34l2.34,1a21.38,21.38,0,0,0,0,6.44l-2.33,1a3,3,0,0,0-1.6,3.9l1.71,4.07a3,3,0,0,0,3.91,1.59l2.33-1A21.63,21.63,0,0,0,83,84.84l-1,2.35A3,3,0,0,0,83.64,91.08Z"/><path class="cls-1" d="M86.34,28.55a10.69,10.69,0,1,1,15.1.8A10.69,10.69,0,0,1,86.34,28.55Zm-8,4.94L80.59,36a2.25,2.25,0,0,0,3.17.17l1.42-1.28A16.14,16.14,0,0,0,89.55,37l-.1,1.9a2.25,2.25,0,0,0,2.13,2.36l3.31.18a2.26,2.26,0,0,0,2.37-2.13l.1-1.9a15.9,15.9,0,0,0,4.57-1.62l1.28,1.42a2.25,2.25,0,0,0,3.17.17l2.47-2.22a2.25,2.25,0,0,0,.17-3.17l-1.28-1.42a15.88,15.88,0,0,0,2.09-4.38l1.91.1a2.25,2.25,0,0,0,2.36-2.12l.18-3.32a2.25,2.25,0,0,0-2.13-2.36l-1.9-.1a16.06,16.06,0,0,0-1.62-4.58l1.42-1.27a2.27,2.27,0,0,0,.17-3.18L108,6.84a2.27,2.27,0,0,0-3.18-.17L103.41,8A16.31,16.31,0,0,0,99,5.86L99.13,4A2.26,2.26,0,0,0,97,1.59l-3.31-.17a2.24,2.24,0,0,0-2.36,2.12l-.11,1.91a16.29,16.29,0,0,0-4.57,1.61L85.37,5.64a2.25,2.25,0,0,0-3.17-.16L79.73,7.7a2.25,2.25,0,0,0-.17,3.17l1.28,1.42a15.74,15.74,0,0,0-2.09,4.38l-1.91-.1a2.25,2.25,0,0,0-2.36,2.12L74.3,22a2.27,2.27,0,0,0,2.13,2.36l1.9.1A16.2,16.2,0,0,0,80,29l-1.42,1.28A2.25,2.25,0,0,0,78.36,33.49Z"/><path class="cls-1" d="M59.85,44.72a20.5,20.5,0,1,1-20.5-20.5A20.5,20.5,0,0,1,59.85,44.72ZM77.54,47.9V41.54a4.32,4.32,0,0,0-4.31-4.31H69.58A31.24,31.24,0,0,0,66,28.64l2.58-2.58a4.31,4.31,0,0,0,0-6.09l-4.5-4.5a4.31,4.31,0,0,0-6.09,0l-2.58,2.58a31.24,31.24,0,0,0-8.59-3.56V10.84a4.32,4.32,0,0,0-4.31-4.31H36.16a4.32,4.32,0,0,0-4.3,4.31v3.65a31,31,0,0,0-8.59,3.56l-2.59-2.58a4.31,4.31,0,0,0-6.09,0L10.09,20a4.33,4.33,0,0,0,0,6.09l2.59,2.58a31.24,31.24,0,0,0-3.56,8.59H5.46a4.31,4.31,0,0,0-4.3,4.31V47.9a4.31,4.31,0,0,0,4.3,4.31H9.12a31,31,0,0,0,3.56,8.59l-2.59,2.59a4.33,4.33,0,0,0,0,6.09l4.5,4.5a4.33,4.33,0,0,0,6.09,0l2.59-2.59A31,31,0,0,0,31.86,75v3.66a4.31,4.31,0,0,0,4.3,4.3h6.37a4.31,4.31,0,0,0,4.31-4.3V75a31.24,31.24,0,0,0,8.59-3.56L58,74a4.33,4.33,0,0,0,6.09,0l4.5-4.5a4.31,4.31,0,0,0,0-6.09L66,60.8a31,31,0,0,0,3.56-8.59h3.65A4.32,4.32,0,0,0,77.54,47.9Z"/><path class="cls-1" d="M90.18,80.69a14.2,14.2,0,1,1,18.51-7.78A14.19,14.19,0,0,1,90.18,80.69ZM83.51,91.2l4.08,1.67a3,3,0,0,0,3.89-1.63l1-2.35a21.38,21.38,0,0,0,6.44,0l1,2.34a3,3,0,0,0,3.9,1.59l4.07-1.71a3,3,0,0,0,1.59-3.9l-1-2.34A21.17,21.17,0,0,0,113,80.26l2.35,1a3,3,0,0,0,3.89-1.63l1.67-4.08a3,3,0,0,0-1.64-3.89l-2.34-1a21.71,21.71,0,0,0,0-6.44l2.34-1a3,3,0,0,0,1.59-3.91l-1.7-4.06a3,3,0,0,0-3.91-1.6l-2.33,1a21.63,21.63,0,0,0-4.58-4.53l1-2.34a3,3,0,0,0-1.64-3.89l-4.08-1.67a3,3,0,0,0-3.89,1.63l-1,2.35a21.38,21.38,0,0,0-6.44,0l-1-2.33a3,3,0,0,0-3.9-1.6L83.27,44a3,3,0,0,0-1.59,3.9l1,2.34a21.39,21.39,0,0,0-4.53,4.58l-2.35-1a3,3,0,0,0-3.89,1.63l-1.66,4.08a3,3,0,0,0,1.63,3.89l2.34,1a21.71,21.71,0,0,0,0,6.44l-2.34,1a3,3,0,0,0-1.59,3.91L72,79.82a3,3,0,0,0,3.91,1.6l2.33-1A21.63,21.63,0,0,0,82.83,85l-1,2.34A3,3,0,0,0,83.51,91.2Z"/><path class="cls-1" d="M86.21,28.68a10.69,10.69,0,1,1,15.1.8A10.69,10.69,0,0,1,86.21,28.68Zm-8,4.94,2.22,2.47a2.25,2.25,0,0,0,3.17.17L85.05,35a15.74,15.74,0,0,0,4.38,2.09L89.33,39a2.25,2.25,0,0,0,2.12,2.36l3.32.18a2.26,2.26,0,0,0,2.36-2.13l.1-1.9a15.9,15.9,0,0,0,4.57-1.62l1.28,1.42a2.25,2.25,0,0,0,3.17.17l2.47-2.22a2.26,2.26,0,0,0,.17-3.18l-1.28-1.41a16.34,16.34,0,0,0,2.1-4.38l1.9.1A2.25,2.25,0,0,0,114,24.24l.18-3.31A2.26,2.26,0,0,0,112,18.56l-1.9-.1a16,16,0,0,0-1.62-4.57l1.42-1.28a2.25,2.25,0,0,0,.17-3.17L107.87,7a2.26,2.26,0,0,0-3.17-.17l-1.42,1.28A15.88,15.88,0,0,0,98.9,6L99,4.08a2.25,2.25,0,0,0-2.12-2.36l-3.32-.18A2.25,2.25,0,0,0,91.2,3.67l-.1,1.9a16.37,16.37,0,0,0-4.58,1.62L85.25,5.77a2.27,2.27,0,0,0-3.18-.17L79.6,7.83A2.24,2.24,0,0,0,79.44,11l1.27,1.42a16.11,16.11,0,0,0-2.09,4.37l-1.91-.1a2.26,2.26,0,0,0-2.36,2.13l-.17,3.31A2.26,2.26,0,0,0,76.3,24.5l1.91.1a16.29,16.29,0,0,0,1.61,4.57L78.4,30.45A2.25,2.25,0,0,0,78.24,33.62Z"/><path class="cls-1" d="M59.72,44.85a20.5,20.5,0,1,1-20.5-20.5A20.5,20.5,0,0,1,59.72,44.85ZM77.41,48V41.67a4.32,4.32,0,0,0-4.31-4.31H69.45a31.12,31.12,0,0,0-3.56-8.59l2.59-2.58a4.33,4.33,0,0,0,0-6.09L64,15.59a4.33,4.33,0,0,0-6.09,0L55.3,18.18a31.12,31.12,0,0,0-8.59-3.56V11A4.32,4.32,0,0,0,42.4,6.66H36A4.32,4.32,0,0,0,31.73,11v3.65a31,31,0,0,0-8.59,3.56l-2.59-2.59a4.33,4.33,0,0,0-6.09,0L10,20.1a4.33,4.33,0,0,0,0,6.09l2.59,2.58A31.12,31.12,0,0,0,9,37.36H5.33A4.32,4.32,0,0,0,1,41.67V48a4.32,4.32,0,0,0,4.3,4.31H9a31,31,0,0,0,3.56,8.59L10,63.52a4.33,4.33,0,0,0,0,6.09l4.5,4.5a4.33,4.33,0,0,0,6.09,0l2.59-2.59a31,31,0,0,0,8.59,3.56v3.66A4.32,4.32,0,0,0,36,83H42.4a4.32,4.32,0,0,0,4.31-4.3V75.08a31.12,31.12,0,0,0,8.59-3.56l2.58,2.59a4.33,4.33,0,0,0,6.09,0l4.51-4.5a4.33,4.33,0,0,0,0-6.09l-2.59-2.59a31,31,0,0,0,3.56-8.59H73.1A4.32,4.32,0,0,0,77.41,48Z"/><path class="cls-1" d="M90.05,80.82A14.2,14.2,0,1,1,108.57,73,14.19,14.19,0,0,1,90.05,80.82ZM83.38,91.33,87.46,93a3,3,0,0,0,3.89-1.63l1-2.35a21.38,21.38,0,0,0,6.44,0l1,2.33a3,3,0,0,0,3.9,1.6l4.07-1.71a3,3,0,0,0,1.59-3.9l-1-2.34a21.44,21.44,0,0,0,4.54-4.58l2.34,1a3,3,0,0,0,3.89-1.63l1.67-4.08a3,3,0,0,0-1.64-3.89l-2.34-1a21.38,21.38,0,0,0,0-6.44l2.33-1a3,3,0,0,0,1.6-3.91L119,55.4a3,3,0,0,0-3.91-1.6l-2.33,1a21.39,21.39,0,0,0-4.58-4.53l1-2.35A3,3,0,0,0,107.46,44l-4.08-1.67A3,3,0,0,0,99.49,44l-.95,2.35a21.45,21.45,0,0,0-6.45,0l-1-2.34a3,3,0,0,0-3.9-1.59l-4.07,1.71A3,3,0,0,0,81.55,48l1,2.34A21.58,21.58,0,0,0,78,55l-2.35-1a3,3,0,0,0-3.89,1.63L70.1,59.71a3,3,0,0,0,1.63,3.89l2.35,1a21.38,21.38,0,0,0,0,6.44l-2.34,1a3,3,0,0,0-1.59,3.91L71.88,80a3,3,0,0,0,3.91,1.6l2.34-1A21.35,21.35,0,0,0,82.7,85.1l-1,2.34A3,3,0,0,0,83.38,91.33Z"/><path class="cls-1" d="M86.08,28.81a10.7,10.7,0,1,1,15.11.8A10.69,10.69,0,0,1,86.08,28.81Zm-8,4.94,2.22,2.47a2.25,2.25,0,0,0,3.17.17l1.42-1.28A15.74,15.74,0,0,0,89.3,37.2l-.1,1.91a2.25,2.25,0,0,0,2.12,2.36l3.32.18A2.26,2.26,0,0,0,97,39.52l.1-1.9A16.37,16.37,0,0,0,101.68,36L103,37.42a2.26,2.26,0,0,0,3.17.17l2.47-2.22a2.26,2.26,0,0,0,.17-3.18l-1.27-1.42a16.41,16.41,0,0,0,2.09-4.37l1.9.1a2.26,2.26,0,0,0,2.37-2.13l.17-3.31a2.26,2.26,0,0,0-2.12-2.37l-1.91-.1A16,16,0,0,0,108.37,14l1.42-1.28A2.25,2.25,0,0,0,110,9.57L107.74,7.1a2.25,2.25,0,0,0-3.17-.17l-1.42,1.28a15.88,15.88,0,0,0-4.38-2.09l.1-1.91a2.25,2.25,0,0,0-2.12-2.36l-3.32-.18A2.25,2.25,0,0,0,91.07,3.8L91,5.7a16.06,16.06,0,0,0-4.58,1.62L85.12,5.9a2.27,2.27,0,0,0-3.18-.17L79.47,8a2.27,2.27,0,0,0-.16,3.18l1.27,1.41a16.61,16.61,0,0,0-2.09,4.38l-1.9-.1A2.26,2.26,0,0,0,74.22,19l-.17,3.31a2.26,2.26,0,0,0,2.12,2.37l1.91.1a16.29,16.29,0,0,0,1.61,4.57l-1.41,1.28A2.25,2.25,0,0,0,78.11,33.75Z"/><path class="cls-1" d="M59.59,45a20.5,20.5,0,1,1-20.5-20.5A20.5,20.5,0,0,1,59.59,45Zm17.69,3.18V41.8A4.32,4.32,0,0,0,73,37.49H69.32a31,31,0,0,0-3.56-8.59l2.59-2.59a4.33,4.33,0,0,0,0-6.09l-4.5-4.5a4.33,4.33,0,0,0-6.09,0l-2.59,2.59a31,31,0,0,0-8.59-3.56V11.09a4.32,4.32,0,0,0-4.31-4.3H35.91a4.32,4.32,0,0,0-4.31,4.3v3.66A31.12,31.12,0,0,0,23,18.31l-2.58-2.59a4.33,4.33,0,0,0-6.09,0l-4.51,4.5a4.33,4.33,0,0,0,0,6.09l2.59,2.59a31,31,0,0,0-3.56,8.59H5.2A4.32,4.32,0,0,0,.9,41.8v6.36a4.32,4.32,0,0,0,4.3,4.31H8.86a31.12,31.12,0,0,0,3.56,8.59L9.83,63.64a4.33,4.33,0,0,0,0,6.09l4.51,4.51a4.33,4.33,0,0,0,6.09,0L23,71.65a31.12,31.12,0,0,0,8.59,3.56v3.65a4.32,4.32,0,0,0,4.31,4.31h6.36a4.32,4.32,0,0,0,4.31-4.31V75.21a31,31,0,0,0,8.59-3.56l2.59,2.59a4.33,4.33,0,0,0,6.09,0l4.5-4.51a4.33,4.33,0,0,0,0-6.09l-2.59-2.58a31.12,31.12,0,0,0,3.56-8.59H73A4.32,4.32,0,0,0,77.28,48.16Z"/><path class="cls-1" d="M89.93,81a14.2,14.2,0,1,1,18.51-7.78A14.21,14.21,0,0,1,89.93,81ZM83.25,91.46l4.08,1.67a3,3,0,0,0,3.89-1.64l1-2.34a21.38,21.38,0,0,0,6.44,0l1,2.33a3,3,0,0,0,3.91,1.6l4.06-1.71a3,3,0,0,0,1.6-3.91l-1-2.33a21.39,21.39,0,0,0,4.53-4.58l2.34,1A3,3,0,0,0,119,79.85l1.67-4.09A3,3,0,0,0,119,71.87l-2.34-1a21.38,21.38,0,0,0,0-6.44l2.33-1a3,3,0,0,0,1.6-3.9l-1.71-4.07a3,3,0,0,0-3.9-1.59l-2.34,1A21.39,21.39,0,0,0,108,50.38L109,48a3,3,0,0,0-1.63-3.89l-4.09-1.66a3,3,0,0,0-3.88,1.63l-1,2.35a21.38,21.38,0,0,0-6.44,0l-1-2.34a3,3,0,0,0-3.91-1.59L83,44.27a3,3,0,0,0-1.6,3.9l1,2.34a21.35,21.35,0,0,0-4.53,4.57l-2.35-.95a3,3,0,0,0-3.88,1.63L70,59.84a3,3,0,0,0,1.63,3.89l2.35,1a21.38,21.38,0,0,0,0,6.44l-2.34,1A3,3,0,0,0,70.05,76l1.71,4.06a3,3,0,0,0,3.9,1.6l2.34-1a21.62,21.62,0,0,0,4.57,4.54l-.95,2.34A3,3,0,0,0,83.25,91.46Z"/><path class="cls-1" d="M86,28.94a10.7,10.7,0,1,1,15.11.8A10.69,10.69,0,0,1,86,28.94Zm-8,4.94,2.22,2.47a2.25,2.25,0,0,0,3.17.17l1.42-1.28a16.17,16.17,0,0,0,4.38,2.09l-.1,1.91a2.25,2.25,0,0,0,2.12,2.36l3.32.17a2.25,2.25,0,0,0,2.36-2.12l.1-1.91a16.35,16.35,0,0,0,4.58-1.61l1.27,1.42a2.26,2.26,0,0,0,3.18.16l2.47-2.22a2.25,2.25,0,0,0,.16-3.17l-1.27-1.42a16.32,16.32,0,0,0,2.09-4.38l1.9.11a2.27,2.27,0,0,0,2.37-2.13l.17-3.32a2.25,2.25,0,0,0-2.12-2.36l-1.91-.1a16.18,16.18,0,0,0-1.61-4.57l1.41-1.28a2.25,2.25,0,0,0,.17-3.17l-2.22-2.47a2.25,2.25,0,0,0-3.17-.17L103,8.34a16.06,16.06,0,0,0-4.38-2.1l.1-1.9A2.25,2.25,0,0,0,96.62,2L93.3,1.8a2.26,2.26,0,0,0-2.36,2.13l-.1,1.9a16.06,16.06,0,0,0-4.58,1.62L85,6a2.25,2.25,0,0,0-3.17-.17L79.35,8.08a2.25,2.25,0,0,0-.17,3.17l1.27,1.42a16.61,16.61,0,0,0-2.09,4.38l-1.9-.1a2.24,2.24,0,0,0-2.36,2.12l-.18,3.32A2.24,2.24,0,0,0,76,24.75l1.91.1a16,16,0,0,0,1.62,4.58l-1.42,1.28A2.25,2.25,0,0,0,78,33.88Z"/><path class="cls-1" d="M59.46,45.11A20.5,20.5,0,1,1,39,24.61,20.5,20.5,0,0,1,59.46,45.11Zm17.69,3.18V41.92a4.31,4.31,0,0,0-4.3-4.3H69.19A31,31,0,0,0,65.63,29l2.59-2.59a4.33,4.33,0,0,0,0-6.09l-4.5-4.5a4.33,4.33,0,0,0-6.09,0L55,18.44a31,31,0,0,0-8.59-3.56V11.22a4.31,4.31,0,0,0-4.31-4.3H35.78a4.31,4.31,0,0,0-4.31,4.3v3.66a31.24,31.24,0,0,0-8.59,3.56L20.3,15.85a4.33,4.33,0,0,0-6.09,0l-4.5,4.5a4.31,4.31,0,0,0,0,6.09L12.29,29a31,31,0,0,0-3.56,8.59H5.08a4.32,4.32,0,0,0-4.31,4.3v6.37A4.32,4.32,0,0,0,5.08,52.6H8.73a31.24,31.24,0,0,0,3.56,8.59L9.71,63.77a4.31,4.31,0,0,0,0,6.09l4.5,4.5a4.31,4.31,0,0,0,6.09,0l2.58-2.58a31.24,31.24,0,0,0,8.59,3.56V79a4.32,4.32,0,0,0,4.31,4.31h6.36A4.32,4.32,0,0,0,46.45,79V75.34A31,31,0,0,0,55,71.78l2.59,2.58a4.31,4.31,0,0,0,6.09,0l4.5-4.5a4.33,4.33,0,0,0,0-6.09l-2.59-2.58a31.24,31.24,0,0,0,3.56-8.59h3.66A4.31,4.31,0,0,0,77.15,48.29Z"/><path class="cls-1" d="M89.8,81.08a14.2,14.2,0,1,1,18.51-7.78A14.21,14.21,0,0,1,89.8,81.08ZM83.12,91.59l4.08,1.67a3,3,0,0,0,3.89-1.64l1-2.34a21.06,21.06,0,0,0,6.44,0l1,2.34a3,3,0,0,0,3.91,1.6l4.06-1.71a3,3,0,0,0,1.6-3.91l-1-2.33a21.63,21.63,0,0,0,4.53-4.58l2.34,1A3,3,0,0,0,118.82,80l1.67-4.08A3,3,0,0,0,118.86,72l-2.35-1a21.45,21.45,0,0,0,0-6.45l2.33-1a3,3,0,0,0,1.6-3.9l-1.71-4.07a3,3,0,0,0-3.9-1.59l-2.34,1a21.39,21.39,0,0,0-4.58-4.53l1-2.35a3,3,0,0,0-1.63-3.89l-4.08-1.66a3,3,0,0,0-3.89,1.63l-1,2.34a21.71,21.71,0,0,0-6.44,0l-1-2.34A3,3,0,0,0,87,42.69l-4.06,1.7a3,3,0,0,0-1.6,3.91l1,2.33a21.63,21.63,0,0,0-4.53,4.58l-2.34-1a3,3,0,0,0-3.89,1.64L69.84,60a3,3,0,0,0,1.63,3.89l2.35,1a21.38,21.38,0,0,0,0,6.44l-2.33,1a3,3,0,0,0-1.6,3.9l1.71,4.07a3,3,0,0,0,3.9,1.59l2.34-1a21.44,21.44,0,0,0,4.58,4.54l-1,2.34A3,3,0,0,0,83.12,91.59Z"/><path class="cls-1" d="M85.83,29.07a10.7,10.7,0,1,1,15.1.8A10.69,10.69,0,0,1,85.83,29.07Zm-8,4.94,2.22,2.47a2.25,2.25,0,0,0,3.17.16l1.42-1.27A16.47,16.47,0,0,0,89,37.46l-.1,1.9a2.26,2.26,0,0,0,2.12,2.37l3.32.17a2.24,2.24,0,0,0,2.36-2.12l.1-1.91a16.35,16.35,0,0,0,4.58-1.61l1.27,1.41a2.26,2.26,0,0,0,3.18.17l2.47-2.22a2.25,2.25,0,0,0,.17-3.17L107.23,31a16,16,0,0,0,2.09-4.38l1.91.1a2.25,2.25,0,0,0,2.36-2.12l.17-3.32A2.25,2.25,0,0,0,111.64,19l-1.91-.1a16.35,16.35,0,0,0-1.61-4.58L109.54,13a2.25,2.25,0,0,0,.16-3.17l-2.22-2.47a2.25,2.25,0,0,0-3.17-.17l-1.42,1.27a16.32,16.32,0,0,0-4.38-2.09l.1-1.9a2.24,2.24,0,0,0-2.12-2.36l-3.32-.18a2.25,2.25,0,0,0-2.36,2.12L90.71,6a15.9,15.9,0,0,0-4.57,1.62L84.86,6.16A2.25,2.25,0,0,0,81.69,6L79.22,8.21a2.25,2.25,0,0,0-.17,3.17l1.28,1.42a16.2,16.2,0,0,0-2.1,4.38l-1.9-.1A2.25,2.25,0,0,0,74,19.2l-.18,3.32a2.25,2.25,0,0,0,2.13,2.36l1.9.1a16.06,16.06,0,0,0,1.62,4.58L78,30.83A2.26,2.26,0,0,0,77.85,34Z"/><path class="cls-1" d="M59.33,45.24a20.5,20.5,0,1,1-20.5-20.5A20.49,20.49,0,0,1,59.33,45.24ZM77,48.42V42.05a4.32,4.32,0,0,0-4.31-4.3H69.06a30.69,30.69,0,0,0-3.56-8.59l2.59-2.59a4.33,4.33,0,0,0,0-6.09L63.59,16a4.33,4.33,0,0,0-6.09,0l-2.59,2.59A30.4,30.4,0,0,0,46.32,15V11.35A4.32,4.32,0,0,0,42,7H35.65a4.31,4.31,0,0,0-4.3,4.31V15a30.58,30.58,0,0,0-8.6,3.56L20.17,16a4.33,4.33,0,0,0-6.09,0l-4.5,4.5a4.31,4.31,0,0,0,0,6.09l2.58,2.59A31,31,0,0,0,8.6,37.75H5a4.32,4.32,0,0,0-4.31,4.3v6.37A4.31,4.31,0,0,0,5,52.72H8.6a31.18,31.18,0,0,0,3.56,8.6L9.58,63.9a4.31,4.31,0,0,0,0,6.09l4.5,4.5a4.31,4.31,0,0,0,6.09,0l2.58-2.58a31.18,31.18,0,0,0,8.6,3.56v3.65a4.31,4.31,0,0,0,4.3,4.31H42a4.32,4.32,0,0,0,4.3-4.31V75.47a31,31,0,0,0,8.59-3.56l2.59,2.58a4.31,4.31,0,0,0,6.09,0l4.5-4.5a4.33,4.33,0,0,0,0-6.09L65.5,61.32a30.88,30.88,0,0,0,3.56-8.6h3.66A4.31,4.31,0,0,0,77,48.42Z"/><path class="cls-1" d="M89.67,81.2a14.2,14.2,0,1,1,18.51-7.77A14.2,14.2,0,0,1,89.67,81.2ZM83,91.72l4.09,1.66A3,3,0,0,0,91,91.75l1-2.34a21.71,21.71,0,0,0,6.44,0l1,2.34a3,3,0,0,0,3.91,1.59l4.06-1.7a3,3,0,0,0,1.6-3.91l-1-2.33a21.63,21.63,0,0,0,4.53-4.58l2.35,1a3,3,0,0,0,3.88-1.64L120.36,76a3,3,0,0,0-1.63-3.89l-2.35-1a21.38,21.38,0,0,0,0-6.44l2.34-1a3,3,0,0,0,1.59-3.9l-1.71-4.07a3,3,0,0,0-3.9-1.59l-2.34,1a21.62,21.62,0,0,0-4.57-4.54l.95-2.34a3,3,0,0,0-1.63-3.89L103,42.73a3,3,0,0,0-3.89,1.64l-1,2.34a21.06,21.06,0,0,0-6.44,0l-1-2.34a3,3,0,0,0-3.91-1.6l-4.06,1.71a3,3,0,0,0-1.6,3.91l1,2.33a21.63,21.63,0,0,0-4.53,4.58l-2.34-1A3,3,0,0,0,71.38,56L69.71,60.1A3,3,0,0,0,71.35,64l2.34.95a21.45,21.45,0,0,0,0,6.45l-2.33,1a3,3,0,0,0-1.6,3.9l1.71,4.07a3,3,0,0,0,3.9,1.59l2.34-1a21.39,21.39,0,0,0,4.58,4.53l-1,2.35A3,3,0,0,0,83,91.72Z"/><path class="cls-1" d="M85.7,29.2a10.7,10.7,0,1,1,15.1.8A10.7,10.7,0,0,1,85.7,29.2Zm-8,4.93,2.22,2.47a2.26,2.26,0,0,0,3.18.17l1.41-1.27a16.61,16.61,0,0,0,4.38,2.09l-.1,1.9a2.26,2.26,0,0,0,2.13,2.37l3.31.17a2.26,2.26,0,0,0,2.37-2.12l.1-1.91a16,16,0,0,0,4.57-1.62l1.28,1.42a2.25,2.25,0,0,0,3.17.17l2.47-2.22a2.25,2.25,0,0,0,.17-3.17l-1.28-1.42a15.74,15.74,0,0,0,2.09-4.38l1.91.1a2.25,2.25,0,0,0,2.36-2.12l.18-3.32a2.25,2.25,0,0,0-2.13-2.36l-1.9-.1A16.37,16.37,0,0,0,108,14.4l1.42-1.27a2.27,2.27,0,0,0,.17-3.18l-2.23-2.46a2.25,2.25,0,0,0-3.17-.17l-1.42,1.27A16.41,16.41,0,0,0,98.39,6.5l.1-1.9a2.26,2.26,0,0,0-2.13-2.37l-3.31-.17a2.26,2.26,0,0,0-2.37,2.12l-.1,1.91A16.29,16.29,0,0,0,86,7.7L84.73,6.29a2.25,2.25,0,0,0-3.17-.17L79.09,8.34a2.25,2.25,0,0,0-.17,3.17l1.28,1.42a15.74,15.74,0,0,0-2.09,4.38l-1.91-.1a2.25,2.25,0,0,0-2.36,2.12l-.18,3.32A2.25,2.25,0,0,0,75.79,25l1.9.1a16.06,16.06,0,0,0,1.62,4.58L77.89,31A2.26,2.26,0,0,0,77.72,34.13Z"/><path class="cls-1" d="M59.2,45.36A20.5,20.5,0,1,1,38.71,24.87,20.49,20.49,0,0,1,59.2,45.36Zm17.7,3.19V42.18a4.31,4.31,0,0,0-4.31-4.3H68.93a30.67,30.67,0,0,0-3.55-8.59L68,26.7a4.31,4.31,0,0,0,0-6.09l-4.5-4.5a4.31,4.31,0,0,0-6.09,0l-2.59,2.58a31,31,0,0,0-8.59-3.56V11.48a4.31,4.31,0,0,0-4.3-4.31H35.52a4.31,4.31,0,0,0-4.3,4.31v3.65a31,31,0,0,0-8.59,3.56L20,16.11a4.31,4.31,0,0,0-6.09,0l-4.5,4.5a4.31,4.31,0,0,0,0,6.09L12,29.29a30.4,30.4,0,0,0-3.56,8.59H4.82a4.31,4.31,0,0,0-4.31,4.3v6.37a4.31,4.31,0,0,0,4.31,4.3H8.48A30.4,30.4,0,0,0,12,61.44L9.45,64a4.31,4.31,0,0,0,0,6.09l4.5,4.5a4.31,4.31,0,0,0,6.09,0L22.63,72a30.4,30.4,0,0,0,8.59,3.56v3.66a4.31,4.31,0,0,0,4.3,4.31h6.37a4.31,4.31,0,0,0,4.3-4.31V75.59A30.4,30.4,0,0,0,54.78,72l2.59,2.59a4.31,4.31,0,0,0,6.09,0l4.5-4.5A4.31,4.31,0,0,0,68,64l-2.58-2.59a30.67,30.67,0,0,0,3.55-8.59h3.66A4.31,4.31,0,0,0,76.9,48.55Z"/><path class="cls-1" d="M89.54,81.33a14.2,14.2,0,1,1,18.51-7.77A14.2,14.2,0,0,1,89.54,81.33ZM82.87,91.85,87,93.51a3,3,0,0,0,3.89-1.63l1-2.35a21.38,21.38,0,0,0,6.44,0l1,2.34a3,3,0,0,0,3.9,1.59l4.07-1.71a3,3,0,0,0,1.59-3.9l-1-2.34a21.35,21.35,0,0,0,4.53-4.57l2.35,1a3,3,0,0,0,3.89-1.63l1.66-4.08a3,3,0,0,0-1.63-3.89l-2.35-1a21.38,21.38,0,0,0,0-6.44l2.34-1A3,3,0,0,0,120.15,60l-1.71-4.06a3,3,0,0,0-3.9-1.6l-2.34,1a21.39,21.39,0,0,0-4.57-4.54l1-2.34A3,3,0,0,0,107,44.53l-4.08-1.67A3,3,0,0,0,99,44.5l-1,2.34a21.38,21.38,0,0,0-6.44,0l-1-2.33a3,3,0,0,0-3.9-1.6l-4.07,1.71A3,3,0,0,0,81,48.56l1,2.33a21.44,21.44,0,0,0-4.54,4.58l-2.34-1a3,3,0,0,0-3.89,1.63l-1.67,4.09a3,3,0,0,0,1.64,3.89l2.34.95a21.38,21.38,0,0,0,0,6.44l-2.33,1a3,3,0,0,0-1.6,3.9l1.71,4.07a3,3,0,0,0,3.91,1.59l2.33-1a21.39,21.39,0,0,0,4.58,4.53l-1,2.35A3,3,0,0,0,82.87,91.85Z"/><path class="cls-1" d="M85.57,29.32a10.69,10.69,0,1,1,15.1.8A10.69,10.69,0,0,1,85.57,29.32Zm-8,4.94,2.22,2.47A2.26,2.26,0,0,0,83,36.9l1.42-1.27a16.41,16.41,0,0,0,4.37,2.09l-.1,1.9A2.25,2.25,0,0,0,90.81,42l3.31.18A2.26,2.26,0,0,0,96.49,40l.1-1.91a16,16,0,0,0,4.57-1.62l1.28,1.42a2.25,2.25,0,0,0,3.17.17l2.47-2.22a2.26,2.26,0,0,0,.17-3.17L107,31.29a15.88,15.88,0,0,0,2.09-4.38L111,27a2.25,2.25,0,0,0,2.36-2.12l.18-3.32a2.25,2.25,0,0,0-2.13-2.36l-1.9-.1a16.06,16.06,0,0,0-1.62-4.58l1.42-1.27a2.27,2.27,0,0,0,.17-3.18l-2.22-2.47a2.26,2.26,0,0,0-3.18-.16l-1.41,1.27a16.61,16.61,0,0,0-4.38-2.09l.1-1.91a2.26,2.26,0,0,0-2.13-2.36l-3.31-.17a2.26,2.26,0,0,0-2.37,2.12l-.1,1.91a16.29,16.29,0,0,0-4.57,1.61L84.6,6.41a2.25,2.25,0,0,0-3.17-.16L79,8.47a2.25,2.25,0,0,0-.17,3.17l1.28,1.42A15.74,15.74,0,0,0,78,17.44l-1.91-.1a2.25,2.25,0,0,0-2.36,2.12l-.18,3.32a2.26,2.26,0,0,0,2.13,2.36l1.9.1a16.2,16.2,0,0,0,1.62,4.57l-1.42,1.28A2.25,2.25,0,0,0,77.59,34.26Z"/><path class="cls-1" d="M59.07,45.49A20.5,20.5,0,1,1,38.58,25,20.49,20.49,0,0,1,59.07,45.49Zm17.7,3.19V42.31A4.32,4.32,0,0,0,72.46,38H68.81a31.24,31.24,0,0,0-3.56-8.59l2.58-2.58a4.31,4.31,0,0,0,0-6.09l-4.5-4.5a4.31,4.31,0,0,0-6.09,0l-2.58,2.58a31.24,31.24,0,0,0-8.59-3.56V11.61A4.32,4.32,0,0,0,41.76,7.3H35.39a4.32,4.32,0,0,0-4.3,4.31v3.65a31,31,0,0,0-8.59,3.56l-2.59-2.58a4.31,4.31,0,0,0-6.09,0l-4.5,4.5a4.33,4.33,0,0,0,0,6.09l2.59,2.58A30.94,30.94,0,0,0,8.35,38H4.69a4.31,4.31,0,0,0-4.3,4.31v6.37A4.31,4.31,0,0,0,4.69,53H8.35a30.69,30.69,0,0,0,3.56,8.59L9.32,64.16a4.33,4.33,0,0,0,0,6.09l4.5,4.5a4.33,4.33,0,0,0,6.09,0l2.59-2.59a31,31,0,0,0,8.59,3.56v3.66a4.31,4.31,0,0,0,4.3,4.3h6.37a4.31,4.31,0,0,0,4.31-4.3V75.72a31.24,31.24,0,0,0,8.59-3.56l2.58,2.59a4.33,4.33,0,0,0,6.09,0l4.5-4.5a4.31,4.31,0,0,0,0-6.09l-2.58-2.59A31,31,0,0,0,68.81,53h3.65A4.32,4.32,0,0,0,76.77,48.68Z"/><path class="cls-1" d="M89.41,81.46a14.2,14.2,0,1,1,18.51-7.78A14.2,14.2,0,0,1,89.41,81.46ZM82.74,92l4.08,1.67A3,3,0,0,0,90.71,92l1-2.35a21.38,21.38,0,0,0,6.44,0l1,2.34a3,3,0,0,0,3.9,1.59l4.07-1.71a3,3,0,0,0,1.59-3.9l-1-2.34A21.58,21.58,0,0,0,112.2,81l2.35.95a3,3,0,0,0,3.89-1.63l1.66-4.08a3,3,0,0,0-1.63-3.89l-2.34-1a21.71,21.71,0,0,0,0-6.44l2.34-1A3,3,0,0,0,120,60.1L118.32,56a3,3,0,0,0-3.91-1.6l-2.33,1a21.63,21.63,0,0,0-4.58-4.53l1-2.34a3,3,0,0,0-1.64-3.89L102.74,43a3,3,0,0,0-3.89,1.63l-1,2.35a21.38,21.38,0,0,0-6.44,0l-1-2.33a3,3,0,0,0-3.9-1.6L82.5,44.78a3,3,0,0,0-1.59,3.9l1,2.34a21.17,21.17,0,0,0-4.53,4.58l-2.35-1a3,3,0,0,0-3.89,1.63l-1.67,4.09a3,3,0,0,0,1.64,3.88l2.34,1a21.71,21.71,0,0,0,0,6.44l-2.34,1a3,3,0,0,0-1.59,3.91l1.7,4.06a3,3,0,0,0,3.91,1.6l2.33-1a21.63,21.63,0,0,0,4.58,4.53l-1,2.35A3,3,0,0,0,82.74,92Z"/><path class="cls-1" d="M85.44,29.45a10.69,10.69,0,1,1,15.1.8A10.69,10.69,0,0,1,85.44,29.45Zm-8,4.94,2.22,2.47a2.25,2.25,0,0,0,3.17.17l1.42-1.28a15.74,15.74,0,0,0,4.38,2.09l-.11,1.91a2.26,2.26,0,0,0,2.13,2.36l3.32.18a2.26,2.26,0,0,0,2.36-2.13l.1-1.9A15.9,15.9,0,0,0,101,36.64l1.28,1.42a2.25,2.25,0,0,0,3.17.17L108,36a2.26,2.26,0,0,0,.17-3.18l-1.28-1.41a16.34,16.34,0,0,0,2.1-4.38l1.9.1A2.25,2.25,0,0,0,113.2,25l.18-3.31a2.25,2.25,0,0,0-2.13-2.36l-1.9-.11a16,16,0,0,0-1.62-4.57l1.42-1.28a2.25,2.25,0,0,0,.17-3.17L107.1,7.74a2.26,2.26,0,0,0-3.17-.17l-1.42,1.28a16.31,16.31,0,0,0-4.38-2.09l.1-1.91a2.25,2.25,0,0,0-2.12-2.36l-3.32-.18a2.25,2.25,0,0,0-2.36,2.13l-.1,1.91A15.93,15.93,0,0,0,85.75,8L84.47,6.54a2.25,2.25,0,0,0-3.17-.17L78.83,8.6a2.25,2.25,0,0,0-.17,3.17l1.28,1.42a16,16,0,0,0-2.09,4.38l-1.91-.11a2.26,2.26,0,0,0-2.36,2.13l-.17,3.32a2.25,2.25,0,0,0,2.12,2.36l1.91.1a16.18,16.18,0,0,0,1.61,4.57l-1.42,1.28A2.24,2.24,0,0,0,77.47,34.39Z"/><path class="cls-1" d="M59,45.62a20.5,20.5,0,1,1-20.5-20.5A20.5,20.5,0,0,1,59,45.62ZM76.64,48.8V42.44a4.32,4.32,0,0,0-4.31-4.31H68.68a31.12,31.12,0,0,0-3.56-8.59L67.7,27a4.31,4.31,0,0,0,0-6.09l-4.5-4.5a4.31,4.31,0,0,0-6.09,0L54.53,19a31.24,31.24,0,0,0-8.59-3.56V11.74a4.32,4.32,0,0,0-4.31-4.31H35.27A4.32,4.32,0,0,0,31,11.74v3.65A31,31,0,0,0,22.37,19l-2.59-2.58a4.31,4.31,0,0,0-6.09,0l-4.5,4.5a4.33,4.33,0,0,0,0,6.09l2.59,2.58a31.12,31.12,0,0,0-3.56,8.59H4.56a4.31,4.31,0,0,0-4.3,4.31V48.8a4.31,4.31,0,0,0,4.3,4.31H8.22a31,31,0,0,0,3.56,8.59L9.19,64.29a4.33,4.33,0,0,0,0,6.09l4.5,4.5a4.33,4.33,0,0,0,6.09,0l2.59-2.59A31,31,0,0,0,31,75.85v3.66a4.31,4.31,0,0,0,4.31,4.3h6.36a4.31,4.31,0,0,0,4.31-4.3V75.85a31.24,31.24,0,0,0,8.59-3.56l2.58,2.59a4.33,4.33,0,0,0,6.09,0l4.5-4.5a4.31,4.31,0,0,0,0-6.09L65.12,61.7a31,31,0,0,0,3.56-8.59h3.65A4.32,4.32,0,0,0,76.64,48.8Z"/><path class="cls-1" d="M89.28,81.59a14.2,14.2,0,1,1,18.52-7.78A14.19,14.19,0,0,1,89.28,81.59ZM82.61,92.1l4.08,1.67a3,3,0,0,0,3.89-1.63l1-2.35a21.38,21.38,0,0,0,6.44,0l1,2.33a3,3,0,0,0,3.9,1.6L106.93,92a3,3,0,0,0,1.59-3.9l-1-2.34a21.44,21.44,0,0,0,4.54-4.58l2.34,1a3,3,0,0,0,3.89-1.63L120,76.41a3,3,0,0,0-1.64-3.89l-2.34-1a21.38,21.38,0,0,0,0-6.44l2.33-1a3,3,0,0,0,1.6-3.91l-1.71-4.06a3,3,0,0,0-3.91-1.6l-2.33,1A21.63,21.63,0,0,0,107.37,51l1-2.34a3,3,0,0,0-1.64-3.89l-4.08-1.67a3,3,0,0,0-3.89,1.63l-1,2.35a21.45,21.45,0,0,0-6.45,0l-1-2.34a3,3,0,0,0-3.9-1.59l-4.07,1.71a3,3,0,0,0-1.59,3.9l1,2.34a21.39,21.39,0,0,0-4.53,4.58l-2.35-1A3,3,0,0,0,71,56.4l-1.66,4.08A3,3,0,0,0,71,64.37l2.34,1a21.71,21.71,0,0,0,0,6.44l-2.34,1a3,3,0,0,0-1.59,3.91l1.7,4.06A3,3,0,0,0,75,82.32l2.34-1a21.35,21.35,0,0,0,4.57,4.53l-1,2.34A3,3,0,0,0,82.61,92.1Z"/><path class="cls-1" d="M85.31,29.58a10.7,10.7,0,1,1,15.11.8A10.69,10.69,0,0,1,85.31,29.58Zm-8,4.94L79.56,37a2.25,2.25,0,0,0,3.17.17l1.42-1.28A15.74,15.74,0,0,0,88.53,38l-.1,1.91a2.25,2.25,0,0,0,2.12,2.36l3.32.18a2.26,2.26,0,0,0,2.36-2.13l.1-1.9a16.37,16.37,0,0,0,4.58-1.62l1.27,1.42a2.26,2.26,0,0,0,3.17.17l2.47-2.22A2.26,2.26,0,0,0,108,33l-1.27-1.42a16.41,16.41,0,0,0,2.09-4.37l1.9.1a2.25,2.25,0,0,0,2.36-2.13l.18-3.31a2.26,2.26,0,0,0-2.12-2.37l-1.91-.1a16,16,0,0,0-1.62-4.57L109,13.51a2.25,2.25,0,0,0,.17-3.17L107,7.87a2.25,2.25,0,0,0-3.17-.17L102.38,9A15.88,15.88,0,0,0,98,6.89L98.1,5A2.25,2.25,0,0,0,96,2.62l-3.32-.18A2.25,2.25,0,0,0,90.3,4.57l-.1,1.9a16.37,16.37,0,0,0-4.58,1.62L84.35,6.67a2.27,2.27,0,0,0-3.18-.17L78.7,8.72a2.27,2.27,0,0,0-.16,3.18l1.27,1.42a16.41,16.41,0,0,0-2.09,4.37l-1.9-.1a2.26,2.26,0,0,0-2.37,2.13L73.28,23A2.26,2.26,0,0,0,75.4,25.4l1.91.1a16.29,16.29,0,0,0,1.61,4.57l-1.41,1.28A2.25,2.25,0,0,0,77.34,34.52Z"/><path class="cls-1" d="M58.82,45.75a20.5,20.5,0,1,1-20.5-20.5A20.5,20.5,0,0,1,58.82,45.75Zm17.69,3.18V42.57a4.32,4.32,0,0,0-4.3-4.31H68.55A31,31,0,0,0,65,29.67l2.59-2.59a4.33,4.33,0,0,0,0-6.09l-4.5-4.5a4.33,4.33,0,0,0-6.09,0L54.4,19.08a31,31,0,0,0-8.59-3.56V11.86a4.32,4.32,0,0,0-4.31-4.3H35.14a4.32,4.32,0,0,0-4.31,4.3v3.66a31,31,0,0,0-8.59,3.56l-2.59-2.59a4.33,4.33,0,0,0-6.09,0L9.06,21a4.33,4.33,0,0,0,0,6.09l2.59,2.59a31,31,0,0,0-3.56,8.59H4.43a4.32,4.32,0,0,0-4.3,4.31v6.36a4.32,4.32,0,0,0,4.3,4.31H8.09a31,31,0,0,0,3.56,8.59L9.06,64.42a4.32,4.32,0,0,0,0,6.08L13.56,75a4.33,4.33,0,0,0,6.09,0l2.59-2.59A31,31,0,0,0,30.83,76v3.66a4.32,4.32,0,0,0,4.31,4.3H41.5a4.32,4.32,0,0,0,4.31-4.3V76a31,31,0,0,0,8.59-3.56L57,75a4.33,4.33,0,0,0,6.09,0l4.5-4.51a4.32,4.32,0,0,0,0-6.08L65,61.83a31,31,0,0,0,3.56-8.59h3.66A4.32,4.32,0,0,0,76.51,48.93Z"/><path class="cls-1" d="M89.15,81.72a14.2,14.2,0,1,1,18.52-7.78A14.21,14.21,0,0,1,89.15,81.72ZM82.48,92.23l4.08,1.67a3,3,0,0,0,3.89-1.64l1-2.34a21.38,21.38,0,0,0,6.44,0l1,2.33a3,3,0,0,0,3.91,1.6l4.06-1.71a3,3,0,0,0,1.6-3.91l-1-2.33A21.44,21.44,0,0,0,112,81.29l2.34,1a3,3,0,0,0,3.89-1.63l1.67-4.09a3,3,0,0,0-1.64-3.88l-2.34-1a21.38,21.38,0,0,0,0-6.44l2.33-1a3,3,0,0,0,1.6-3.9l-1.71-4.07a3,3,0,0,0-3.91-1.59l-2.33,1a21.39,21.39,0,0,0-4.58-4.53l1-2.35a3,3,0,0,0-1.63-3.89l-4.09-1.66a3,3,0,0,0-3.89,1.63l-1,2.35a21.38,21.38,0,0,0-6.44,0l-1-2.34a3,3,0,0,0-3.9-1.59L82.24,45a3,3,0,0,0-1.59,3.9l1,2.34a21.35,21.35,0,0,0-4.53,4.57l-2.35-1a3,3,0,0,0-3.89,1.63L69.2,60.61a3,3,0,0,0,1.63,3.89l2.35,1a21.38,21.38,0,0,0,0,6.44l-2.34,1a3,3,0,0,0-1.59,3.91L71,80.85a3,3,0,0,0,3.9,1.6l2.34-1A21.16,21.16,0,0,0,81.8,86l-1,2.34A3,3,0,0,0,82.48,92.23Z"/><path class="cls-1" d="M85.18,29.71a10.7,10.7,0,1,1,15.11.8A10.69,10.69,0,0,1,85.18,29.71Zm-8,4.94,2.22,2.47a2.25,2.25,0,0,0,3.17.17L84,36A16,16,0,0,0,88.4,38.1L88.3,40a2.25,2.25,0,0,0,2.12,2.36l3.32.17a2.25,2.25,0,0,0,2.36-2.12l.1-1.91a16.35,16.35,0,0,0,4.58-1.61l1.27,1.42a2.27,2.27,0,0,0,3.18.17l2.46-2.23a2.25,2.25,0,0,0,.17-3.17l-1.27-1.42a16.32,16.32,0,0,0,2.09-4.38l1.9.11A2.26,2.26,0,0,0,113,25.27l.17-3.32A2.25,2.25,0,0,0,111,19.59l-1.91-.1a16.18,16.18,0,0,0-1.61-4.57l1.41-1.28a2.25,2.25,0,0,0,.17-3.17L106.84,8a2.25,2.25,0,0,0-3.17-.17l-1.42,1.28A15.74,15.74,0,0,0,97.87,7L98,5.11a2.25,2.25,0,0,0-2.12-2.36l-3.32-.18A2.25,2.25,0,0,0,90.17,4.7l-.1,1.9a16.06,16.06,0,0,0-4.58,1.62L84.22,6.8a2.26,2.26,0,0,0-3.17-.17L78.58,8.85A2.26,2.26,0,0,0,78.41,12l1.27,1.41a16.61,16.61,0,0,0-2.09,4.38l-1.9-.1a2.26,2.26,0,0,0-2.37,2.13l-.17,3.31a2.24,2.24,0,0,0,2.12,2.36l1.91.11A16,16,0,0,0,78.8,30.2l-1.42,1.28A2.25,2.25,0,0,0,77.21,34.65Z"/><path class="cls-1" d="M58.69,45.88a20.5,20.5,0,1,1-20.5-20.5A20.5,20.5,0,0,1,58.69,45.88Zm17.69,3.18V42.7a4.31,4.31,0,0,0-4.3-4.31H68.42a31,31,0,0,0-3.56-8.59l2.59-2.59a4.33,4.33,0,0,0,0-6.09L63,16.62a4.33,4.33,0,0,0-6.09,0l-2.59,2.59a31,31,0,0,0-8.59-3.56V12a4.31,4.31,0,0,0-4.31-4.3H35A4.31,4.31,0,0,0,30.7,12v3.66a31.24,31.24,0,0,0-8.59,3.56l-2.58-2.59a4.33,4.33,0,0,0-6.09,0l-4.5,4.5a4.31,4.31,0,0,0,0,6.09l2.58,2.59A31,31,0,0,0,8,38.39H4.31A4.32,4.32,0,0,0,0,42.7v6.36a4.32,4.32,0,0,0,4.31,4.31H8A31.24,31.24,0,0,0,11.52,62L8.94,64.54a4.31,4.31,0,0,0,0,6.09l4.5,4.5a4.31,4.31,0,0,0,6.09,0l2.58-2.58a31.24,31.24,0,0,0,8.59,3.56v3.65A4.32,4.32,0,0,0,35,84.07h6.36a4.32,4.32,0,0,0,4.31-4.31V76.11a31,31,0,0,0,8.59-3.56l2.59,2.58a4.31,4.31,0,0,0,6.09,0l4.5-4.5a4.33,4.33,0,0,0,0-6.09L64.86,62a31.24,31.24,0,0,0,3.56-8.59h3.66A4.31,4.31,0,0,0,76.38,49.06Z"/><path class="cls-1" d="M89,81.85a14.2,14.2,0,1,1,18.51-7.78A14.21,14.21,0,0,1,89,81.85ZM82.35,92.36,86.43,94a3,3,0,0,0,3.89-1.64l1-2.34a21.38,21.38,0,0,0,6.44,0l1,2.33a3,3,0,0,0,3.91,1.6l4.06-1.71a3,3,0,0,0,1.6-3.91l-1-2.33a21.39,21.39,0,0,0,4.53-4.58l2.34,1a3,3,0,0,0,3.89-1.64l1.67-4.08a3,3,0,0,0-1.63-3.89l-2.35-1a21.45,21.45,0,0,0,0-6.45l2.33-1a3,3,0,0,0,1.6-3.9l-1.71-4.07a3,3,0,0,0-3.9-1.59l-2.34,1a21.39,21.39,0,0,0-4.58-4.53l1-2.35A3,3,0,0,0,106.44,45l-4.08-1.66A3,3,0,0,0,98.47,45l-1,2.34a21.71,21.71,0,0,0-6.44,0l-1-2.34a3,3,0,0,0-3.91-1.59l-4.06,1.7a3,3,0,0,0-1.6,3.91l1,2.34A21.35,21.35,0,0,0,77,56l-2.34-1a3,3,0,0,0-3.89,1.64l-1.67,4.08a3,3,0,0,0,1.63,3.89l2.35,1a21.38,21.38,0,0,0,0,6.44l-2.34,1a3,3,0,0,0-1.59,3.9L70.86,81a3,3,0,0,0,3.9,1.59l2.34-1a21.44,21.44,0,0,0,4.58,4.54l-1,2.34A3,3,0,0,0,82.35,92.36Z"/><path class="cls-1" d="M85.06,29.84a10.69,10.69,0,1,1,15.1.8A10.69,10.69,0,0,1,85.06,29.84Zm-8,4.94,2.22,2.47a2.25,2.25,0,0,0,3.17.16l1.42-1.27a16.47,16.47,0,0,0,4.38,2.09l-.1,1.91a2.25,2.25,0,0,0,2.12,2.36l3.32.17A2.25,2.25,0,0,0,96,40.55l.1-1.91A16.35,16.35,0,0,0,100.65,37l1.27,1.42a2.27,2.27,0,0,0,3.18.16l2.47-2.22a2.24,2.24,0,0,0,.16-3.17l-1.27-1.42a16.32,16.32,0,0,0,2.09-4.38l1.91.1a2.25,2.25,0,0,0,2.36-2.12l.17-3.32a2.25,2.25,0,0,0-2.12-2.36l-1.91-.1a16.18,16.18,0,0,0-1.61-4.57l1.42-1.28a2.25,2.25,0,0,0,.16-3.17l-2.22-2.47A2.25,2.25,0,0,0,103.54,8l-1.42,1.27a16.32,16.32,0,0,0-4.38-2.09l.1-1.9a2.24,2.24,0,0,0-2.12-2.36L92.4,2.7A2.25,2.25,0,0,0,90,4.82l-.1,1.91a15.9,15.9,0,0,0-4.57,1.62L84.09,6.93a2.25,2.25,0,0,0-3.17-.17L78.45,9a2.25,2.25,0,0,0-.17,3.17l1.27,1.42A16.47,16.47,0,0,0,77.46,18l-1.9-.1A2.24,2.24,0,0,0,73.2,20L73,23.29a2.25,2.25,0,0,0,2.12,2.36l1.91.1a16.06,16.06,0,0,0,1.62,4.58L77.25,31.6A2.26,2.26,0,0,0,77.08,34.78Z"/><circle class="cls-2" cx="93.01" cy="22.69" r="10.69"/><circle class="cls-3" cx="93.01" cy="22.69" r="8.85"/><path class="cls-4" d="M99.27,16.43a8.85,8.85,0,0,0-15.11,6.26h17.7A8.85,8.85,0,0,0,99.27,16.43Z"/><circle class="cls-2" cx="94.39" cy="68.7" r="14.23" transform="translate(-21.82 57.53) rotate(-30.56)"/><circle class="cls-5" cx="94.39" cy="68.7" r="11.79" transform="translate(13.12 152.52) rotate(-81.93)"/><path class="cls-6" d="M102.73,60.36A11.8,11.8,0,0,0,82.6,68.7h23.58A11.77,11.77,0,0,0,102.73,60.36Z"/><circle class="cls-2" cx="38.19" cy="45.88" r="20.51" transform="translate(-18.37 26.8) rotate(-31.59)"/><circle class="cls-7" cx="38.19" cy="45.88" r="16.99" transform="translate(-2.34 2.05) rotate(-2.99)"/><path class="cls-8" d="M50.21,33.86a17,17,0,0,0-29,12h34A17,17,0,0,0,50.21,33.86Z"/><path class="cls-9" d="M76.38,49.06V42.7a4.31,4.31,0,0,0-4.3-4.31H68.42a31,31,0,0,0-3.56-8.59l2.59-2.59a4.33,4.33,0,0,0,0-6.09L63,16.62a4.33,4.33,0,0,0-6.09,0l-2.59,2.59a31,31,0,0,0-8.59-3.56V12a4.31,4.31,0,0,0-4.31-4.3H35A4.31,4.31,0,0,0,30.7,12v3.66a31.24,31.24,0,0,0-8.59,3.56l-2.58-2.59a4.33,4.33,0,0,0-6.09,0l-4.5,4.5a4.31,4.31,0,0,0,0,6.09l2.58,2.59A31,31,0,0,0,8,38.39H4.31A4.32,4.32,0,0,0,0,42.7v6.36a4.32,4.32,0,0,0,4.31,4.31H8A31.24,31.24,0,0,0,11.52,62L8.94,64.54a4.31,4.31,0,0,0,0,6.09l4.5,4.5a4.31,4.31,0,0,0,6.09,0l2.58-2.58a31.24,31.24,0,0,0,8.59,3.56v3.65A4.32,4.32,0,0,0,35,84.07h6.36a4.32,4.32,0,0,0,4.31-4.31V76.11a31,31,0,0,0,8.59-3.56l2.59,2.58a4.31,4.31,0,0,0,6.09,0l4.5-4.5a4.33,4.33,0,0,0,0-6.09L64.86,62a31.24,31.24,0,0,0,3.56-8.59h3.66A4.31,4.31,0,0,0,76.38,49.06ZM58.69,45.88a20.5,20.5,0,1,1-20.5-20.5A20.5,20.5,0,0,1,58.69,45.88Z"/><path class="cls-9" d="M82.35,92.36,86.43,94a3,3,0,0,0,3.89-1.64l1-2.34a21.38,21.38,0,0,0,6.44,0l1,2.33a3,3,0,0,0,3.91,1.6l4.06-1.71a3,3,0,0,0,1.6-3.91l-1-2.33a21.39,21.39,0,0,0,4.53-4.58l2.34,1a3,3,0,0,0,3.89-1.64l1.67-4.08a3,3,0,0,0-1.63-3.89l-2.35-1a21.45,21.45,0,0,0,0-6.45l2.33-1a3,3,0,0,0,1.6-3.9l-1.71-4.07a3,3,0,0,0-3.9-1.59l-2.34,1a21.39,21.39,0,0,0-4.58-4.53l1-2.35A3,3,0,0,0,106.44,45l-4.08-1.66A3,3,0,0,0,98.47,45l-1,2.34a21.71,21.71,0,0,0-6.44,0l-1-2.34a3,3,0,0,0-3.91-1.59l-4.06,1.7a3,3,0,0,0-1.6,3.91l1,2.34A21.35,21.35,0,0,0,77,56l-2.34-1a3,3,0,0,0-3.89,1.64l-1.67,4.08a3,3,0,0,0,1.63,3.89l2.35,1a21.38,21.38,0,0,0,0,6.44l-2.34,1a3,3,0,0,0-1.59,3.9L70.86,81a3,3,0,0,0,3.9,1.59l2.34-1a21.44,21.44,0,0,0,4.58,4.54l-1,2.34A3,3,0,0,0,82.35,92.36ZM89,81.85a14.2,14.2,0,1,1,18.51-7.78A14.21,14.21,0,0,1,89,81.85Z"/><path class="cls-9" d="M77.08,34.78l2.22,2.47a2.25,2.25,0,0,0,3.17.16l1.42-1.27a16.47,16.47,0,0,0,4.38,2.09l-.1,1.91a2.25,2.25,0,0,0,2.12,2.36l3.32.17A2.25,2.25,0,0,0,96,40.55l.1-1.91A16.35,16.35,0,0,0,100.65,37l1.27,1.42a2.27,2.27,0,0,0,3.18.16l2.47-2.22a2.24,2.24,0,0,0,.16-3.17l-1.27-1.42a16.32,16.32,0,0,0,2.09-4.38l1.91.1a2.25,2.25,0,0,0,2.36-2.12l.17-3.32a2.25,2.25,0,0,0-2.12-2.36l-1.91-.1a16.18,16.18,0,0,0-1.61-4.57l1.42-1.28a2.25,2.25,0,0,0,.16-3.17l-2.22-2.47A2.25,2.25,0,0,0,103.54,8l-1.42,1.27a16.32,16.32,0,0,0-4.38-2.09l.1-1.9a2.24,2.24,0,0,0-2.12-2.36L92.4,2.7A2.25,2.25,0,0,0,90,4.82l-.1,1.91a15.9,15.9,0,0,0-4.57,1.62L84.09,6.93a2.25,2.25,0,0,0-3.17-.17L78.45,9a2.25,2.25,0,0,0-.17,3.17l1.27,1.42A16.47,16.47,0,0,0,77.46,18l-1.9-.1A2.24,2.24,0,0,0,73.2,20L73,23.29a2.25,2.25,0,0,0,2.12,2.36l1.91.1a16.06,16.06,0,0,0,1.62,4.58L77.25,31.6A2.26,2.26,0,0,0,77.08,34.78Zm8-4.94a10.69,10.69,0,1,1,15.1.8A10.69,10.69,0,0,1,85.06,29.84Z"/></g></g></svg>