<svg xmlns="http://www.w3.org/2000/svg" viewBox="0 0 125.27 112.72"><defs><style>.cls-1{fill:#efb019;}.cls-2{fill:#c18037;}.cls-3{fill:#004294;}</style></defs><title>Recurso 7</title><g id="Capa_2" data-name="Capa 2"><g id="Capa_5" data-name="Capa 5"><rect class="cls-1" x="39.43" y="62.91" width="37.47" height="17.57" transform="translate(116.32 143.38) rotate(180)"/><rect class="cls-2" x="39.43" y="62.91" width="37.47" height="1.25" transform="translate(116.32 127.07) rotate(180)"/><rect class="cls-1" x="39.08" y="53.26" width="38.17" height="10.4" transform="translate(116.32 116.93) rotate(180)"/><rect class="cls-1" x="78.85" y="68.34" width="29.03" height="13.61" transform="translate(186.72 150.28) rotate(180)"/><rect class="cls-2" x="78.85" y="68.34" width="29.03" height="0.97" transform="translate(186.72 137.65) rotate(180)"/><rect class="cls-1" x="78.58" y="60.87" width="29.57" height="8.06" transform="translate(186.72 129.79) rotate(180)"/><rect class="cls-1" x="74.42" y="42.21" width="33.72" height="15.81" transform="translate(159.51 128.79) rotate(-159.71)"/><rect class="cls-2" x="76.96" y="42.67" width="33.72" height="1.13" transform="translate(166.83 116.33) rotate(-159.71)"/><rect class="cls-1" x="78.23" y="34.27" width="34.35" height="9.36" transform="translate(171.39 108.58) rotate(-159.71)"/><rect class="cls-1" x="32.76" y="27.43" width="43.52" height="20.4" transform="translate(120.34 45.19) rotate(151.94)"/><rect class="cls-2" x="28.31" y="28.54" width="43.52" height="1.46" transform="translate(108.02 31.55) rotate(151.94)"/><rect class="cls-1" x="25.13" y="18.03" width="44.33" height="12.08" transform="translate(100.36 23.07) rotate(151.94)"/><rect class="cls-1" x="71.12" y="13.95" width="43.52" height="20.4" transform="translate(181.76 60.36) rotate(-172.4)"/><rect class="cls-2" x="72.38" y="14.03" width="43.52" height="1.46" transform="translate(185.49 41.83) rotate(-172.4)"/><rect class="cls-1" x="72.75" y="2.88" width="44.33" height="12.08" transform="translate(187.82 30.31) rotate(-172.4)"/><path class="cls-3" d="M37.3,82.13,20.51,26.53A3.69,3.69,0,0,1,24,21.78h97.56a3.69,3.69,0,0,1,3.52,4.75l-16.79,55.6a3.69,3.69,0,0,1-3.53,2.62h-64A3.69,3.69,0,0,1,37.3,82.13Zm79.33-53H29L43.56,77.38h58.5Z"/><rect class="cls-3" x="64.67" y="49.58" width="56.46" height="7.36" transform="translate(24.3 135.49) rotate(-79.99)"/><rect class="cls-3" x="49.04" y="25.03" width="7.36" height="56.46" transform="translate(-8.46 9.97) rotate(-10.01)"/><rect class="cls-3" x="69.13" y="25.46" width="7.36" height="55.6"/><rect class="cls-3" x="29.55" y="39.92" width="86.53" height="4.91"/><rect class="cls-3" x="36.08" y="59.15" width="73.46" height="4.91"/><path class="cls-3" d="M24.16,29.14a3.85,3.85,0,0,0,1.1-.16,3.69,3.69,0,0,0,2.41-4.62L21.61,5A3.68,3.68,0,0,0,18.1,2.45H3.68a3.69,3.69,0,0,0,0,7.37H15.4l5.25,16.74A3.67,3.67,0,0,0,24.16,29.14Z"/><path class="cls-3" d="M78.53,101.13A11.59,11.59,0,1,0,90.11,89.54,11.58,11.58,0,0,0,78.53,101.13Z"/><path class="cls-3" d="M43.92,101.13A11.59,11.59,0,1,0,55.5,89.54,11.58,11.58,0,0,0,43.92,101.13Z"/></g></g></svg>