<svg xmlns="http://www.w3.org/2000/svg" viewBox="0 0 379.85 309.8"><g id="store" class="icon icon-page store" data-name="store"><g id="store_1-2" data-name="Capa 1"><path d="M359.19,291.84H356.5V135.23A54,54,0,0,0,379.85,90.7a9,9,0,0,0-1.19-4.46L335.33,10.41A20.71,20.71,0,0,0,317.39,0H62.45A20.7,20.7,0,0,0,44.52,10.41L1.19,86.24A8.92,8.92,0,0,0,0,90.7a54,54,0,0,0,23.35,44.53V291.84h-2.7a9,9,0,1,0,0,18H359.19a9,9,0,0,0,0-18Zm-49.84-11.22v11.22H257.27V280.62Zm0-110.9v92.94H257.27V169.72Zm9-18h-70a9,9,0,0,0-9,9v131.1h-198V143.35a54.2,54.2,0,0,0,58.14-22.78,54.2,54.2,0,0,0,90.47,0,54.2,54.2,0,0,0,90.47,0,54.21,54.21,0,0,0,58.15,22.78V291.84H327.31V160.74A9,9,0,0,0,318.33,151.76ZM109.57,99.68H179.8a36.24,36.24,0,0,1-70.23,0Zm90.47,0h70.24a36.25,36.25,0,0,1-70.24,0Zm124.13,0a9,9,0,0,0,0-18H55.68a9,9,0,1,0,0,18H89.33a36.25,36.25,0,0,1-70.24,0H32.33a9,9,0,0,0,0-18H24.46l35.65-62.4A2.71,2.71,0,0,1,62.45,18H317.39a2.68,2.68,0,0,1,2.34,1.36l35.66,62.4h-7.87a9,9,0,1,0,0,18h13.23a36.25,36.25,0,0,1-70.24,0Z"/><path d="M206.58,161.44H74a8.12,8.12,0,0,0-8.11,8.11v93.27A8.12,8.12,0,0,0,74,270.94H206.58a8.12,8.12,0,0,0,8.11-8.12V169.55A8.12,8.12,0,0,0,206.58,161.44Zm-8.11,16.23v77H82.15v-77Z"/></g></g></svg>
