<svg xmlns="http://www.w3.org/2000/svg" viewBox="0 0 309.72 352.39"><title>Recurso 8</title><g id="Capa_2" data-name="Capa 2"><g id="Capa_1-2" data-name="Capa 1"><path d="M306.13,334.25l-53.49-46.09a51.69,51.69,0,0,0,36.43-49.33V92.92A51.68,51.68,0,0,0,237.45,41.3H223.18L211.1,17.12A30.81,30.81,0,0,0,183.39,0H126.32a30.81,30.81,0,0,0-27.7,17.12L86.54,41.3H72.27A51.67,51.67,0,0,0,20.65,92.92V238.83a51.72,51.72,0,0,0,36.43,49.34L3.59,334.25a10.32,10.32,0,1,0,13.47,15.64l21.07-18.15H271.59l21.07,18.15a10.32,10.32,0,1,0,13.47-15.64Zm-189-307.9a10.26,10.26,0,0,1,9.23-5.7h57.07a10.26,10.26,0,0,1,9.24,5.71L200.1,41.3H109.62ZM72.27,61.88H237.45a31.09,31.09,0,0,1,29.2,20.71H43.07A31.09,31.09,0,0,1,72.27,61.88ZM263.6,103.21l-25.35,64.53a30.82,30.82,0,0,1-28.76,19.47H100.23A30.81,30.81,0,0,1,71.49,167.8L46.12,103.21ZM41.3,238.83V147.41l11,28a51.38,51.38,0,0,0,47.93,32.45H209.49a51.39,51.39,0,0,0,47.95-32.51l11-27.94v91.42a31,31,0,0,1-31,31H185.83V259.48a31,31,0,1,0-61.94,0V269.8H72.27A31,31,0,0,1,41.3,238.83Zm123.88,20.65V269.8H144.54V259.48a10.32,10.32,0,1,1,20.64,0ZM62.1,311.1l24-20.65H223.65l24,20.65Z"/></g></g></svg>