<svg xmlns="http://www.w3.org/2000/svg" viewBox="0 0 84.17 93.03"><defs><style>.cls-1{fill:#fff;}</style></defs><title>Recurso 28</title><g id="Capa_2" data-name="Capa 2"><g id="Capa_5" data-name="Capa 5"><path class="cls-1" d="M43.3.65a1.46,1.46,0,0,0-2.43,0l-12.15,21a1.41,1.41,0,0,0,.51,1.92,1.47,1.47,0,0,0,.7.19h24.3a1.4,1.4,0,0,0,1.4-1.41,1.46,1.46,0,0,0-.18-.7ZM32.36,21,42.08,4.16,51.8,21Z"/><path class="cls-1" d="M82.76,58.87H60.32a1.39,1.39,0,0,0-1.4,1.4h0V82.71a1.4,1.4,0,0,0,1.4,1.41H82.76a1.41,1.41,0,0,0,1.41-1.41h0V60.27a1.4,1.4,0,0,0-1.41-1.4Zm-1.4,22.44H61.72V61.67H81.36Z"/><path class="cls-1" d="M12.62,58.87A12.63,12.63,0,1,0,25.25,71.49,12.62,12.62,0,0,0,12.62,58.87Zm0,22.44a9.82,9.82,0,1,1,9.82-9.82A9.82,9.82,0,0,1,12.62,81.31Z"/><path class="cls-1" d="M42.08,93A27.64,27.64,0,0,1,29.61,90.1a1.39,1.39,0,0,1,1.24-2.49,25.21,25.21,0,0,0,22.46,0,1.39,1.39,0,0,1,1.25,2.49A27.69,27.69,0,0,1,42.08,93Z"/><path class="cls-1" d="M81.25,51.24A1.4,1.4,0,0,1,79.87,50a25.27,25.27,0,0,0-10-17.25,1.39,1.39,0,0,1,1.67-2.23A28.11,28.11,0,0,1,82.64,49.69a1.39,1.39,0,0,1-1.22,1.54Z"/><path class="cls-1" d="M2.91,51.24H2.75a1.39,1.39,0,0,1-1.22-1.54A28.11,28.11,0,0,1,12.59,30.53a1.39,1.39,0,0,1,1.67,2.23A25.28,25.28,0,0,0,4.29,50,1.39,1.39,0,0,1,2.91,51.24Z"/></g></g></svg>