<svg xmlns="http://www.w3.org/2000/svg" viewBox="0 0 407.5 344.91"><title>Recurso 6</title><g id="Capa_2" data-name="Capa 2"><g id="Capa_1-2" data-name="Capa 1"><path d="M152,177.34a36.82,36.82,0,1,0-54,13.91,41,41,0,0,0-12,40.43l8,31.15a8.83,8.83,0,0,0,10.74,6.34l79-20.34a8.81,8.81,0,0,0,6.34-10.73l-8-31.15a41,41,0,0,0-30-29.61Zm-37.78-34.88A19.19,19.19,0,0,1,124,179.58l-.38.1a19.19,19.19,0,0,1-9.37-37.22ZM170.83,234l-61.94,15.94-5.82-22.6a23.38,23.38,0,0,1,16.79-28.44l16.72-4.3A23.37,23.37,0,0,1,165,211.34L170.83,234Zm31.82-101.32A8.82,8.82,0,0,1,209,121.9L255.14,110a8.81,8.81,0,1,1,4.39,17.07L213.38,139a8.81,8.81,0,0,1-10.73-6.34ZM310,1.18l-23.15,6-.34.09L242,18.68l-.33.08L197.21,30.21l-.34.09L152.4,41.75l-.34.09L107.58,53.28l-.33.09L62.77,64.82l-.34.09L28,73.76A37.37,37.37,0,0,0,1.18,119.21L52.07,316.88a37.36,37.36,0,0,0,45.44,26.84l23.15-6,.34-.08,44.48-11.45.33-.09,44.48-11.45.34-.08,44.48-11.45.33-.09,44.48-11.45.17,0,.17-.05,44.47-11.44.34-.09,34.41-8.86a37.36,37.36,0,0,0,26.84-45.44L355.43,28A37.36,37.36,0,0,0,310,1.18Zm79.26,228.91a19.72,19.72,0,0,1-14.17,24l-20.38,5.25,2.37-9.89a8.82,8.82,0,0,0-17.15-4.1l-4.54,19-25.5,6.56,2.37-9.88a8.82,8.82,0,0,0-17.15-4.11l-4.54,19-25.49,6.56,2.37-9.89a8.82,8.82,0,0,0-17.15-4.11l-4.55,19-25.49,6.56,2.37-9.88a8.82,8.82,0,0,0-17.15-4.11l-4.54,19-25.5,6.56,2.37-9.88a8.81,8.81,0,1,0-17.14-4.11l-4.54,19L130.62,317l2.37-9.89A8.82,8.82,0,0,0,115.84,303l-4.54,19-18.19,4.68a19.7,19.7,0,0,1-24-14.16L18.25,114.81a19.72,19.72,0,0,1,14.17-24l20.39-5.25-2.37,9.89a8.82,8.82,0,0,0,17.15,4.1l4.54-19,25.49-6.56-2.37,9.88a8.82,8.82,0,0,0,17.15,4.11l4.54-19,25.49-6.56-2.36,9.88a8.82,8.82,0,0,0,17.15,4.11l4.54-19L187.25,51l-2.36,9.89A8.81,8.81,0,1,0,202,65l4.54-19,25.5-6.56-2.37,9.88a8.81,8.81,0,1,0,17.14,4.11l4.55-19,25.49-6.56-2.37,9.89a8.82,8.82,0,0,0,17.15,4.1l4.54-19,18.19-4.68a19.71,19.71,0,0,1,24,14.15l50.88,197.68Zm-49.62-52.51a8.81,8.81,0,0,1-6.34,10.73L232.75,214.19a8.81,8.81,0,1,1-4.4-17.07l100.54-25.88a8.83,8.83,0,0,1,10.74,6.34Zm-8.73-33.92a8.83,8.83,0,0,1-6.34,10.74L224,180.28a8.82,8.82,0,0,1-4.4-17.08l100.54-25.88a8.83,8.83,0,0,1,10.74,6.34Z"/></g></g></svg>